<?xml version="1.0" encoding="UTF-8" standalone="no"?>
<svg
   width="135.07594"
   height="126.46632"
   viewBox="0 0 135.07595 126.46633"
   fill="none"
   version="1.1"
   id="svg1"
   sodipodi:docname="EHQALogo.svg"
   inkscape:version="1.4.2 (f4327f4, 2025-05-13)"
   inkscape:export-filename="C:\Users\buste\Pictures\EHQALogo.png"
   inkscape:export-xdpi="448.59814"
   inkscape:export-ydpi="448.59814"
   xmlns:inkscape="http://www.inkscape.org/namespaces/inkscape"
   xmlns:sodipodi="http://sodipodi.sourceforge.net/DTD/sodipodi-0.dtd"
   xmlns="http://www.w3.org/2000/svg"
   xmlns:svg="http://www.w3.org/2000/svg">
  <sodipodi:namedview
     id="namedview1"
     pagecolor="#ffffff"
     bordercolor="#000000"
     borderopacity="0.25"
     inkscape:showpageshadow="2"
     inkscape:pageopacity="0.0"
     inkscape:pagecheckerboard="0"
     inkscape:deskcolor="#d1d1d1"
     inkscape:zoom="2"
     inkscape:cx="-27.25"
     inkscape:cy="25.25"
     inkscape:window-width="1920"
     inkscape:window-height="991"
     inkscape:window-x="-9"
     inkscape:window-y="-9"
     inkscape:window-maximized="1"
     inkscape:current-layer="layer1"
     showgrid="false" />
  <defs
     id="defs1">
    <clipPath
       id="clip0_55_53">
      <rect
         width="106.423"
         height="144"
         fill="#ffffff"
         id="rect1"
         x="0"
         y="0" />
    </clipPath>
  </defs>
  <g
     inkscape:groupmode="layer"
     id="layer1"
     inkscape:label="Layer 1"
     transform="translate(1.3515594)">
    <path
       d="M 5.51577,3.40834e-4 C 4.75274,0.00881273 3.99712,0.253182 3.23592,0.806618 2.60308,1.26674 1.96742,1.94159 1.41164,2.70023 L 1.41062,2.70193 C 0.896348,3.48928 0.488417,4.32178 0.280674,5.07613 -0.219104,6.89084 0.430452,8.24949 1.71738,9.45456 3.00431,10.6596 4.9284,11.7109 6.47359,12.494 c 1.54519,0.7831 2.71092,1.2979 4.05311,2.0797 1.3421,0.7818 2.8604,1.8303 4.3063,2.5879 1.446,0.7576 2.8195,1.2244 4.1931,1.6911 0.4788,0.0604 0.9579,0.1196 1.4411,-0.0785 l 4.1045,2.6022 C 18.3443,28.3887 14.9,37.4386 14.8895,46.817 c 0.0322,2.8697 0.3861,5.7268 1.0552,8.5177 -2.1723,1.3327 -4.2922,2.6261 -6.04881,3.6455 -2.28771,1.3277 -4.0031,2.2238 -5.28752,2.845 -1.28444,0.6212 -2.13782,0.9675 -2.85177,1.478 -0.71395,0.5105 -1.288502,1.1855 -1.556759,1.7962 -0.2682607,0.6107 -0.2307655,1.1511 -0.095045,1.5737 0.135715,0.4226 0.369185,0.7183 0.621282,0.9784 0.252097,0.2602 0.522942,0.4847 0.914522,0.6781 0.39157,0.1935 0.90371,0.3557 1.4722,0.4116 0.5685,0.056 1.19327,0.0056 1.83038,-0.1197 C 5.58029,68.4962 6.22971,68.296 6.80841,67.9813 7.38712,67.6665 7.89498,67.2376 8.23055,66.8953 8.56612,66.553 8.72949,66.2977 8.89278,66.0423 8.40447,65.9355 7.91616,65.8285 7.49497,65.6815 7.07376,65.5344 6.71953,65.3473 6.42791,65.1704 6.1363,64.9936 5.90734,64.8273 5.83437,64.6482 5.76139,64.4692 5.84465,64.2776 6.14856,64.0713 6.45246,63.8649 6.977,63.6439 7.5183,63.477 c 0.5413,-0.1668 1.09922,-0.2794 1.69678,-0.3984 0.59755,-0.119 1.23442,-0.2443 3.08512,-1.0667 1.2104,-0.5379 2.9948,-1.4055 4.904,-2.3448 1.742,4.8555 4.445,9.31 7.9475,13.0973 3.5024,3.7872 7.7324,6.8295 12.4373,8.945 -0.5849,0.7462 -1.2447,1.5911 -1.4269,1.8033 -5.9559,6.9358 -17.3663,-8.1365 -22.2632,-8.0385 -1.6038,0.0322 -2.6792,0.981 -3.1372,2.5332 -0.1712,0.3312 -0.3619,0.4422 -0.5645,0.3967 C 9.99468,78.3586 9.78046,78.1568 9.54516,77.8948 9.30987,77.6328 9.05382,77.3103 8.82952,76.9157 8.60523,76.5211 8.41295,76.0538 8.22075,75.5869 c -0.24598,0.1994 -0.49188,0.3991 -0.8029,0.7819 -0.31103,0.3828 -0.68709,0.9488 -0.92973,1.5679 -0.24264,0.6191 -0.35221,1.2913 -0.38353,1.94 -0.03131,0.6487 0.01557,1.2738 0.1664,1.8276 0.15083,0.5539 0.40602,1.0364 0.67506,1.3948 0.26904,0.3584 0.55178,0.5927 0.86953,0.8033 0.62142,0.4117 1.89427,1.0327 2.97822,0.1417 0.4348,-0.3574 1.0619,-1.0258 1.4915,-1.8077 0.4297,-0.782 0.662,-1.6779 1.1181,-3.0405 0.8472,-3.9457 12.6881,8.7518 18.6988,8.3483 0.8496,-0.057 4.1575,0.5725 7.7064,-4.9331 4.2949,1.6617 8.8537,2.5368 13.4586,2.5835 4.6097,-0.0349 9.1753,-0.9001 13.4782,-2.5541 3.5415,5.4729 6.8388,4.8468 7.6868,4.9037 6.0108,0.4035 17.8516,-12.294 18.6988,-8.3483 0.4561,1.3626 0.6884,2.2585 1.1181,3.0404 0.4297,0.782 1.0567,1.4504 1.4915,1.8078 1.084,0.891 2.3568,0.27 2.9782,-0.1417 0.3178,-0.2106 0.6005,-0.4449 0.8696,-0.8033 0.269,-0.3584 0.5246,-0.8409 0.6746,-1.3947 0.151,-0.5539 0.198,-1.179 0.167,-1.8277 -0.031,-0.6487 -0.141,-1.3209 -0.384,-1.94 -0.2423,-0.6191 -0.6184,-1.1851 -0.9294,-1.5679 -0.3111,-0.3828 -0.5569,-0.5824 -0.8029,-0.7819 -0.1922,0.4669 -0.3845,0.9342 -0.6088,1.3288 -0.2243,0.3946 -0.4804,0.717 -0.7157,0.9791 -0.2353,0.262 -0.4495,0.4639 -0.652,0.5093 -0.2026,0.0455 -0.3933,-0.0655 -0.5645,-0.3967 -0.458,-1.5522 -1.5334,-2.501 -3.1372,-2.5331 -4.8969,-0.0981 -16.3073,14.9742 -22.2631,8.0385 -0.179,-0.2084 -0.8283,-1.0403 -1.4005,-1.7702 4.7073,-2.1049 8.9421,-5.1368 12.4516,-8.9146 3.5095,-3.7779 6.2218,-8.2243 7.9747,-13.0736 1.8347,0.9018 3.5547,1.7377 4.7244,2.2575 1.8507,0.8224 2.4876,0.9477 3.0851,1.0667 0.5976,0.119 1.1555,0.2316 1.6968,0.3984 0.5413,0.1669 1.0662,0.388 1.3705,0.5943 0.304,0.2062 0.386,0.3979 0.313,0.5769 -0.073,0.1791 -0.301,0.3454 -0.5931,0.5223 -0.2916,0.1768 -0.6459,0.3643 -1.067,0.5113 -0.4213,0.147 -0.9095,0.2537 -1.3978,0.3605 0.1632,0.2554 0.3266,0.5107 0.6622,0.853 0.3355,0.3423 0.8434,0.7712 1.4221,1.086 0.5786,0.3147 1.2276,0.5153 1.8656,0.6405 0.637,0.1253 1.262,0.1753 1.83,0.1194 0.569,-0.0559 1.081,-0.2178 1.472,-0.4112 0.392,-0.1935 0.663,-0.4183 0.915,-0.6785 0.252,-0.2601 0.485,-0.5558 0.621,-0.9784 0.136,-0.4226 0.173,-0.963 -0.095,-1.5737 -0.268,-0.6107 -0.843,-1.2857 -1.557,-1.7962 -0.714,-0.5106 -1.567,-0.8568 -2.852,-1.478 -1.284,-0.6212 -2.9997,-1.5173 -5.2874,-2.845 -1.7078,-0.991 -3.7661,-2.2464 -5.8743,-3.5393 0.6559,-2.8278 0.989,-5.721 0.9926,-8.6239 -0.0026,-9.401 -3.4557,-18.474 -9.7042,-25.4978 l 4.0145,-2.545 c 0.4833,0.1981 0.9623,0.139 1.4412,0.0785 1.3736,-0.4666 2.7471,-0.9335 4.193,-1.6911 1.4459,-0.7576 2.9643,-1.8061 4.3064,-2.5879 1.3422,-0.7818 2.5079,-1.2965 4.0531,-2.0797 1.5451,-0.7831 3.4691,-1.8344 4.7561,-3.03944 1.287,-1.20509 1.937,-2.56371 1.437,-4.37843 -0.208,-0.75435 -0.616,-1.58686 -1.13,-2.3742 L 105.011,2.70024 C 104.455,1.9416 103.82,1.26674 103.187,0.806615 102.426,0.253171 101.67,0.00880754 100.907,3.33419e-4 100.144,-0.00812556 99.3734,0.219098 98.5829,0.60911 c -1.5811,0.78005 -3.2426,2.21071 -4.5198,3.38106 -1.2772,1.17035 -2.1699,2.07997 -3.3743,3.06078 -1.2044,0.98078 -2.7201,2.03249 -3.9384,3.11895 -1.2184,1.0864 -2.1389,2.2076 -3.0594,3.3289 -0.2441,0.4625 -0.4826,0.9275 -0.4208,1.5112 l -4.7098,2.9569 C 71.5636,11.829 62.5747,8.443 53.2672,8.43928 43.9405,8.44636 34.9356,11.8496 27.9355,18.0129 h -3e-4 L 23.1526,15.0103 C 23.2145,14.4265 22.9757,13.9614 22.7315,13.4988 21.811,12.3775 20.8904,11.2563 19.6721,10.1699 18.4538,9.08343 16.9381,8.03171 15.7337,7.05094 14.5293,6.07012 13.6366,5.1605 12.3594,3.99016 11.0822,2.8198 9.42071,1.38916 7.83959,0.609113 7.04904,0.21908 6.2788,-0.00813106 5.51577,3.40834e-4 Z M 7.66136,5.18504 C 7.973,5.19902 8.27419,5.3021 8.52886,5.48232 9.26269,6.0015 9.43668,7.01724 8.91746,7.75103 8.39821,8.48483 7.38222,8.65884 6.64843,8.13962 5.9146,7.62043 5.74094,6.60474 6.26017,5.87093 6.58013,5.41873 7.10793,5.1603 7.66136,5.18504 Z m 91.09974,0 c 0.5535,-0.02474 1.0816,0.23366 1.4019,0.68587 0.519,0.73381 0.345,1.74952 -0.389,2.2687 C 99.0403,8.65884 98.0246,8.48481 97.5054,7.75102 96.9861,7.01723 97.1598,6.00151 97.8936,5.48233 98.1483,5.3021 98.4495,5.19902 98.7611,5.18504 Z M 51.8095,10.9799 c 0.246,-0.0096 0.4976,0.0519 0.7235,0.1918 0.6023,0.373 0.7866,1.1583 0.4136,1.7606 L 37.2809,38.2262 c -0.3731,0.6023 -1.1581,0.787 -1.7604,0.4139 -0.6024,-0.373 -0.787,-1.1583 -0.414,-1.7607 L 50.7723,11.5856 c 0.2331,-0.3764 0.6274,-0.5898 1.0372,-0.6057 z m 4.8161,0.2878 c 0.2458,-0.0123 0.4981,0.0462 0.7255,0.1836 0.6064,0.3664 0.7998,1.1496 0.4335,1.756 l -12.6594,20.958 c -0.3663,0.6065 -1.1495,0.7999 -1.756,0.4336 -0.6064,-0.3663 -0.7995,-1.1495 -0.4332,-1.756 l 12.6591,-20.958 c 0.2289,-0.379 0.6208,-0.5967 1.0305,-0.6172 z m -39.8418,0.3277 c 0.3117,0.014 0.6129,0.1174 0.8675,0.2976 0.7339,0.5193 0.9078,1.5348 0.3886,2.2687 -0.5192,0.734 -1.5352,0.9081 -2.269,0.3886 -0.7338,-0.5192 -0.9078,-1.5352 -0.3886,-2.269 0.32,-0.4522 0.8481,-0.7106 1.4015,-0.6859 z m 72.8552,0 c 0.5534,-0.0247 1.0812,0.2337 1.4012,0.6859 0.5192,0.7338 0.3452,1.7498 -0.3886,2.269 -0.7338,0.5195 -1.7498,0.3454 -2.269,-0.3886 -0.5192,-0.7339 -0.3449,-1.7494 0.3889,-2.2687 0.2547,-0.1802 0.5558,-0.2836 0.8675,-0.2976 z m -43.8641,0.185 c 0.2459,-0.0106 0.4976,0.0498 0.7241,0.1887 0.6039,0.3705 0.7919,1.1551 0.4214,1.7591 l -17.9645,29.287 c -0.3705,0.6039 -1.1551,0.7918 -1.759,0.4214 -0.604,-0.3705 -0.7919,-1.1548 -0.4214,-1.7587 L 44.7403,12.3905 c 0.2316,-0.3774 0.6248,-0.5924 1.0346,-0.6101 z m 15.7006,0.4285 c 0.2084,0.0061 0.4165,0.0642 0.6057,0.1793 0.6054,0.3681 0.7817,1.1758 0.3954,1.8111 l -9.2885,15.2758 c -0.3863,0.6352 -1.1848,0.8503 -1.7902,0.4822 -0.6053,-0.3681 -0.7816,-1.1758 -0.3953,-1.811 l 9.2885,-15.2759 c 0.2656,-0.4367 0.7259,-0.6749 1.1844,-0.6615 z m 3.9638,1.5416 c 0.2458,-0.0116 0.4981,0.0482 0.7251,0.1863 0.6053,0.3683 0.7961,1.1517 0.4278,1.757 l -5.8858,9.6734 c -0.3682,0.6053 -1.152,0.7961 -1.7573,0.4278 -0.6053,-0.3682 -0.7958,-1.152 -0.4275,-1.7573 l 5.8855,-9.6734 c 0.2302,-0.3783 0.6224,-0.5946 1.0322,-0.6138 z M 38.656,14.5091 c 0.2459,-0.0091 0.4975,0.0528 0.7231,0.1931 0.6016,0.3742 0.7847,1.1598 0.4106,1.7614 L 19.946,48.368 c -0.3741,0.6016 -1.1597,0.7847 -1.7613,0.4106 -0.6017,-0.3742 -0.7845,-1.1598 -0.4103,-1.7614 L 37.6177,15.1128 c 0.2339,-0.376 0.6284,-0.5886 1.0383,-0.6037 z m 30.5803,1.4066 c 0.0282,-5e-4 0.0566,-3e-4 0.0849,0.001 0.2059,0.0093 0.4127,0.0688 0.6024,0.183 0.607,0.3654 0.8016,1.1482 0.4363,1.7552 l -1.3793,2.2911 c -0.3653,0.607 -1.1482,0.8016 -1.7552,0.4362 -0.607,-0.3653 -0.8014,-1.1482 -0.436,-1.7552 l 1.3789,-2.2911 c 0.2355,-0.3912 0.6445,-0.6112 1.068,-0.6202 z m 6.0505,2.6958 c 0.4307,0.0107 0.8346,0.2228 1.061,0.6034 0.3622,0.6089 0.128,1.4116 -0.5249,1.8003 L 20.0783,54.1987 c -0.653,0.3884 -1.4702,0.2108 -1.8324,-0.3981 -0.3622,-0.6089 -0.1281,-1.4119 0.5249,-1.8003 L 74.5154,18.8171 c 0.2449,-0.1456 0.513,-0.212 0.7714,-0.2056 z m -45.4472,1.3556 c 0.2459,-0.011 0.4978,0.0491 0.7245,0.1877 0.6044,0.3695 0.7936,1.1538 0.4241,1.7583 L 19.8026,40.2097 c -0.3695,0.6045 -1.1535,0.7934 -1.758,0.4238 C 17.4402,40.264 17.251,39.48 17.6205,38.8755 L 28.8061,20.5789 c 0.2309,-0.3778 0.6237,-0.5935 1.0335,-0.6118 z m 48.7431,2.0265 c 0.4307,0.0107 0.8349,0.2228 1.0613,0.6033 0.3622,0.609 0.128,1.4116 -0.5249,1.8 L 21.5299,58.6261 c -0.653,0.3885 -1.4705,0.2109 -1.8328,-0.398 -0.3622,-0.609 -0.1281,-1.4119 0.5249,-1.8003 L 77.8116,22.1989 c 0.2448,-0.1457 0.5127,-0.2117 0.7711,-0.2053 z m 2.8856,3.8292 c 0.4307,0.0107 0.8349,0.2228 1.0612,0.6033 0.3623,0.6089 0.128,1.4116 -0.5248,1.8003 L 23.0799,63.3117 c -0.653,0.3884 -1.4702,0.2108 -1.8324,-0.3981 -0.3622,-0.6089 -0.1281,-1.4119 0.5249,-1.8003 L 80.6971,26.0281 c 0.2449,-0.1457 0.5127,-0.2117 0.7712,-0.2053 z m 2.7012,3.9539 c 0.4307,0.0107 0.8349,0.2228 1.0613,0.6034 0.3622,0.6089 0.1281,1.4115 -0.5249,1.7999 L 25.6357,67.3194 c -0.653,0.3884 -1.4702,0.2108 -1.8324,-0.3981 -0.3622,-0.6089 -0.1281,-1.4118 0.5249,-1.8002 L 83.3984,29.982 c 0.2449,-0.1456 0.5127,-0.2117 0.7711,-0.2053 z m 2.0648,4.4975 c 0.4307,0.0107 0.8349,0.2228 1.0613,0.6034 0.3622,0.6089 0.1281,1.4115 -0.5249,1.7999 L 28.6914,71.06 c -0.653,0.3884 -1.4702,0.2108 -1.8324,-0.3981 -0.3622,-0.6089 -0.1281,-1.4118 0.5249,-1.8003 L 85.4628,34.4795 c 0.2449,-0.1456 0.5131,-0.2118 0.7715,-0.2053 z m 1.389,4.8824 c 0.206,-0.0076 0.4104,0.035 0.5956,0.1231 0.2222,0.1058 0.4165,0.2768 0.5516,0.5056 0.3601,0.6101 0.1586,1.3914 -0.4515,1.7516 L 58.7309,59.0015 c -0.6101,0.3602 -1.3914,0.1587 -1.7515,-0.4515 -0.3602,-0.6101 -0.1587,-1.3911 0.4515,-1.7512 L 87.0192,39.3341 c 0.1907,-0.1125 0.3981,-0.17 0.6041,-0.1775 z m 0.1552,5.4651 c 0.2061,-0.0073 0.4106,0.0357 0.5956,0.1241 0.2221,0.1061 0.4163,0.2776 0.5509,0.5066 0.3592,0.6107 0.1562,1.3914 -0.4545,1.7506 L 61.9064,63.0035 C 61.2957,63.3627 60.515,63.1604 60.1558,62.5497 59.7967,61.939 59.9993,61.1583 60.61,60.7991 L 87.1741,44.7985 c 0.1909,-0.1122 0.3984,-0.1696 0.6044,-0.1768 z m -0.2134,5.7288 c 0.2061,-0.0047 0.4102,0.0406 0.5942,0.1313 0.2208,0.1087 0.4126,0.2828 0.5445,0.5134 0.3519,0.6149 0.1401,1.3932 -0.4748,1.7451 L 64.6414,66.9734 c -0.6149,0.3519 -1.3932,0.1401 -1.7451,-0.4748 -0.3519,-0.615 -0.1398,-1.3933 0.4752,-1.7452 L 86.9587,50.5203 c 0.1922,-0.1099 0.4003,-0.1652 0.6064,-0.1698 z m -1.4895,6.5264 c 0.2344,0 0.463,0.061 0.6609,0.1769 0.1799,0.1054 0.3347,0.2561 0.4454,0.4478 0.3544,0.6135 0.1213,1.4067 -0.5225,1.7786 L 67.062,71.2385 c -0.6438,0.372 -1.4476,0.1776 -1.802,-0.4359 -0.3544,-0.6135 -0.1212,-1.4067 0.5226,-1.7786 L 85.38,57.0656 c 0.2213,-0.1277 0.4613,-0.1887 0.6956,-0.1887 z m -34.3046,3.1454 1.4959,-1e-4 h 3e-4 l 3e-4,1e-4 1.4959,-1e-4 c 0.4834,0.0295 0.9912,0.3497 1.3109,0.8801 l 10.0624,16.6621 c 0.3705,0.6027 0.1165,1.394 -0.5358,1.6683 -0.5034,0.2118 -1.1633,-0.0032 -1.4746,-0.4792 C 62.4235,76.1474 57.6138,68.5447 54.1205,63.4574 53.8883,63.1193 53.578,62.9458 53.2675,62.9386 h -3e-4 -3e-4 c -0.3104,0.0071 -0.6208,0.1807 -0.853,0.5188 -3.4933,5.0873 -8.303,12.69 -10.0058,15.2961 -0.3113,0.476 -0.9712,0.691 -1.4746,0.4792 -0.6522,-0.2743 -0.9063,-1.0656 -0.5357,-1.6683 L 50.4601,60.9023 c 0.3198,-0.5304 0.8275,-0.8506 1.3109,-0.88 z m 31.2239,4.3933 c 0.2061,-9e-4 0.4093,0.0486 0.5916,0.1427 0.2186,0.1129 0.4071,0.2905 0.5346,0.5235 0.3402,0.6215 0.1139,1.3956 -0.5076,1.7357 l -13.8459,8.4998 c -0.6215,0.3401 -1.3958,0.1136 -1.736,-0.508 -0.3401,-0.6215 -0.1132,-1.3959 0.5084,-1.736 l 13.8455,-8.4998 c 0.1942,-0.1063 0.4033,-0.1573 0.6094,-0.1579 z M 42.6015,65.068 c 0.2459,-0.0116 0.4981,0.0482 0.7251,0.1863 0.6053,0.3683 0.7961,1.1517 0.4279,1.757 l -5.8859,9.6734 c -0.3682,0.6053 -1.152,0.7961 -1.7573,0.4278 -0.6052,-0.3682 -0.7957,-1.152 -0.4275,-1.7573 l 5.8855,-9.6734 c 0.2302,-0.3783 0.6225,-0.5947 1.0322,-0.6138 z m 10.6468,2.6772 c 0.246,-0.0054 0.4965,0.0606 0.72,0.2043 0.596,0.3832 0.7674,1.1712 0.3842,1.7671 L 47.218,80.8632 c -0.3831,0.596 -1.1711,0.7674 -1.7671,0.3842 C 44.855,80.8642 44.6839,80.0759 45.067,79.48 l 7.1342,-11.1467 c 0.2395,-0.3724 0.637,-0.5791 1.0471,-0.5881 z M 34.052,70.1671 c 0.0282,0 0.0565,0 0.0849,0.0014 0.2059,0.0093 0.4126,0.0688 0.6023,0.1829 0.607,0.3654 0.8017,1.1483 0.4363,1.7553 l -1.3792,2.291 c -0.3654,0.607 -1.1483,0.8017 -1.7553,0.4363 -0.607,-0.3654 -0.8013,-1.1483 -0.436,-1.7553 l 1.3789,-2.291 c 0.2355,-0.3912 0.6446,-0.6112 1.0681,-0.6203 z m 22.506,1.7397 v 4e-4 c 0.2161,0.0056 0.4341,0.0665 0.6327,0.1873 0.6053,0.3683 0.7961,1.1518 0.4279,1.757 l -4.5499,7.6584 c -0.3683,0.6053 -1.1521,0.7961 -1.7573,0.4278 -0.6053,-0.3682 -0.7958,-1.1521 -0.4275,-1.7573 l 4.5495,-7.6584 c 0.2302,-0.3783 0.6225,-0.5946 1.0322,-0.6138 0.0308,-0.0018 0.0615,-0.002 0.0924,-0.0014 z m 2.9846,4.5577 c 0.1234,-6e-4 0.3336,0.0181 0.5794,0.1481 0.6263,0.3314 0.864,1.1024 0.5327,1.7286 l -2.0083,3.632 c -0.3313,0.6263 -1.1023,0.8637 -1.7286,0.5324 -0.6262,-0.3314 -0.8636,-1.102 -0.5323,-1.7283 l 2.0079,-3.632 c 0.2136,-0.4036 0.6099,-0.646 1.0322,-0.6784 v -4e-4 c 3e-4,0.0057 0.0431,-0.0016 0.117,-0.002 z"
       fill="#062E32"
       id="path1"
       style="fill:#000000;fill-opacity:1"
       sodipodi:nodetypes="scccccsccccccccsssscccscsccccccsccscccccsscssscscscccccccccccccscccscccccccccsccccccccccccssccccccccscccccccscsccccccccccccccscccccccccccccsccccccsscccccsccccccccccccccccccccsccccccsccccccccccccccccccscccccccsccscccccccccccccccccccccccsccccsccsccccsccsccccccccccccccccccccccccccccccsccccsccsccccccccccscscccccccccccccccccccccccsscccccscccccscccccccccccccccccccccccc"
       transform="translate(12.975016,-1.0529243e-4)" />
    <path
       id="path18"
       style="fill:#000000;fill-opacity:1"
       d="m 90.1026,109.41016 -0.554688,0.53711 c -0.6349,0.61599 -2.779134,1.7478 -4.677734,2.46679 l -1.302735,0.49414 0.939454,0.0723 0.941406,0.0723 0.09375,2.75 c 0.1494,4.34999 0.769631,5.98193 2.582031,6.79493 0.8251,0.369 3.247525,0.23141 4.703125,-0.26758 0.818037,-0.28097 1.283186,-0.49095 1.3125,-0.57227 v -0.002 -0.002 -0.002 -0.002 -0.002 -0.002 l -0.002,-0.002 -0.002,-0.002 -0.002,-0.002 -0.002,-0.002 -0.002,-0.002 c -0.03622,-0.0227 -0.16691,-0.0175 -0.396484,0.0195 -2.1531,0.34999 -3.53165,-2.1917 -3.78125,-6.9707 -0.0997,-1.90901 -0.170747,-1.84406 1.626953,-1.49805 0.8229,0.159 1.506178,0.26814 1.517578,0.24414 0.0115,-0.024 0.169764,-0.2566 0.351563,-0.51563 l 0.330078,-0.47265 -1.849609,0.0391 -1.851563,0.0371 0.01172,-1.60547 z m -11.728516,3.47656 c -0.1348,0 -0.267789,5.8e-4 -0.400391,0.006 -3.977898,0.13 -6.906575,2.27386 -4.609374,3.63086 1.911298,1.129 4.45865,-1.17097 3.09375,-2.79297 -0.476702,-0.567 -0.446369,-0.59006 0.519531,-0.41406 2.3145,0.422 2.576097,1.14386 2.404297,6.63086 l -0.04883,1.51953 -0.632813,0.125 c -1.296,0.257 -2.309731,-0.68211 -2.332031,-2.16211 -0.0158,-1.04 0.257447,-1.30772 2.060547,-2.01172 0.440781,-0.17227 0.656242,-0.26505 0.679687,-0.29883 h 0.002 v -0.002 -0.002 -0.002 l -0.002,-0.002 -0.002,-0.002 h -0.002 c -0.02716,-0.01 -0.136203,0.002 -0.314453,0.0293 -3.2773,0.498 -4.005638,0.64097 -4.648438,0.91797 -2.349199,1.011 -2.075836,3.97414 0.414063,4.49414 0.8928,0.186 2.202387,0.0372 3.367187,-0.38281 1.5352,-0.554 1.583738,-0.55859 1.773438,-0.14258 0.2224,0.488 0.779825,0.57974 2.890625,0.46875 0.4444,-0.023 1.307075,-0.054 2.296875,-0.084 -0.1765,-0.144 -0.312966,-0.27982 -0.384766,-0.38282 -0.4564,-0.468 -0.7732,-1.84204 -0.9375,-4.12304 -0.3107,-4.313 -0.83775,-4.86477 -4.78125,-5.00977 -0.1366,-0.005 -0.27155,-0.007 -0.40625,-0.008 z m 22.580076,0.0215 c -0.1347,0 -0.26779,0.002 -0.40039,0.006 -3.977796,0.131 -6.906573,2.27386 -4.609373,3.63086 1.9113,1.129 4.458753,-1.17097 3.09375,-2.79297 -0.4767,-0.566 -0.446371,-0.59006 0.519534,-0.41406 2.314499,0.422 2.576089,1.14386 2.404289,6.63086 l -0.0469,1.51953 -0.63281,0.125 c -1.295899,0.257 -2.311686,-0.68211 -2.333987,-2.16211 -0.0158,-1.04 0.259398,-1.30967 2.062497,-2.01367 0.41559,-0.16242 0.63298,-0.25315 0.67578,-0.29102 v -0.002 l 0.002,-0.002 h 0.002 v -0.002 l 0.002,-0.002 v -0.002 -0.002 h -0.002 v -0.002 h -0.002 v -0.002 h -0.002 -0.002 c -0.0272,-0.01 -0.13425,0.002 -0.3125,0.0293 -3.277298,0.498 -4.00749,0.64096 -4.65039,0.91796 -2.3491,1.011 -2.075737,3.97415 0.414063,4.49415 0.8928,0.18601 2.202488,0.0352 3.367187,-0.38477 1.5352,-0.554 1.58384,-0.55763 1.77344,-0.14062 0.2225,0.48797 0.77982,0.57875 2.89062,0.46874 0.4444,-0.023 1.30913,-0.054 2.29883,-0.084 -0.1767,-0.144 -0.31512,-0.27981 -0.38672,-0.38281 -0.4564,-0.468 -0.7732,-1.84401 -0.9375,-4.125 -0.3107,-4.31301 -0.83589,-4.86282 -4.7793,-5.00781 -0.1367,-0.005 -0.2735,-0.008 -0.4082,-0.008 z m -67.404295,0.006 c -6.104,-0.058 -10.158115,3.52617 -8.103515,7.70117 1.1135,2.263 4.776765,2.81155 7.072265,1.06055 0.6608,-0.504 0.6609,1.56138 0,4.10938 -0.191,0.736 -0.190453,0.73686 0.185547,0.63086 0.2068,-0.058 1.46121,-0.094 2.78711,-0.082 l 2.410156,0.0234 -0.189453,-0.45703 c -0.6548,-1.581 -0.655706,-9.25022 -0.002,-12.44922 0.083,-0.406 0.07102,-0.41626 -0.392579,-0.32226 -0.262098,0.053 -1.077398,0.0169 -1.8125,-0.0781 -0.6709,-0.088 -1.323578,-0.13072 -1.955078,-0.13672 z m 26.417969,0.17969 c -7.826799,0.003 -10.282012,8.62461 -2.507812,9.64063 1.71,0.22297 3.188678,-0.0559 4.892578,-0.91993 0.977056,-0.49479 1.839843,-1.05055 1.871093,-1.16797 v -0.002 -0.002 -0.002 -0.002 h -0.002 v -0.002 h -0.002 v -0.002 h -0.002 l -0.002,-0.002 c -0.02042,-0.009 -0.07702,-7.3e-4 -0.173828,0.0312 -3.1639,1.047 -5.754534,0.27615 -6.740234,-2.00586 -1.117101,-2.587 0.205662,-6.06895 1.851562,-4.87695 1.7295,1.253 1.175863,4.42339 -0.898438,5.15039 l -0.578124,0.20313 0.939453,0.004 c 6.6458,0.027 8.317315,-5.81306 1.728515,-6.03906 -0.1269,-0.005 -0.252652,-0.006 -0.376953,-0.006 z m -16.568359,0.16602 c -0.0346,0.003 -0.07394,0.0105 -0.119141,0.0195 -0.199,0.039 -1.110291,0.10634 -2.025391,0.15234 -2.149557,0.10619 -2.945231,0.18082 -3.003906,0.30078 l -0.002,0.002 c -4.32e-4,0.001 8.6e-5,0.003 0,0.004 v 0.002 l 0.002,0.002 v 0.002 c 0.0037,0.0299 0.04612,0.0641 0.121094,0.10156 0.9092,0.453 1.242759,1.45833 1.443359,4.36133 0.2219,3.212 0.624045,4.01769 2.214844,4.42969 1.5522,0.401 3.733963,-0.0955 4.851563,-1.10547 0.304772,-0.27472 0.576557,-0.48181 0.632812,-0.48828 h 0.002 0.002 l 0.002,0.002 c 0.0208,0.031 0.167671,0.38325 0.326171,0.78125 0.3489,0.876 0.664935,0.93458 3.427735,0.64258 1.8716,-0.198 1.854283,-0.19061 1.333984,-0.59961 -0.9792,-0.77 -1.507209,-2.79409 -1.599609,-6.12109 -0.04849,-1.74694 -0.108482,-2.37568 -0.226563,-2.40039 -9.85e-4,-1.3e-4 -0.0049,4e-5 -0.0059,0 -0.004,1.6e-4 -0.0095,4.6e-4 -0.01367,0.002 -0.097,0.033 -1.314431,0.10706 -2.707031,0.16406 -1.896506,0.0775 -2.507146,0.0955 -2.56836,0.16797 v 0.002 0.002 l -0.002,0.002 v 0.002 c -1.18e-4,9.6e-4 -3.3e-5,0.005 0,0.006 1.8e-4,10e-4 0.0016,0.006 0.002,0.008 v 0.002 c 0.02246,0.0389 0.139684,0.0919 0.283204,0.16992 0.686399,0.372 1.100278,1.29136 1.267578,2.81836 0.4858,4.434 0.532747,4.04687 -0.501954,4.04687 -2.199699,0 -2.894531,-1.24278 -2.894531,-5.17578 0,-2.061 1.13e-4,-2.31868 -0.242187,-2.30468 z m -12.623047,0.0977 c 1.1894,-0.043 2.477557,2.72014 2.347656,6.36914 l -0.04492,1.23047 L 32.13385,121 c -2.3281,0.10299 -3.648466,-2.80637 -2.697266,-5.94336 0.3528,-1.163 0.837644,-1.68021 1.339844,-1.69922 z" />
    <path
       id="path12"
       style="fill:#000000;fill-opacity:1"
       d="m 4.8300812,92.996094 c -3.3421001,0 -6.078025,0.01851 -6.078125,0.04102 -2e-4,0.0226 0.1642344,0.367071 0.36523435,0.763672 1.274,2.5142 1.2744,10.468994 0,11.958994 l -0.46874995,0.54882 6.0917969,0.0391 6.0937505,0.041 0.02734,-2.21094 c 0.01621,-1.28822 0.0131,-1.81334 -0.03711,-1.88867 l -0.002,-0.002 -0.002,-0.002 -0.002,-0.002 -0.002,-0.002 h -0.002 -0.002 -0.002 -0.002 -0.002 l -0.002,0.002 h -0.002 l -0.002,0.002 c -0.0246,0.0177 -0.05618,0.0937 -0.09766,0.21093 -0.5169,1.463 -1.6320284,2.74232 -2.673829,3.07032 -1.8153,0.573 -2.2259125,0.45257 -2.8828125,-0.85743 -0.7602999,-1.516 -1.2051719,-4.984376 -0.6386719,-4.984376 0.827,0 1.7105125,0.661666 2.1328125,1.597666 l 0.2539063,0.56445 0.9199218,-1.890631 c 0.630293,-1.295041 0.8867944,-1.818221 0.8632814,-1.914063 v -0.002 h -0.00195 l -0.00195,-0.002 v -0.002 -0.002 l -0.00195,-0.002 -0.00195,-0.002 h -0.00195 l -0.00195,-0.002 h -0.00195 -0.00195 -0.00195 -0.00195 c -0.05368,0.0028 -0.1992737,0.133972 -0.416016,0.324219 -0.6855,0.602 -1.4029666,0.809358 -2.8222656,0.81836 l -1.21875,0.0078 0.025391,-1.375 c 0.0279,-1.5138 0.25265,-3.441566 0.46875,-4.009766 0.6051,-1.5916 4.904131,0.30948 5.269531,2.330078 l 0.15625,0.867188 0.392578,-1.894531 c 0.2156,-1.0423 0.392579,-1.950378 0.392578,-2.017578 0,-0.0672 -2.7340714,-0.123047 -6.0761714,-0.123047 z m 53.3886718,0.04687 -0.40039,0.224609 c -0.4551,0.255 -1.833778,0.580844 -3.017578,0.714844 -0.4414,0.05 -1.095372,0.128781 -1.451172,0.175781 l -0.646484,0.08398 0.332031,0.382812 c 1.6476,1.903 1.803881,9.26927 0.238281,11.19727 l -0.382812,0.4707 1.222656,-0.043 c 0.6721,-0.023 1.763681,0.0168 2.425781,0.0898 1.5148,0.165 2.667941,0.19222 3.306641,0.0781 l 0.496093,-0.0879 -0.416015,-0.30664 c -0.9139,-0.676 -1.482194,-2.36618 -1.746094,-5.20117 -0.1809,-1.944004 -0.168697,-1.97452 0.783203,-1.97852 1.934699,-0.008 2.591797,1.29659 2.591797,5.14258 v 2.34179 l 0.501953,0.0898 c 0.6366,0.11401 4.390978,0.0878 4.892578,-0.0332 l 0.376953,-0.0918 -0.384765,-0.24414 c -0.7738,-0.492 -1.329644,-2.0878 -1.714844,-4.92578 -0.2991,-2.203013 -0.5149,-2.897972 -1.0625,-3.417972 -1.3126,-1.247 -4.029772,-1.086828 -5.513672,0.326172 l -0.617187,0.587891 0.0918,-2.78711 z m 46.214847,0.08594 c -0.0978,0.007 -0.2467,0.0756 -0.46289,0.15625 -0.8037,0.299 -2.17181,0.593985 -3.28711,0.708985 -1.452999,0.149 -1.445069,0.144281 -1.072269,0.738281 0.761399,1.214 1.003909,3.224051 1.003909,8.33203 v 3.2793 l 0.70312,0.084 c 0.38631,0.045 0.88282,0.10858 1.10352,0.14258 0.6558,0.1 3.83956,-0.062 4.06836,-0.20703 0.073,-0.0463 0.11616,-0.0789 0.125,-0.0996 l 0.002,-0.002 v -0.002 c 4e-5,-7.1e-4 6e-5,-0.005 0,-0.006 l -0.002,-0.002 -0.002,-0.002 -0.002,-0.002 -0.002,-0.002 -0.002,-0.002 -0.002,-0.002 c -0.0222,-0.0123 -0.0775,-0.0159 -0.16992,-0.0176 -1.2746,-0.023 -2.09156,-2.07996 -2.28516,-5.75195 -0.1175,-2.227006 0.75113,-2.784115 2.39063,-1.537115 1.4616,1.111995 1.7877,5.396765 0.5332,7.009765 -0.18199,0.23394 -0.26086,0.34974 -0.24805,0.38867 l 0.002,0.002 0.002,0.002 v 0.002 l 0.002,0.002 h 0.002 l 0.002,0.002 h 0.002 c 0.0218,0.009 0.0688,-10e-4 0.13867,-0.0234 0.1433,-0.045 0.53142,-0.158 0.86133,-0.25 3.5638,-0.998 5.15321,-5.57152 2.81641,-8.103515 -1.4323,-1.553 -4.45329,-1.49 -6.05859,0.125 -0.15804,0.15859 -0.29943,0.259636 -0.35547,0.259765 h -0.002 v -0.002 h -0.002 -0.002 l -0.002,-0.002 h -0.002 -0.002 l -0.002,-0.002 h -0.002 l -0.002,-0.002 -0.002,-0.002 v -0.002 -0.002 l -0.002,-0.002 -0.002,-0.002 v -0.002 -0.002 -0.002 -0.002 c -0.0434,-0.537 0.0587,-2.129578 0.22461,-3.517578 0.1577,-1.32 0.22506,-1.676688 0.0117,-1.679688 -0.006,-1.3e-4 -0.013,-4.4e-4 -0.0195,0 z M 28.349613,94.375 l -0.4375,0.416016 c -0.5852,0.5537 -2.390422,1.522225 -4.107422,2.203125 l -1.396484,0.552734 0.742187,0.0039 c 1.0164,0.005 1.026463,0.03218 1.101563,2.896485 0.0958,3.65899 0.6222,5.07018 2.1875,5.86718 0.9733,0.495 2.606628,0.4368 4.361328,-0.1582 0.773925,-0.26244 1.160708,-0.40997 1.21289,-0.48828 l 0.002,-0.002 v -0.002 c 7.37e-4,-0.002 0.0016,-0.005 0.002,-0.006 v -0.002 c 9.8e-5,-0.003 1.4e-4,-0.006 0,-0.008 v -0.002 -0.002 h -0.002 c -8.67e-4,-0.001 -0.0017,-0.003 -0.002,-0.004 -6.61e-4,-8.6e-4 -0.0031,-0.005 -0.0039,-0.006 -0.04521,-0.0398 -0.253715,-0.0508 -0.603516,-0.0508 -1.3225,0 -2.181315,-0.94871 -2.728515,-3.01171 -0.2682,-1.011 -0.601997,-4.434909 -0.466797,-4.78711 0.0015,-0.0038 0.0066,-0.01024 0.0098,-0.01367 0.154032,-0.136542 1.725334,0.04158 2.517578,0.292969 0.1347,0.0427 0.387587,-0.105681 0.617187,-0.363281 l 0.386719,-0.435547 h -1.753906 -1.753906 l 0.05859,-1.445313 z m 66.701172,1.402344 c -1.1052,-0.004 -2.288865,0.494359 -3.322266,1.568359 -0.4017,0.417 -0.605091,0.547063 -0.65039,0.414063 -0.685401,-2.027 -4.552897,-2.425828 -6.529297,-0.673828 -0.36659,0.324489 -0.542698,0.486272 -0.615235,0.445312 -0.06625,-0.0451 -0.04261,-0.277089 -0.0078,-0.730469 l 0.06055,-0.791015 -0.539063,0.28125 c -0.569999,0.298 -2.149021,0.635015 -3.707031,0.791015 -0.515,0.051 -1.107706,0.129875 -1.316406,0.171875 l -0.378907,0.07813 0.458985,0.337891 c 1.0663,0.784 2.979387,5.424813 0.304687,8.632813 l 3.302735,-0.0762 c 2.2069,-0.052 3.962237,-0.0231 3.898437,-0.0801 -0.0638,-0.058 -0.342141,-0.2839 -0.61914,-0.5039 -1.853899,-1.468 -2.351441,-7.4707 -0.619141,-7.4707 2.0912,0 2.668312,1.108176 2.757812,5.28516 l 0.06055,2.75391 2.857422,0.043 2.859375,0.041 -0.515625,-0.55664 c -0.602199,-0.651 -0.774926,-1.21003 -0.953125,-3.08203 -0.123001,-1.29 -0.348681,-3.475062 -0.425781,-4.123052 -0.0306,-0.256 0.05416,-0.294984 0.755859,-0.333984 2.1555,-0.12 2.91596,1.374988 2.88086,5.667976 l -0.01953,2.33397 0.582032,0.0879 c 0.8261,0.123 3.225309,0.56639 4.912108,-0.004 -1.960096,-1.402 -1.201709,-4.3617 -1.632809,-6.638671 -0.370601,-2.462 -1.997746,-3.86314 -3.839846,-3.86914 z m -77.337891,0.783203 c -1.9582,0.0352 -4.048319,0.60809 -4.949219,1.746094 -1.7681,2.231989 -0.950903,3.485389 3.279297,5.025389 2.2241,0.809 2.863335,1.21552 3.115235,1.97852 0.136973,0.41513 0.02221,0.67812 -0.267578,0.80273 1.825535,-0.52253 3.23375,-1.48034 3.578124,-2.7207 0.437001,-1.574 -0.275021,-2.1271 -4.169921,-3.2461 -3.4207,-0.982984 -4.097913,-1.464682 -3.632813,-2.587886 0.393,-0.9488 3.336696,-0.55775 3.529297,0.46875 0.2471,1.317804 0.321128,1.479781 0.798828,1.800781 1.2328,0.828995 2.911272,0.06234 2.951172,-1.347656 0.0371,-1.307704 -2.013122,-1.959722 -4.232422,-1.919922 z m 102.613276,0.181641 c -0.8258,0.01 -1.72895,0.35389 -2.50195,1.08789 -0.6089,0.578 -0.65371,0.555219 -0.59961,-0.300781 0.0453,-0.717 0.0379,-0.731391 -0.28906,-0.650391 -0.4958,0.122 -3.14778,0.504657 -4.15039,0.597656 l -0.87305,0.07813 0.55664,0.630859 c 1.4265,1.61 1.38794,6.192009 -0.0644,7.666009 -0.2303,0.234 -0.41797,0.48555 -0.41797,0.56055 v 0.002 0.002 0.002 l 0.002,0.002 0.002,0.002 0.002,0.002 c 0.001,0.002 0.005,0.004 0.006,0.006 v 0.002 c 0.0763,0.063 0.52202,0.0734 1.1582,0.0234 0.64381,-0.051 2.3297,-0.13264 3.7461,-0.18164 l 2.57617,-0.0898 -0.50196,-0.35351 c -1.7206,-1.21 -2.75214,-6.801883 -1.36914,-7.421873 0.6087,-0.273 0.88724,0.06501 0.96094,1.166016 0.2117,3.165987 4.29883,2.818737 4.29883,-0.365235 0,-1.576 -1.16472,-2.483797 -2.54102,-2.466796 z m -82.132807,0.05859 c -0.1347,0 -0.269745,0.0038 -0.402344,0.0078 -3.9779,0.1306 -6.904622,2.271913 -4.607422,3.628902 1.9113,1.129 4.45875,-1.170961 3.09375,-2.792965 -0.4767,-0.566501 -0.448323,-0.590162 0.517578,-0.414062 2.314599,0.4218 2.578049,1.14387 2.40625,6.630857 l -0.04883,1.51953 -0.632812,0.12695 c -1.296,0.257 -2.311584,-0.68406 -2.333985,-2.16406 -0.0157,-1.041 0.2594,-1.30772 2.0625,-2.01172 0.440782,-0.17227 0.656335,-0.26292 0.679688,-0.29687 l 0.002,-0.002 v -0.002 -0.002 -0.002 h -0.002 v -0.002 h -0.002 l -0.002,-0.002 h -0.002 c -0.02721,-0.0102 -0.134288,0.002 -0.3125,0.0293 -3.2773,0.498 -4.005638,0.64197 -4.648438,0.91797 -2.3492,1.012 -2.07779,3.97514 0.412109,4.49414 0.8927,0.187 2.204441,0.0372 3.369141,-0.38281 1.5353,-0.554 1.583838,-0.55762 1.773438,-0.14062 0.2224,0.488 0.779924,0.57779 2.890624,0.46679 0.4445,-0.023 1.307076,-0.053 2.296876,-0.084 -0.1763,-0.14301 -0.312666,-0.27886 -0.384766,-0.38086 -0.4564,-0.468 -0.7732,-1.845 -0.9375,-4.125 -0.3107,-4.312795 -0.83785,-4.863409 -4.78125,-5.007809 -0.1367,-0.005 -0.27155,-0.0098 -0.40625,-0.0098 z m 34.515625,0.02148 c -0.1246,0 -0.248491,0.0019 -0.371094,0.0059 -1.1333,0.04 -2.173665,0.273281 -3.009765,0.613281 -0.978399,0.45 -1.697172,1.045963 -1.951172,1.626953 -0.1466,0.484 0.04752,0.973618 0.699218,1.390618 1.7671,1.12899 4.123331,-1.170971 2.861328,-2.792961 -0.440701,-0.567 -0.414487,-0.590063 0.478516,-0.414063 2.942704,0.507 2.27651,4.263854 2.22461,6.630854 l -0.04492,1.51953 -0.585938,0.125 c -1.198103,0.257 -2.135649,-0.68211 -2.15625,-2.16211 -0.0146,-1.04 0.239148,-1.30771 1.90625,-2.01171 0.384245,-0.16241 0.585394,-0.25498 0.625,-0.29297 l 0.002,-0.002 v -0.002 h 0.002 v -0.002 -0.002 h 0.002 v -0.002 l -0.002,-0.002 v -0.002 h -0.002 v -0.002 h -0.002 -0.002 l -0.002,-0.002 c -0.02882,-0.008 -0.127486,0.005 -0.28711,0.0312 -1.243504,0.204 -2.076293,0.34584 -2.683593,0.46484 -1.2531,0.366 -2.202138,0.88661 -2.773438,1.47461 -0.7683,1.287 -0.201084,3.07771 1.541016,3.47071 0.8254,0.18698 2.036481,0.0391 3.113281,-0.38086 0.748003,-0.292 1.113559,-0.43054 1.31836,-0.43555 l 0.03906,-0.0176 0.01367,0.0176 c 0.1426,0.016 0.195131,0.11697 0.269531,0.29297 0.205699,0.489 0.720375,0.57875 2.671875,0.46875 0.4109,-0.024 1.209901,-0.054 2.125,-0.084 -0.1631,-0.144 -0.290822,-0.27981 -0.357422,-0.38281 -0.422,-0.468 -0.713334,-1.845 -0.865234,-4.125 -0.1794,-2.693986 -0.438041,-3.92009 -1.494141,-4.49609 h -0.002 l -0.002,-0.002 h -0.002 l -0.002,-0.002 c -0.6347,-0.343 -1.554267,-0.453813 -2.917969,-0.507813 -0.1263,-0.005 -0.252353,-0.0078 -0.376953,-0.0078 z m 56.867182,0.08398 c -6.9588,-0.018 -9.3709,7.874252 -2.875,9.406252 2.0637,0.487 4.78704,-0.25634 6.51954,-1.77734 0.12969,-0.11391 0.21552,-0.19133 0.23242,-0.22657 v -0.002 h 0.002 v -0.002 -0.002 -0.002 -0.002 -0.002 h -0.002 v -0.002 l -0.002,-0.002 -0.002,-0.002 h -0.002 -0.002 c -0.0462,-0.0143 -0.26268,0.0587 -0.72461,0.21484 -3.3463,1.134 -5.96228,-0.68953 -5.94727,-4.14453 0.0125,-2.900004 1.62725,-4.163738 2.62305,-2.052738 0.7741,1.641 0.22117,3.468068 -1.29883,4.289068 -0.20612,0.11115 -0.32701,0.19127 -0.33789,0.23828 -2.7e-4,0.002 -2.7e-4,0.008 0,0.01 v 0.002 l 0.002,0.002 v 0.002 0.002 l 0.002,0.002 v 0.002 h 0.002 c 0.0637,0.0677 0.55486,0.0231 1.65234,-0.11328 5.6452,-0.699 5.784,-5.821892 0.1582,-5.837892 z m -117.240229,6.095702 -0.002,0.002 h -0.002 c -0.103643,0.0178 -0.150868,0.25343 -0.257813,0.94531 -0.0898,0.581 -0.194569,1.23798 -0.230469,1.45898 -0.0776,0.477 0.118085,0.59258 1.521485,0.89258 1.846613,0.39596 3.762847,0.29498 5.375,-0.13867 -0.875438,0.20669 -2.809448,-0.4686 -4.529297,-1.78516 -0.7946,-0.609 -1.563484,-1.19287 -1.708984,-1.29687 -0.06849,-0.0487 -0.11995,-0.0806 -0.16211,-0.0781 h -0.002 z" />
  </g>
</svg>
