<?xml version="1.0" encoding="UTF-8" standalone="no"?>
<!-- Created with Inkscape (http://www.inkscape.org/) -->

<svg
   width="28.157408mm"
   height="23.165424mm"
   viewBox="0 0 28.157408 23.165424"
   version="1.1"
   id="svg1"
   inkscape:version="1.4.2 (f4327f4, 2025-05-13)"
   sodipodi:docname="EHQALogoCropped2.svg"
   xmlns:inkscape="http://www.inkscape.org/namespaces/inkscape"
   xmlns:sodipodi="http://sodipodi.sourceforge.net/DTD/sodipodi-0.dtd"
   xmlns="http://www.w3.org/2000/svg"
   xmlns:svg="http://www.w3.org/2000/svg">
  <sodipodi:namedview
     id="namedview1"
     pagecolor="#7ec64d"
     bordercolor="#000000"
     borderopacity="0.25"
     inkscape:showpageshadow="2"
     inkscape:pageopacity="0.0"
     inkscape:pagecheckerboard="0"
     inkscape:deskcolor="#d1d1d1"
     inkscape:document-units="mm"
     inkscape:zoom="5.5090348"
     inkscape:cx="12.2526"
     inkscape:cy="66.7086"
     inkscape:window-width="1920"
     inkscape:window-height="991"
     inkscape:window-x="-9"
     inkscape:window-y="-9"
     inkscape:window-maximized="1"
     inkscape:current-layer="layer1" />
  <defs
     id="defs1" />
  <g
     inkscape:label="Capa 1"
     inkscape:groupmode="layer"
     id="layer1"
     transform="translate(-133.08541,-123.56043)">
    <path
       id="path4"
       style="fill:#ffffff;stroke-width:0.251187"
       d="m 134.54449,123.56048 c -0.20189,0.002 -0.40166,0.067 -0.60307,0.21342 -0.16743,0.12174 -0.3356,0.30002 -0.48265,0.50075 l -5.2e-4,5.2e-4 c -0.13607,0.20831 -0.24372,0.42879 -0.29869,0.62838 -0.13223,0.48014 0.0393,0.83975 0.37982,1.15859 0.3405,0.31883 0.85001,0.59689 1.25884,0.80408 0.40883,0.2072 0.71716,0.3435 1.07229,0.55036 0.35509,0.20685 0.7569,0.48426 1.13946,0.68471 0.38259,0.20045 0.74606,0.32403 1.10949,0.44752 0.12669,0.016 0.25301,0.0312 0.38086,-0.0212 l 1.07952,0.68471 a 10.154099,10.153998 0 0 0 -0.30799,0.39274 c -0.10763,0.13395 -0.21696,0.26643 -0.31729,0.40515 a 10.154099,10.153998 0 0 0 -0.3111,0.46457 c -0.0996,0.15497 -0.19447,0.31203 -0.28525,0.4718 a 10.154099,10.153998 0 0 0 -0.24908,0.45631 c -0.11299,0.22494 -0.21316,0.45536 -0.30903,0.68781 a 10.154099,10.153998 0 0 0 -0.18655,0.48421 c -0.0916,0.25879 -0.17457,0.5203 -0.24494,0.786 a 10.154099,10.153998 0 0 0 -0.0946,0.40514 c -0.0525,0.23705 -0.0958,0.47577 -0.13126,0.71675 a 10.154099,10.153998 0 0 0 -0.0522,0.37775 c -0.0391,0.3594 -0.0652,0.72114 -0.0656,1.08573 a 10.154099,10.153998 0 0 0 0,0.001 10.154099,10.153998 0 0 1 0,5.1e-4 10.154099,10.153998 0 0 0 0.25631,2.26705 c -0.5668,0.34768 -1.11904,0.68469 -1.57768,0.95084 -0.60529,0.35129 -1.05904,0.58805 -1.39888,0.75241 -0.33984,0.16436 -0.56558,0.25612 -0.75448,0.39119 -0.18889,0.13507 -0.34088,0.31385 -0.41186,0.47543 -0.071,0.16158 -0.0612,0.3047 -0.0253,0.41651 0.0359,0.11181 0.0976,0.19008 0.16433,0.2589 0.0667,0.0688 0.13824,0.12814 0.24185,0.17932 0.1036,0.0512 0.23923,0.0937 0.38964,0.10852 0.15042,0.0148 0.31564,0.002 0.48421,-0.0315 0.16857,-0.0332 0.34039,-0.0862 0.49351,-0.1695 0.15311,-0.0833 0.28742,-0.19676 0.3762,-0.28732 0.0888,-0.0906 0.13198,-0.15774 0.17518,-0.22531 -0.12919,-0.0283 -0.25804,-0.0567 -0.36948,-0.0956 -0.11145,-0.0389 -0.20551,-0.0886 -0.28267,-0.1354 -0.0772,-0.0468 -0.13779,-0.0906 -0.1571,-0.13797 -0.0193,-0.0474 0.003,-0.0984 0.0832,-0.15296 0.0804,-0.0546 0.21955,-0.11294 0.36277,-0.1571 0.14322,-0.0441 0.29045,-0.0739 0.44855,-0.10542 0.1581,-0.0315 0.32682,-0.0646 0.81649,-0.28215 0.31552,-0.14022 0.77816,-0.36498 1.27486,-0.60927 a 10.154099,10.153998 0 0 0 5.39502,5.84771 c -0.14925,0.19046 -0.31052,0.39646 -0.35657,0.4501 -1.57583,1.8351 -4.59496,-2.15242 -5.8906,-2.12649 -0.42434,0.008 -0.70874,0.25956 -0.82992,0.67025 -0.0453,0.0876 -0.0957,0.11694 -0.14935,0.1049 -0.0536,-0.012 -0.11034,-0.0656 -0.1726,-0.13487 -0.0623,-0.0693 -0.12979,-0.1545 -0.18913,-0.2589 -0.0593,-0.10441 -0.11038,-0.22839 -0.16123,-0.35192 -0.0651,0.0528 -0.1301,0.10594 -0.21239,0.20722 -0.0823,0.10128 -0.18178,0.25116 -0.24598,0.41496 -0.0642,0.16381 -0.093,0.34152 -0.10129,0.51315 -0.008,0.17164 0.004,0.33716 0.0439,0.48369 0.0399,0.14655 0.10761,0.27415 0.1788,0.36897 0.0712,0.0948 0.14589,0.15667 0.22996,0.21239 0.16442,0.10893 0.50127,0.27347 0.78806,0.0377 0.11504,-0.0946 0.28063,-0.27164 0.39429,-0.47852 0.1137,-0.20691 0.17543,-0.44408 0.29611,-0.8046 0.22416,-1.04397 3.35717,2.31592 4.9475,2.20916 0.22319,-0.015 1.08715,0.14901 2.01848,-1.27434 a 10.154099,10.153998 0 0 0 1.76217,0.46922 10.154099,10.153998 0 0 0 0.84388,0.12403 c 0.31828,0.034 0.63804,0.0551 0.95911,0.0589 0.005,6e-5 0.0107,4.6e-4 0.016,5.1e-4 0.007,-5e-5 0.0146,-4.4e-4 0.0217,-5.1e-4 0.33175,-0.003 0.66183,-0.026 0.99064,-0.0615 a 10.154099,10.153998 0 0 0 0.6873,-0.0992 c 0.0713,-0.0127 0.14242,-0.0251 0.21342,-0.0393 a 10.154099,10.153998 0 0 0 1.66811,-0.45217 c 0.9313,1.42312 1.79532,1.25937 2.01848,1.27434 1.59036,0.10676 4.72335,-3.25313 4.94751,-2.20917 0.12067,0.36052 0.18241,0.59773 0.2961,0.8046 0.11369,0.20691 0.27925,0.38397 0.39429,0.47853 0.28681,0.23574 0.62366,0.0712 0.78807,-0.0377 0.0841,-0.0557 0.15876,-0.11756 0.22996,-0.21239 0.0712,-0.0948 0.13911,-0.22244 0.1788,-0.36897 0.04,-0.14655 0.0521,-0.31206 0.0439,-0.48369 -0.008,-0.17164 -0.037,-0.34935 -0.10129,-0.51315 -0.0641,-0.1638 -0.16369,-0.31368 -0.24598,-0.41496 -0.0823,-0.10128 -0.1473,-0.15444 -0.21239,-0.20722 -0.0508,0.12353 -0.10188,0.24751 -0.16123,0.35191 -0.0593,0.10441 -0.12688,0.18955 -0.18913,0.2589 -0.0623,0.0693 -0.11902,0.12287 -0.1726,0.13488 -0.0536,0.012 -0.10405,-0.0173 -0.14935,-0.10491 -0.12118,-0.41068 -0.40558,-0.66175 -0.82992,-0.67024 -1.29564,-0.026 -4.31479,3.96156 -5.8906,2.12649 -0.0459,-0.0534 -0.20872,-0.26147 -0.35656,-0.45011 a 10.154099,10.153998 0 0 0 1.66553,-0.97616 c 0.0596,-0.0418 0.11854,-0.0841 0.17725,-0.12713 a 10.154099,10.153998 0 0 0 0.68161,-0.54157 c 0.0551,-0.0482 0.1056,-0.10149 0.15968,-0.15089 a 10.154099,10.153998 0 0 0 0.98909,-1.04852 c 0.10831,-0.13166 0.21899,-0.26116 0.32039,-0.39791 a 10.154099,10.153998 0 0 0 0.33693,-0.49454 c 0.12235,-0.18712 0.23753,-0.37778 0.34727,-0.57257 a 10.154099,10.153998 0 0 0 0.24184,-0.44494 c 0.1755,-0.35144 0.33668,-0.71062 0.47077,-1.08159 0.48542,0.2386 0.94058,0.45986 1.25006,0.59738 0.48966,0.2176 0.6584,0.25067 0.81648,0.28216 0.15812,0.0315 0.30534,0.0613 0.44856,0.10542 0.14322,0.0442 0.28225,0.10251 0.36276,0.15709 0.0804,0.0546 0.102,0.1056 0.0827,0.15297 -0.0193,0.0474 -0.0793,0.0912 -0.15658,0.13797 -0.0771,0.0468 -0.17125,0.0965 -0.28267,0.13539 -0.11146,0.0389 -0.24029,0.0674 -0.36948,0.0956 0.0432,0.0676 0.0864,0.13475 0.17518,0.22531 0.0888,0.0906 0.22309,0.20403 0.37621,0.28732 0.15308,0.0833 0.3247,0.13638 0.49351,0.1695 0.16854,0.0332 0.33392,0.0463 0.4842,0.0315 0.15055,-0.0148 0.28619,-0.0574 0.38964,-0.10852 0.10372,-0.0512 0.17517,-0.11047 0.24185,-0.17931 0.0667,-0.0688 0.12835,-0.14709 0.16433,-0.2589 0.036,-0.11182 0.0456,-0.25493 -0.0253,-0.41652 -0.0709,-0.16158 -0.22295,-0.34035 -0.41186,-0.47542 -0.18891,-0.1351 -0.41449,-0.22683 -0.75448,-0.39119 -0.33972,-0.16436 -0.79359,-0.40112 -1.39888,-0.75241 -0.45116,-0.2618 -0.99494,-0.5933 -1.55184,-0.93483 a 10.154099,10.153998 0 0 0 0.25993,-2.28358 c -1e-4,-0.37156 -0.0269,-0.7397 -0.0672,-1.10587 a 10.154099,10.153998 0 0 0 -0.0455,-0.33073 c -0.0376,-0.26204 -0.0854,-0.52135 -0.14314,-0.77877 a 10.154099,10.153998 0 0 0 -0.0816,-0.35342 c -0.0868,-0.33112 -0.18689,-0.65852 -0.30644,-0.97876 a 10.154099,10.153998 0 0 0 -0.046,-0.1204 c -0.12282,-0.31666 -0.26444,-0.62546 -0.41858,-0.92863 a 10.154099,10.153998 0 0 0 -0.18242,-0.33538 c -0.12236,-0.2198 -0.25287,-0.43466 -0.3917,-0.64544 a 10.154099,10.153998 0 0 0 -0.21033,-0.31419 c -0.18654,-0.26146 -0.38475,-0.51531 -0.59686,-0.75964 a 10.154099,10.153998 0 0 0 -0.076,-0.0961 l 1.0604,-0.67231 c 0.12787,0.0524 0.25466,0.0372 0.38137,0.0212 0.36343,-0.12346 0.72693,-0.24707 1.1095,-0.44752 0.38256,-0.20045 0.78436,-0.47786 1.13946,-0.68471 0.35513,-0.20686 0.66345,-0.34314 1.07229,-0.55036 0.4088,-0.20719 0.9178,-0.48525 1.25832,-0.80408 0.34052,-0.31885 0.51263,-0.67844 0.38034,-1.15859 -0.055,-0.19959 -0.16321,-0.42007 -0.29921,-0.62839 v -5.1e-4 c -0.14711,-0.20072 -0.31518,-0.37901 -0.48266,-0.50075 -0.20135,-0.14643 -0.40119,-0.21118 -0.60307,-0.21342 -0.20187,-0.002 -0.40579,0.058 -0.61494,0.16123 -0.41834,0.20639 -0.85787,0.58486 -1.1958,0.89452 -0.33792,0.30966 -0.5743,0.55026 -0.89297,0.80977 -0.31866,0.2595 -0.71997,0.53781 -1.04231,0.82527 -0.32237,0.28745 -0.5657,0.58389 -0.80925,0.88057 -0.0646,0.12237 -0.12746,0.24554 -0.11111,0.39997 l -1.24385,0.78083 a 10.154099,10.153998 0 0 0 -0.14934,-0.11627 c -0.22219,-0.18772 -0.45089,-0.36584 -0.68678,-0.53278 a 10.154099,10.153998 0 0 0 -0.33797,-0.22428 c -0.19905,-0.12924 -0.40178,-0.25071 -0.60874,-0.36535 a 10.154099,10.153998 0 0 0 -0.34365,-0.18603 c -0.28515,-0.14391 -0.57579,-0.27596 -0.87282,-0.39223 a 10.154099,10.153998 0 0 0 -0.1881,-0.0718 c -0.3043,-0.1122 -0.61408,-0.20724 -0.92811,-0.2899 a 10.154099,10.153998 0 0 0 -0.35295,-0.0827 c -0.25042,-0.0564 -0.50276,-0.10316 -0.75758,-0.14056 a 10.154099,10.153998 0 0 0 -0.33589,-0.0475 c -0.35833,-0.0404 -0.71906,-0.0678 -1.08262,-0.0698 a 10.154099,10.153998 0 0 0 -0.0501,0 10.154099,10.153998 0 0 0 -0.0258,0 c -0.36458,10e-4 -0.72638,0.0278 -1.08573,0.0677 a 10.154099,10.153998 0 0 0 -0.34933,0.0491 c -0.24835,0.0363 -0.49427,0.0815 -0.73845,0.13591 a 10.154099,10.153998 0 0 0 -0.38189,0.0889 c -0.29725,0.0784 -0.59046,0.16949 -0.87901,0.2744 a 10.154099,10.153998 0 0 0 -0.28164,0.10749 c -0.27448,0.10913 -0.54397,0.22995 -0.80822,0.36277 a 10.154099,10.153998 0 0 0 -0.39739,0.21549 c -0.18527,0.10369 -0.36682,0.21322 -0.54571,0.32866 a 10.154099,10.153998 0 0 0 -0.3948,0.26252 c -0.18677,0.13328 -0.3665,0.27735 -0.54467,0.42374 a 10.154099,10.153998 0 0 0 -0.2744,0.21343 l -1.26091,-0.79169 c 0.0164,-0.15446 -0.0465,-0.27758 -0.1111,-0.39997 -0.24355,-0.29668 -0.48743,-0.59312 -0.80977,-0.88057 -0.32235,-0.28746 -0.72314,-0.56577 -1.0418,-0.82527 -0.31866,-0.25951 -0.55504,-0.50012 -0.89297,-0.80977 -0.33793,-0.30966 -0.77745,-0.68813 -1.19579,-0.89452 -0.20917,-0.1032 -0.41307,-0.16347 -0.61495,-0.16123 z m 0.56792,1.37201 c 0.0824,0.004 0.16207,0.0309 0.22945,0.0785 0.19416,0.13736 0.24021,0.40581 0.10283,0.59996 -0.13738,0.19415 -0.40633,0.24021 -0.60048,0.10284 -0.19416,-0.13737 -0.24021,-0.40581 -0.10283,-0.59997 0.0847,-0.11964 0.2246,-0.18793 0.37103,-0.18138 z m 24.10344,0 c 0.14645,-0.007 0.28629,0.0617 0.37104,0.18138 0.13732,0.19416 0.0908,0.4626 -0.10335,0.59997 -0.19413,0.13738 -0.4626,0.0913 -0.59997,-0.10284 -0.1374,-0.19415 -0.0913,-0.4626 0.10284,-0.59996 0.0674,-0.0477 0.147,-0.0748 0.22944,-0.0785 z m -21.68963,1.69602 c 0.0825,0.004 0.16208,0.0309 0.22944,0.0785 0.19418,0.1374 0.24021,0.4063 0.10284,0.60048 -0.13737,0.1942 -0.40633,0.24029 -0.60048,0.10283 -0.19415,-0.13737 -0.24021,-0.40632 -0.10284,-0.60048 0.0847,-0.11964 0.22462,-0.18792 0.37104,-0.18138 z m 19.27582,0 c 0.14643,-0.007 0.28638,0.0617 0.37104,0.18138 0.13737,0.19416 0.0913,0.46311 -0.10283,0.60048 -0.19416,0.13746 -0.46311,0.0914 -0.60049,-0.10283 -0.13737,-0.19418 -0.0913,-0.46308 0.10284,-0.60048 0.0674,-0.0477 0.14697,-0.0748 0.22944,-0.0785 z m -12.49949,0.6258 h 5.75262 c 0.23609,0 0.42633,0.19024 0.42633,0.42633 0,0.23609 -0.19024,0.42633 -0.42633,0.42633 h -5.75262 c -0.23609,0 -0.42633,-0.19024 -0.42633,-0.42633 0,-0.23609 0.19024,-0.42633 0.42633,-0.42633 z m -2.43758,1.8371 h 10.62778 c 0.24141,0 0.43563,0.19016 0.43563,0.42633 0,0.23617 -0.19422,0.42633 -0.43563,0.42633 h -10.62778 c -0.24141,0 -0.43563,-0.19016 -0.43563,-0.42633 0,-0.23617 0.19422,-0.42633 0.43563,-0.42633 z m -1.55546,1.8371 h 13.7387 c 0.24141,0 0.43615,0.19016 0.43615,0.42633 0,0.23617 -0.19474,0.42633 -0.43615,0.42633 h -13.7387 c -0.24142,0 -0.43615,-0.19016 -0.43615,-0.42633 0,-0.23617 0.19473,-0.42633 0.43615,-0.42633 z m -0.9648,1.83709 h 15.6683 c 0.24141,0 0.43563,0.19016 0.43563,0.42633 0,0.23617 -0.19422,0.42633 -0.43563,0.42633 h -15.6683 c -0.24141,0 -0.43563,-0.19016 -0.43563,-0.42633 0,-0.23617 0.19422,-0.42633 0.43563,-0.42633 z m -0.46612,1.8371 h 16.60054 c 0.24141,0 0.43615,0.19016 0.43615,0.42633 0,0.23617 -0.19474,0.42633 -0.43615,0.42633 h -16.60054 c -0.24141,0 -0.43615,-0.19016 -0.43615,-0.42633 0,-0.23617 0.19474,-0.42633 0.43615,-0.42633 z m 0,1.8371 h 16.60054 c 0.24141,0 0.43615,0.18964 0.43615,0.42581 0,0.23617 -0.19474,0.42633 -0.43615,0.42633 h -16.60054 c -0.24141,0 -0.43615,-0.19016 -0.43615,-0.42633 0,-0.23617 0.19474,-0.42581 0.43615,-0.42581 z m 0.46612,1.83658 h 15.6683 c 0.24141,0 0.43563,0.19016 0.43563,0.42633 0,0.23617 -0.19422,0.42633 -0.43563,0.42633 h -15.6683 c -0.24141,0 -0.43563,-0.19016 -0.43563,-0.42633 0,-0.23617 0.19422,-0.42633 0.43563,-0.42633 z m 0.9648,1.83761 h 13.7387 c 0.24141,0 0.43615,0.19016 0.43615,0.42633 0,0.23617 -0.19474,0.42582 -0.43615,0.42582 h -13.7387 c -0.24141,0 -0.43615,-0.18965 -0.43615,-0.42582 0,-0.23617 0.19474,-0.42633 0.43615,-0.42633 z m 1.55546,1.83658 h 10.62778 c 0.24141,0 0.43563,0.19016 0.43563,0.42633 0,0.23617 -0.19422,0.42633 -0.43563,0.42633 h -10.62778 c -0.24141,0 -0.43563,-0.19016 -0.43563,-0.42633 0,-0.23617 0.19422,-0.42633 0.43563,-0.42633 z m 2.43758,1.8371 h 5.75262 c 0.23609,0 0.42633,0.19024 0.42633,0.42633 0,0.23609 -0.19024,0.42633 -0.42633,0.42633 h -5.75262 c -0.23609,0 -0.42633,-0.19024 -0.42633,-0.42633 0,-0.23609 0.19024,-0.42633 0.42633,-0.42633 z" />
  </g>
</svg>
