<?xml version="1.0" encoding="UTF-8" standalone="no"?>
<!-- Created with Inkscape (http://www.inkscape.org/) -->

<svg
   width="512mm"
   height="512mm"
   viewBox="0 0 512 512"
   version="1.1"
   id="svg1"
   xml:space="preserve"
   inkscape:version="1.4.2 (f4327f4, 2025-05-13)"
   sodipodi:docname="youtubeIcon.svg"
   xmlns:inkscape="http://www.inkscape.org/namespaces/inkscape"
   xmlns:sodipodi="http://sodipodi.sourceforge.net/DTD/sodipodi-0.dtd"
   xmlns="http://www.w3.org/2000/svg"
   xmlns:svg="http://www.w3.org/2000/svg"><sodipodi:namedview
     id="namedview1"
     pagecolor="#ffffff"
     bordercolor="#000000"
     borderopacity="0.25"
     inkscape:showpageshadow="2"
     inkscape:pageopacity="0.0"
     inkscape:pagecheckerboard="0"
     inkscape:deskcolor="#d1d1d1"
     inkscape:document-units="mm"
     inkscape:zoom="0.17215734"
     inkscape:cx="-836.44416"
     inkscape:cy="1257.5706"
     inkscape:window-width="1920"
     inkscape:window-height="991"
     inkscape:window-x="-9"
     inkscape:window-y="-9"
     inkscape:window-maximized="1"
     inkscape:current-layer="layer1" /><defs
     id="defs1" /><g
     inkscape:label="Capa 1"
     inkscape:groupmode="layer"
     id="layer1"><path
       style="fill:#16464b;fill-opacity:1;stroke-width:3.87223"
       d="M 228.33766,435.64746 C 193.30206,435.18933 121.43673,433.193 102.83298,432.16109 59.188167,429.74017 42.318287,425.02871 27.608414,411.15219 19.557696,403.55754 14.826643,395.42066 10.162075,381.14661 2.8489401,358.76755 0.74492436,334.87484 0.13431217,267.27443 -0.33364702,215.46722 0.33644265,195.00952 3.49599,164.62629 5.1262383,148.94964 5.9598523,144.5971 9.7376789,132.03674 18.782205,101.96565 37.861309,85.72915 68.650081,81.901604 121.06751,75.385296 321.61321,74.183782 417.36306,79.812419 c 32.68915,1.921594 44.7992,4.551963 56.8669,12.351682 20.13734,13.015389 30.32801,34.526749 34.2584,72.315709 3.17597,30.53537 3.84567,50.92092 3.37713,102.79462 -0.61061,67.60041 -2.71463,91.49312 -10.02776,113.87218 -4.7314,14.47866 -9.35702,22.35668 -17.88073,30.45336 -12.01441,11.41255 -24.22522,16.45056 -44.90689,18.52789 -32.82676,3.29728 -148.64554,6.33114 -210.71245,5.5196 z m 45.0792,-147.64285 c 35.21814,-18.86222 64.17256,-34.41759 64.34313,-34.56749 0.17038,-0.14985 -25.87804,-13.76284 -57.88583,-30.25092 -32.00775,-16.48807 -62.64481,-32.44639 -68.08231,-35.46294 -5.43751,-3.01658 -10.16314,-5.48467 -10.50142,-5.48467 -0.33843,0 -0.61503,32.51254 -0.61503,72.25004 v 72.25003 l 4.35425,-2.21956 c 2.39482,-1.22076 33.16907,-17.65227 68.38721,-36.51449 z"
       id="path1" /></g></svg>
