<?xml version="1.0" encoding="UTF-8" standalone="no"?>
<svg
   height="48px"
   viewBox="0 -960 960 960"
   width="48px"
   fill="#ffffff"
   version="1.1"
   id="svg1"
   sodipodi:docname="boxIcon.svg"
   inkscape:version="1.4.2 (f4327f4, 2025-05-13)"
   xmlns:inkscape="http://www.inkscape.org/namespaces/inkscape"
   xmlns:sodipodi="http://sodipodi.sourceforge.net/DTD/sodipodi-0.dtd"
   xmlns="http://www.w3.org/2000/svg"
   xmlns:svg="http://www.w3.org/2000/svg">
  <defs
     id="defs1" />
  <sodipodi:namedview
     id="namedview1"
     pagecolor="#ffffff"
     bordercolor="#000000"
     borderopacity="0.25"
     inkscape:showpageshadow="2"
     inkscape:pageopacity="0.0"
     inkscape:pagecheckerboard="0"
     inkscape:deskcolor="#d1d1d1"
     inkscape:zoom="8.0520833"
     inkscape:cx="-4.2846054"
     inkscape:cy="20.056921"
     inkscape:window-width="1920"
     inkscape:window-height="991"
     inkscape:window-x="-9"
     inkscape:window-y="-9"
     inkscape:window-maximized="1"
     inkscape:current-layer="svg1" />
  <path
     d="m 180,-674 v 494 H 780 V -674 H 640 v 342 l -160,-80 -160,80 v -342 z m 0,554 c -16.5,0 -30.62333,-5.87667 -42.37,-17.63 C 125.87667,-149.37667 120,-163.5 120,-180 v -529 c 0,-6.58667 1,-12.94 3,-19.06 2,-6.12 5,-11.76667 9,-16.94 l 52,-71 c 5.33333,-7.33333 12.31333,-13.16667 20.94,-17.5 8.62667,-4.33333 17.64667,-6.5 27.06,-6.5 h 495 c 9.41333,0 18.43333,2.16667 27.06,6.5 8.62667,4.33333 15.60667,10.16667 20.94,17.5 l 53,71 c 4,5.17333 7,10.82 9,16.94 2,6.12 3,12.47333 3,19.06 v 529 c 0,16.5 -5.87333,30.62333 -17.62,42.37 C 810.62667,-125.87667 796.5,-120 780,-120 Z m 17,-614 h 565 l -36.41,-46 H 233 Z m -17,60 h 600 z"
     id="path1"
     style="fill:#ffffff"
     sodipodi:nodetypes="ccccccccccscsssccssssccsssssscccccccc" />
</svg>
