<?xml version="1.0" encoding="UTF-8" standalone="no"?>
<svg
   height="48px"
   viewBox="0 -960 960 960"
   width="48px"
   fill="#16464B"
   version="1.1"
   id="svg1"
   sodipodi:docname="cartIcon.svg"
   inkscape:version="1.4.2 (f4327f4, 2025-05-13)"
   xmlns:inkscape="http://www.inkscape.org/namespaces/inkscape"
   xmlns:sodipodi="http://sodipodi.sourceforge.net/DTD/sodipodi-0.dtd"
   xmlns="http://www.w3.org/2000/svg"
   xmlns:svg="http://www.w3.org/2000/svg">
  <defs
     id="defs1" />
  <sodipodi:namedview
     id="namedview1"
     pagecolor="#ffffff"
     bordercolor="#000000"
     borderopacity="0.25"
     inkscape:showpageshadow="2"
     inkscape:pageopacity="0.0"
     inkscape:pagecheckerboard="0"
     inkscape:deskcolor="#d1d1d1"
     inkscape:zoom="11.387365"
     inkscape:cx="14.270202"
     inkscape:cy="26.652347"
     inkscape:window-width="1920"
     inkscape:window-height="991"
     inkscape:window-x="-9"
     inkscape:window-y="-9"
     inkscape:window-maximized="1"
     inkscape:current-layer="svg1" />
  <path
     d="m 220,-160 q -24,0 -42,-14.4 -18,-14.4 -18,-33.6 v -416 q 0,-19.2 18,-33.6 18,-14.4 42,-14.4 h 110 v -8 q 0,-50.4 43.5,-85.2 Q 417,-800 480,-800 q 63,0 106.5,34.8 43.5,34.8 43.5,85.2 v 8 h 110 q 24,0 42,14.4 18,14.4 18,33.6 v 416 q 0,19.2 -18,33.6 -18,14.4 -42,14.4 z m 0,-48 H 740 V -624 H 630 v 72 q 0,10.2 -8.68,17.096 -8.67,6.904 -21.5,6.904 -12.82,0 -21.32,-6.904 Q 570,-541.8 570,-552 v -72 H 390 v 72 q 0,10.2 -8.68,17.096 -8.67,6.904 -21.5,6.904 -12.82,0 -21.32,-6.904 Q 330,-541.8 330,-552 v -72 H 220 Z m 170,-464 h 180 v -8 q 0,-30.4 -26,-51.2 -26,-20.8 -64,-20.8 -38,0 -64,20.8 -26,20.8 -26,51.2 z m -170,464 v -416 z"
     id="path1"
     style="stroke-width:0.894427;fill:#062e32;fill-opacity:1" />
</svg>
