<?xml version="1.0" encoding="UTF-8" standalone="no"?>
<!-- Created with Inkscape (http://www.inkscape.org/) -->

<svg
   width="37.755997mm"
   height="34.609661mm"
   viewBox="0 0 37.755996 34.60966"
   version="1.1"
   id="svg1"
   inkscape:version="1.4.2 (f4327f4, 2025-05-13)"
   sodipodi:docname="EHQALogo3.svg"
   inkscape:export-filename="C:\Users\buste\Pictures\ESTAHAMBREQUEATA\EHQALogoBlanco3.png"
   inkscape:export-xdpi="336.37042"
   inkscape:export-ydpi="336.37042"
   xmlns:inkscape="http://www.inkscape.org/namespaces/inkscape"
   xmlns:sodipodi="http://sodipodi.sourceforge.net/DTD/sodipodi-0.dtd"
   xmlns="http://www.w3.org/2000/svg"
   xmlns:svg="http://www.w3.org/2000/svg">
  <sodipodi:namedview
     id="namedview1"
     pagecolor="#ffffff"
     bordercolor="#000000"
     borderopacity="0.25"
     inkscape:showpageshadow="2"
     inkscape:pageopacity="0.0"
     inkscape:pagecheckerboard="0"
     inkscape:deskcolor="#d1d1d1"
     inkscape:document-units="mm"
     inkscape:zoom="2.8284271"
     inkscape:cx="15.026019"
     inkscape:cy="90.686445"
     inkscape:window-width="1920"
     inkscape:window-height="991"
     inkscape:window-x="-9"
     inkscape:window-y="-9"
     inkscape:window-maximized="1"
     inkscape:current-layer="layer1" />
  <defs
     id="defs1">
    <inkscape:path-effect
       effect="fillet_chamfer"
       id="path-effect16"
       is_visible="true"
       lpeversion="1"
       nodesatellites_param="F,0,0,1,0,0,0,1 @ F,0,0,1,0,0.39095062,0,1 @ F,0,0,1,0,0.33994647,0,1"
       radius="0"
       unit="px"
       method="auto"
       mode="F"
       chamfer_steps="1"
       flexible="false"
       use_knot_distance="true"
       apply_no_radius="true"
       apply_with_radius="true"
       only_selected="false"
       hide_knots="false" />
    <inkscape:path-effect
       effect="fillet_chamfer"
       id="path-effect16-2"
       is_visible="true"
       lpeversion="1"
       nodesatellites_param="F,0,0,1,0,0,0,1 @ F,0,0,1,0,0.39095062,0,1 @ F,0,0,1,0,0.33994647,0,1"
       radius="0"
       unit="px"
       method="auto"
       mode="F"
       chamfer_steps="1"
       flexible="false"
       use_knot_distance="true"
       apply_no_radius="true"
       apply_with_radius="true"
       only_selected="false"
       hide_knots="false" />
    <inkscape:path-effect
       effect="fillet_chamfer"
       id="path-effect16-25"
       is_visible="true"
       lpeversion="1"
       nodesatellites_param="F,0,0,1,0,0,0,1 @ F,0,0,1,0,0.39095062,0,1 @ F,0,0,1,0,0.33994647,0,1"
       radius="0"
       unit="px"
       method="auto"
       mode="F"
       chamfer_steps="1"
       flexible="false"
       use_knot_distance="true"
       apply_no_radius="true"
       apply_with_radius="true"
       only_selected="false"
       hide_knots="false" />
    <inkscape:path-effect
       effect="fillet_chamfer"
       id="path-effect16-25-9"
       is_visible="true"
       lpeversion="1"
       nodesatellites_param="F,0,0,1,0,0,0,1 @ F,0,0,1,0,0.39095062,0,1 @ F,0,0,1,0,0.33994647,0,1"
       radius="0"
       unit="px"
       method="auto"
       mode="F"
       chamfer_steps="1"
       flexible="false"
       use_knot_distance="true"
       apply_no_radius="true"
       apply_with_radius="true"
       only_selected="false"
       hide_knots="false" />
  </defs>
  <g
     inkscape:label="Capa 1"
     inkscape:groupmode="layer"
     id="layer1"
     transform="translate(-94.191855,-171.45001)">
    <path
       id="path4"
       style="fill:#062e32;fill-opacity:1;stroke-width:0.251187"
       d="m 100.45024,171.45006 c -0.20188,0.002 -0.40166,0.067 -0.603062,0.21342 -0.167438,0.12174 -0.335607,0.30002 -0.482658,0.50075 l -5.17e-4,5.2e-4 c -0.136068,0.20831 -0.243725,0.42879 -0.29869,0.62838 -0.132233,0.48014 0.03932,0.83975 0.379822,1.15859 0.3405,0.31883 0.850005,0.59689 1.258835,0.80408 0.40883,0.2072 0.71717,0.3435 1.07229,0.55036 0.3551,0.20685 0.7569,0.48426 1.13946,0.68471 0.38259,0.20045 0.74607,0.32404 1.1095,0.44752 0.12668,0.016 0.25301,0.0312 0.38085,-0.0212 l 1.07952,0.68471 a 10.154099,10.153998 0 0 0 -0.30799,0.39274 c -0.10762,0.13395 -0.21696,0.26643 -0.31729,0.40515 a 10.154099,10.153998 0 0 0 -0.31109,0.46457 c -0.0996,0.15497 -0.19448,0.31203 -0.28526,0.4718 a 10.154099,10.153998 0 0 0 -0.24908,0.45631 c -0.11299,0.22494 -0.21315,0.45536 -0.30902,0.68781 a 10.154099,10.153998 0 0 0 -0.18655,0.48421 c -0.0916,0.25879 -0.17458,0.5203 -0.24495,0.786 a 10.154099,10.153998 0 0 0 -0.0946,0.40514 c -0.0525,0.23705 -0.0958,0.47577 -0.13126,0.71675 a 10.154099,10.153998 0 0 0 -0.0522,0.37775 c -0.0391,0.3594 -0.0652,0.72114 -0.0656,1.08573 a 10.154099,10.153998 0 0 0 0,0.001 10.154099,10.153998 0 0 1 0,5.1e-4 10.154099,10.153998 0 0 0 0.25632,2.26705 c -0.56681,0.34768 -1.11905,0.68469 -1.57769,0.95084 -0.60529,0.35129 -1.05904,0.58805 -1.39888,0.75241 -0.339839,0.16436 -0.565574,0.25612 -0.754473,0.39119 -0.188899,0.13507 -0.340885,0.31385 -0.411861,0.47543 -0.07098,0.16158 -0.06123,0.3047 -0.02532,0.41651 0.03591,0.11181 0.09763,0.19008 0.164331,0.2589 0.0667,0.0688 0.138241,0.12814 0.241846,0.17932 0.103603,0.0512 0.239227,0.0937 0.38964,0.10852 0.150416,0.0148 0.315637,0.002 0.484207,-0.0315 0.16857,-0.0332 0.3404,-0.0862 0.49351,-0.1695 0.15312,-0.0833 0.28742,-0.19676 0.3762,-0.28732 0.0888,-0.0906 0.13198,-0.15774 0.17519,-0.22531 -0.1292,-0.0283 -0.25805,-0.0567 -0.36949,-0.0956 -0.11144,-0.0389 -0.20551,-0.0886 -0.28267,-0.1354 -0.0772,-0.0468 -0.13779,-0.0906 -0.1571,-0.13797 -0.0193,-0.0474 0.003,-0.0984 0.0832,-0.15296 0.0804,-0.0546 0.21955,-0.11294 0.36277,-0.1571 0.14322,-0.0441 0.29045,-0.0739 0.44855,-0.10542 0.1581,-0.0315 0.32683,-0.0646 0.81649,-0.28215 0.31552,-0.14022 0.77816,-0.36498 1.27486,-0.60927 a 10.154099,10.153998 0 0 0 5.39502,5.84771 c -0.14925,0.19046 -0.31052,0.39646 -0.35657,0.4501 -1.57583,1.8351 -4.59496,-2.15242 -5.8906,-2.12649 -0.42433,0.008 -0.70874,0.25956 -0.82992,0.67025 -0.0453,0.0876 -0.0957,0.11694 -0.14934,0.1049 -0.0536,-0.012 -0.11035,-0.0656 -0.1726,-0.13488 -0.0622,-0.0693 -0.12979,-0.15449 -0.18914,-0.25889 -0.0593,-0.10441 -0.11038,-0.22839 -0.16123,-0.35192 -0.0651,0.0528 -0.1301,0.10594 -0.21239,0.20722 -0.0823,0.10128 -0.18178,0.25116 -0.24598,0.41496 -0.0642,0.16381 -0.093,0.34152 -0.10129,0.51315 -0.008,0.17164 0.004,0.33716 0.0439,0.48369 0.0399,0.14655 0.10762,0.27415 0.1788,0.36897 0.0712,0.0948 0.14589,0.15667 0.22996,0.21239 0.16442,0.10893 0.50127,0.27347 0.78807,0.0377 0.11504,-0.0946 0.28062,-0.27164 0.39429,-0.47852 0.11369,-0.20691 0.17543,-0.44408 0.2961,-0.8046 0.22416,-1.04397 3.35717,2.31592 4.94751,2.20916 0.22318,-0.015 1.08714,0.14901 2.01848,-1.27434 a 10.154099,10.153998 0 0 0 1.76216,0.46922 10.154099,10.153998 0 0 0 0.84388,0.12403 c 0.31828,0.034 0.63805,0.0551 0.95911,0.0589 0.005,6e-5 0.0107,4.6e-4 0.016,5.1e-4 0.007,-5e-5 0.0145,-4.4e-4 0.0217,-5.1e-4 0.33175,-0.003 0.66184,-0.026 0.99064,-0.0615 a 10.154099,10.153998 0 0 0 0.6873,-0.0992 c 0.0713,-0.0127 0.14242,-0.0251 0.21342,-0.0393 a 10.154099,10.153998 0 0 0 1.66812,-0.45217 c 0.93129,1.42312 1.79531,1.25937 2.01848,1.27434 1.59036,0.10676 4.72334,-3.25313 4.9475,-2.20917 0.12068,0.36052 0.18241,0.59773 0.29611,0.8046 0.11369,0.20691 0.27925,0.38397 0.39429,0.47853 0.28681,0.23574 0.62365,0.0712 0.78806,-0.0377 0.0841,-0.0557 0.15876,-0.11756 0.22996,-0.21239 0.0712,-0.0948 0.13912,-0.22245 0.1788,-0.36897 0.04,-0.14655 0.0521,-0.31206 0.0439,-0.48369 -0.008,-0.17164 -0.037,-0.34935 -0.10128,-0.51315 -0.0641,-0.1638 -0.1637,-0.31368 -0.24598,-0.41496 -0.0823,-0.10128 -0.14731,-0.15444 -0.21239,-0.20722 -0.0508,0.12353 -0.10189,0.24751 -0.16123,0.35191 -0.0593,0.10441 -0.12688,0.18955 -0.18914,0.2589 -0.0623,0.0693 -0.11902,0.12286 -0.1726,0.13488 -0.0536,0.012 -0.10405,-0.0173 -0.14934,-0.10491 -0.12118,-0.41068 -0.40559,-0.66175 -0.82993,-0.67024 -1.29564,-0.026 -4.31479,3.96156 -5.89059,2.12649 -0.0459,-0.0534 -0.20873,-0.26147 -0.35657,-0.45011 a 10.154099,10.153998 0 0 0 1.66553,-0.97616 c 0.0596,-0.0418 0.11854,-0.0841 0.17725,-0.12713 a 10.154099,10.153998 0 0 0 0.68161,-0.54157 c 0.0551,-0.0482 0.1056,-0.10149 0.15968,-0.15089 a 10.154099,10.153998 0 0 0 0.98909,-1.04852 c 0.10831,-0.13166 0.21899,-0.26116 0.32039,-0.39791 a 10.154099,10.153998 0 0 0 0.33693,-0.49454 c 0.12235,-0.18712 0.23753,-0.37778 0.34727,-0.57257 a 10.154099,10.153998 0 0 0 0.24185,-0.44494 c 0.17549,-0.35144 0.33667,-0.71062 0.47077,-1.08159 0.48542,0.2386 0.94058,0.45986 1.25005,0.59738 0.48966,0.2176 0.6584,0.25067 0.81649,0.28216 0.15811,0.0315 0.30533,0.0613 0.44855,0.10542 0.14322,0.0442 0.28226,0.10251 0.36277,0.15709 0.0804,0.0546 0.10199,0.1056 0.0827,0.15297 -0.0193,0.0474 -0.0793,0.0912 -0.15658,0.13797 -0.0772,0.0468 -0.17126,0.0965 -0.28267,0.13539 -0.11147,0.0389 -0.24029,0.0673 -0.36949,0.0956 0.0432,0.0676 0.0864,0.13475 0.17519,0.22531 0.0888,0.0906 0.22308,0.20403 0.3762,0.28732 0.15309,0.0833 0.3247,0.13638 0.49351,0.1695 0.16854,0.0332 0.33392,0.0463 0.48421,0.0315 0.15055,-0.0148 0.28618,-0.0574 0.38964,-0.10852 0.10371,-0.0512 0.17517,-0.11047 0.24184,-0.17931 0.0667,-0.0688 0.12835,-0.14709 0.16433,-0.2589 0.036,-0.11182 0.0456,-0.25493 -0.0253,-0.41652 -0.0709,-0.16158 -0.22295,-0.34035 -0.41186,-0.47542 -0.18891,-0.1351 -0.41448,-0.22683 -0.75447,-0.39119 -0.33973,-0.16436 -0.7936,-0.40112 -1.39888,-0.75241 -0.45117,-0.2618 -0.99494,-0.5933 -1.55185,-0.93483 a 10.154099,10.153998 0 0 0 0.25994,-2.28358 c -1.1e-4,-0.37156 -0.0269,-0.7397 -0.0672,-1.10587 a 10.154099,10.153998 0 0 0 -0.0455,-0.33073 c -0.0376,-0.26204 -0.0854,-0.52135 -0.14314,-0.77877 a 10.154099,10.153998 0 0 0 -0.0816,-0.35342 c -0.0868,-0.33112 -0.18689,-0.65852 -0.30644,-0.97876 a 10.154099,10.153998 0 0 0 -0.046,-0.1204 c -0.12282,-0.31666 -0.26444,-0.62546 -0.41858,-0.92863 a 10.154099,10.153998 0 0 0 -0.18242,-0.33538 c -0.12237,-0.2198 -0.25288,-0.43465 -0.39171,-0.64544 a 10.154099,10.153998 0 0 0 -0.21032,-0.31419 c -0.18655,-0.26146 -0.38475,-0.51531 -0.59687,-0.75964 a 10.154099,10.153998 0 0 0 -0.076,-0.0961 l 1.0604,-0.67231 c 0.12788,0.0524 0.25467,0.0372 0.38138,0.0212 0.36343,-0.12346 0.72693,-0.24707 1.10949,-0.44752 0.38256,-0.20045 0.78437,-0.47786 1.13946,-0.68471 0.35513,-0.20686 0.66346,-0.34314 1.07229,-0.55036 0.40881,-0.20719 0.9178,-0.48525 1.25832,-0.80408 0.34052,-0.31885 0.51263,-0.67844 0.38034,-1.15859 -0.055,-0.19959 -0.16321,-0.42007 -0.29921,-0.62838 v -5.2e-4 c -0.14711,-0.20072 -0.31518,-0.379 -0.48266,-0.50075 -0.20135,-0.14643 -0.40119,-0.21118 -0.60306,-0.21342 -0.20188,-0.002 -0.4058,0.058 -0.61495,0.16123 -0.41833,0.20639 -0.85787,0.58486 -1.19579,0.89452 -0.33793,0.30966 -0.57431,0.55026 -0.89297,0.80977 -0.31867,0.2595 -0.71997,0.53781 -1.04232,0.82527 -0.32237,0.28745 -0.5657,0.58389 -0.80925,0.88057 -0.0646,0.12237 -0.12746,0.24554 -0.1111,0.39997 l -1.24386,0.78084 a 10.154099,10.153998 0 0 0 -0.14934,-0.11628 c -0.22219,-0.18772 -0.45088,-0.36583 -0.68678,-0.53278 a 10.154099,10.153998 0 0 0 -0.33796,-0.22428 c -0.19905,-0.12924 -0.40179,-0.25071 -0.60875,-0.36535 a 10.154099,10.153998 0 0 0 -0.34365,-0.18603 c -0.28515,-0.14391 -0.57579,-0.27596 -0.87282,-0.39223 a 10.154099,10.153998 0 0 0 -0.1881,-0.0718 c -0.3043,-0.1122 -0.61407,-0.20724 -0.92811,-0.2899 a 10.154099,10.153998 0 0 0 -0.35295,-0.0827 c -0.25042,-0.0564 -0.50276,-0.10316 -0.75757,-0.14056 a 10.154099,10.153998 0 0 0 -0.3359,-0.0475 c -0.35833,-0.0404 -0.71906,-0.0678 -1.08262,-0.0698 a 10.154099,10.153998 0 0 0 -0.0501,0 10.154099,10.153998 0 0 0 -0.0258,0 c -0.36457,0.001 -0.72637,0.0278 -1.08572,0.0677 a 10.154099,10.153998 0 0 0 -0.34933,0.0491 c -0.24835,0.0363 -0.49427,0.0815 -0.73846,0.13591 a 10.154099,10.153998 0 0 0 -0.38189,0.0889 c -0.29725,0.0784 -0.59045,0.16949 -0.87901,0.2744 a 10.154099,10.153998 0 0 0 -0.28164,0.10749 c -0.27448,0.10913 -0.54396,0.22995 -0.80822,0.36277 a 10.154099,10.153998 0 0 0 -0.39739,0.21549 c -0.18527,0.10369 -0.36682,0.21322 -0.5457,0.32866 a 10.154099,10.153998 0 0 0 -0.39481,0.26252 c -0.18676,0.13328 -0.36649,0.27735 -0.54467,0.42374 a 10.154099,10.153998 0 0 0 -0.2744,0.21343 l -1.26091,-0.79169 c 0.0164,-0.15446 -0.0465,-0.27758 -0.1111,-0.39997 -0.24355,-0.29668 -0.48743,-0.59312 -0.80977,-0.88057 -0.32234,-0.28746 -0.72313,-0.56577 -1.0418,-0.82527 -0.31866,-0.25951 -0.55504,-0.50012 -0.89297,-0.80977 -0.33792,-0.30966 -0.77745,-0.68813 -1.19579,-0.89452 -0.20917,-0.1032 -0.41306,-0.16347 -0.61495,-0.16123 z m 0.56793,1.37201 c 0.0825,0.004 0.16206,0.0309 0.22944,0.0786 0.19416,0.13736 0.24021,0.40581 0.10284,0.59996 -0.13739,0.19415 -0.40634,0.24021 -0.60049,0.10284 -0.19415,-0.13737 -0.24021,-0.40581 -0.10283,-0.59997 0.0847,-0.11964 0.22461,-0.18793 0.37104,-0.18138 z m 24.10343,0 c 0.14645,-0.006 0.28629,0.0617 0.37104,0.18138 0.13732,0.19416 0.0909,0.4626 -0.10335,0.59997 -0.19413,0.13738 -0.46259,0.0913 -0.59996,-0.10284 -0.1374,-0.19415 -0.0913,-0.4626 0.10283,-0.59996 0.0674,-0.0477 0.147,-0.0748 0.22944,-0.0786 z m -21.68963,1.69602 c 0.0825,0.004 0.16208,0.0309 0.22945,0.0786 0.19417,0.1374 0.2402,0.4063 0.10283,0.60048 -0.13737,0.1942 -0.40633,0.24029 -0.60048,0.10283 -0.19415,-0.13737 -0.24021,-0.40632 -0.10283,-0.60048 0.0847,-0.11964 0.22461,-0.18792 0.37103,-0.18138 z m 19.27583,0 c 0.14642,-0.007 0.28637,0.0617 0.37103,0.18138 0.13738,0.19416 0.0913,0.46311 -0.10283,0.60048 -0.19415,0.13746 -0.46311,0.0914 -0.60048,-0.10283 -0.13737,-0.19418 -0.0913,-0.46308 0.10283,-0.60048 0.0674,-0.0477 0.14698,-0.0748 0.22945,-0.0786 z m -12.4995,0.6258 h 5.75262 c 0.23609,0 0.42633,0.19024 0.42633,0.42633 0,0.23609 -0.19024,0.42633 -0.42633,0.42633 h -5.75262 c -0.23609,0 -0.42633,-0.19024 -0.42633,-0.42633 0,-0.23609 0.19024,-0.42633 0.42633,-0.42633 z m -2.43757,1.8371 h 10.62777 c 0.24142,0 0.43563,0.19016 0.43563,0.42633 0,0.23617 -0.19421,0.42633 -0.43563,0.42633 h -10.62777 c -0.24142,0 -0.43564,-0.19016 -0.43564,-0.42633 0,-0.23617 0.19422,-0.42633 0.43564,-0.42633 z m -1.55547,1.8371 h 13.7387 c 0.24142,0 0.43615,0.19016 0.43615,0.42633 0,0.23617 -0.19473,0.42633 -0.43615,0.42633 h -13.7387 c -0.24141,0 -0.43615,-0.19016 -0.43615,-0.42633 0,-0.23617 0.19474,-0.42633 0.43615,-0.42633 z m -0.96479,1.83709 h 15.66829 c 0.24142,0 0.43563,0.19016 0.43563,0.42633 0,0.23617 -0.19421,0.42633 -0.43563,0.42633 h -15.66829 c -0.24142,0 -0.43564,-0.19016 -0.43564,-0.42633 0,-0.23617 0.19422,-0.42633 0.43564,-0.42633 z m -0.46613,1.8371 h 16.60054 c 0.24142,0 0.43615,0.19016 0.43615,0.42633 0,0.23617 -0.19473,0.42633 -0.43615,0.42633 h -16.60054 c -0.24141,0 -0.43615,-0.19016 -0.43615,-0.42633 0,-0.23617 0.19474,-0.42633 0.43615,-0.42633 z m 0,1.8371 h 16.60054 c 0.24142,0 0.43615,0.18964 0.43615,0.42581 0,0.23617 -0.19473,0.42633 -0.43615,0.42633 h -16.60054 c -0.24141,0 -0.43615,-0.19016 -0.43615,-0.42633 0,-0.23617 0.19474,-0.42581 0.43615,-0.42581 z m 0.46613,1.83658 h 15.66829 c 0.24142,0 0.43563,0.19016 0.43563,0.42633 0,0.23617 -0.19421,0.42633 -0.43563,0.42633 h -15.66829 c -0.24142,0 -0.43564,-0.19016 -0.43564,-0.42633 0,-0.23617 0.19422,-0.42633 0.43564,-0.42633 z m 0.96479,1.83761 h 13.7387 c 0.24142,0 0.43615,0.19016 0.43615,0.42633 0,0.23617 -0.19473,0.42582 -0.43615,0.42582 h -13.7387 c -0.24141,0 -0.43615,-0.18965 -0.43615,-0.42582 0,-0.23617 0.19474,-0.42633 0.43615,-0.42633 z m 1.55547,1.83658 h 10.62777 c 0.24141,0 0.43563,0.19016 0.43563,0.42633 0,0.23617 -0.19422,0.42633 -0.43563,0.42633 h -10.62777 c -0.24142,0 -0.43564,-0.19016 -0.43564,-0.42633 0,-0.23617 0.19422,-0.42633 0.43564,-0.42633 z m 2.43757,1.8371 h 5.75262 c 0.23609,0 0.42633,0.19024 0.42633,0.42633 0,0.23609 -0.19024,0.42633 -0.42633,0.42633 h -5.75262 c -0.23609,0 -0.42633,-0.19024 -0.42633,-0.42633 0,-0.23609 0.19024,-0.42633 0.42633,-0.42633 z" />
    <path
       id="path45"
       style="fill:#062e32;stroke-width:0.0339031;fill-opacity:1"
       d="m 112.68717,197.77255 c -0.16246,0 -0.32493,0.0603 -0.42513,0.1807 -0.20043,0.24088 0.20043,0.78118 0,1.02206 -0.16035,0.19271 -0.51993,0.19271 -0.68028,0 -0.20043,-0.24088 0.20043,-0.78118 0,-1.02206 -0.20014,-0.24054 -0.65011,-0.24054 -0.85026,0 -0.56118,0.67444 -0.56118,2.18703 0,2.86148 0.20041,0.24085 0.64985,0.24085 0.85026,0 0.20041,-0.24086 -0.20041,-0.78098 0,-1.02183 0.16035,-0.19271 0.51993,-0.19271 0.68028,0 0.20041,0.24085 -0.20041,0.78097 0,1.02183 0.20041,0.24085 0.64986,0.24085 0.85026,0 0.56118,-0.67445 0.56118,-2.18704 0,-2.86148 -0.1002,-0.12043 -0.26267,-0.1807 -0.42513,-0.1807 z m -16.730537,1.2e-4 c -2.076492,0 -2.047798,2.11619 -1.299418,2.80177 0.612598,0.56118 1.986357,0.56118 2.598955,0 0.218791,-0.20044 0.218791,-0.64987 0,-0.8503 -0.393761,-0.36072 -1.457476,0.47131 -1.670544,0 -0.06692,-0.14803 0.370984,-0.17963 0.371007,-0.33986 2.3e-5,-0.16043 -0.438393,-0.19211 -0.371364,-0.34033 0.213184,-0.47139 1.27705,0.3608 1.670901,0 0.218791,-0.20043 0.218791,-0.64998 0,-0.85041 -0.306299,-0.2806 -0.802929,-0.42087 -1.299537,-0.42087 z m 10.901357,0 c -1.07397,-1.3e-4 -2.00581,2.0701 -1.44133,3.03123 0.25247,0.42986 0.96065,1.8e-4 1.44097,2.3e-4 0.48033,7e-5 1.1884,0.43005 1.44097,2.3e-4 0.56474,-0.961 -0.36662,-3.03157 -1.44061,-3.0317 z m 8.74704,0 c -1.07396,-1.3e-4 -2.00581,2.0701 -1.44132,3.03123 0.25246,0.42986 0.96064,1.8e-4 1.44097,2.3e-4 0.48033,7e-5 1.18851,0.43005 1.44108,2.3e-4 0.56474,-0.961 -0.36673,-3.03157 -1.44073,-3.0317 z m 14.87919,0 c -2.07672,0 -2.04787,2.11623 -1.29953,2.80177 0.6126,0.56118 1.98647,0.56118 2.59907,0 0.21879,-0.20044 0.21879,-0.64987 0,-0.8503 -0.39376,-0.36072 -1.45748,0.47131 -1.67055,0 -0.0669,-0.14803 0.37099,-0.17963 0.37101,-0.33986 3e-5,-0.16043 -0.43851,-0.19211 -0.37148,-0.34033 0.21318,-0.47139 1.27717,0.3608 1.67102,0 0.21879,-0.20043 0.21879,-0.64998 0,-0.85041 -0.3063,-0.2806 -0.80293,-0.42087 -1.29954,-0.42087 z m -7.34164,4.6e-4 c -0.50361,2e-5 -1.00721,0.14024 -1.31738,0.42051 -0.62106,0.56119 -0.62105,1.81971 0,2.3809 0.62107,0.56119 2.01382,0.56119 2.63488,0 0.17743,-0.16033 0.14673,-0.49626 0,-0.68019 -0.24683,-0.23417 -0.45924,-0.39567 -0.63829,-0.50306 0.18133,-0.10333 0.39457,-0.2679 0.63829,-0.51734 0.14673,-0.18397 0.17746,-0.51996 0,-0.68031 -0.31025,-0.28034 -0.81388,-0.42053 -1.3175,-0.42051 z m -19.96766,1.2e-4 c -0.54688,1e-5 -1.09378,0.15456 -1.43062,0.46369 -0.24087,0.22105 -0.24087,0.7168 0,0.93785 0.24087,0.22105 0.78104,-0.22105 1.0219,0 0.43355,0.39787 -0.43354,1.29022 0,1.6881 0.19268,0.17682 0.62476,0.17682 0.81743,0 0.43354,-0.39788 -0.43354,-1.29023 0,-1.6881 0.24087,-0.22105 0.78104,0.22105 1.02191,0 0.24087,-0.22105 0.24087,-0.7168 0,-0.93785 -0.33687,-0.30915 -0.88374,-0.46369 -1.43062,-0.46369 z m 16.98723,1.2e-4 c -0.15733,-0.006 -0.32718,0.0519 -0.44927,0.14358 -0.26964,0.20257 -0.10844,1.03425 -0.42537,1.0342 -0.31689,-5e-5 -0.15545,-0.83155 -0.42501,-1.0342 -0.24072,-0.14597 -0.55116,-0.21381 -0.76521,0 -0.56117,0.68252 -0.56117,2.21321 0,2.89574 0.2004,0.24375 0.64985,0.24375 0.85026,0 0.27479,-0.33422 -0.37065,-1.276 0,-1.41807 0.18844,-0.0722 0.14226,0.59069 0.33984,0.59073 0.19784,4e-5 0.15188,-0.66369 0.34056,-0.59133 0.37079,0.14221 -0.27492,1.0843 0,1.41867 0.20043,0.24377 0.64983,0.24377 0.85026,0 0.5611,-0.68245 0.561,-2.21282 0,-2.89538 -0.0789,-0.096 -0.19369,-0.13928 -0.31606,-0.14394 z m -20.798055,6.9e-4 c -0.959412,0.0355 -1.819361,0.49619 -1.302748,1.26997 0.250516,0.37522 1.455642,0.26758 1.31393,0.68031 -0.120322,0.35043 -1.004231,-0.2577 -1.31393,0 -0.240843,0.20041 -0.240843,0.64977 0,0.85018 0.991796,0.82529 3.687243,0.38706 2.861243,-0.85018 -0.2505,-0.37521 -1.455525,-0.26761 -1.313813,-0.68031 0.120319,-0.35039 1.004133,0.25769 1.313813,0 0.24087,-0.20043 0.24087,-0.64998 0,-0.85041 -0.37137,-0.30903 -0.982847,-0.44085 -1.558495,-0.41956 z m 27.334635,9.2e-4 c -0.44206,0.0173 -0.88473,0.15715 -1.19057,0.46191 -0.62114,0.61892 -0.62114,2.00702 0,2.62594 0.17747,0.17685 0.57548,0.17685 0.75295,0 0.2903,-0.28926 -0.43262,-1.63635 0,-1.22726 0.43263,0.40908 0.73939,1.01901 1.29799,1.22726 0.24576,0.0916 0.66073,-0.27538 0.58441,-0.52554 -0.13988,-0.45854 -1.50124,-0.83319 -1.04665,-0.98971 0,0 0.83247,-0.0609 1.04665,-0.36044 0.49729,-0.69548 -0.47224,-1.25026 -1.44478,-1.21216 z m -0.26228,0.39791 c 0.29371,-0.0118 0.68423,0.21067 0.6842,0.46 -3e-5,0.30687 -0.59163,0.57295 -0.8662,0.41159 -0.1228,-0.0722 -2e-5,-0.27446 0,-0.41171 2e-5,-0.13724 -0.12269,-0.33957 1.2e-4,-0.4117 0.0515,-0.0302 0.1141,-0.0454 0.18188,-0.0482 z m -3.68962,0.0748 c 0.29372,-0.0118 0.68424,0.21068 0.68421,0.46 -4e-5,0.30687 -0.59164,0.57295 -0.8662,0.41159 -0.1228,-0.0722 1e-4,-0.27446 1.2e-4,-0.41171 2e-5,-0.13724 -0.12282,-0.33956 0,-0.4117 0.0515,-0.0302 0.11409,-0.0455 0.18187,-0.0482 z m -15.88896,0.44573 c 0.46029,6e-5 0.85939,0.88749 0.61736,1.29935 -0.10825,0.18421 -0.41174,-9e-5 -0.6176,-1.2e-4 -0.20585,-2e-5 -0.50927,0.18411 -0.61747,-1.2e-4 -0.24192,-0.41191 0.15744,-1.29917 0.61771,-1.29911 z m 8.74704,0 c 0.46029,6e-5 0.85951,0.88749 0.61748,1.29935 -0.10825,0.18421 -0.41174,-9e-5 -0.6176,-1.2e-4 -0.20585,-2e-5 -0.50939,0.18411 -0.61759,-1.2e-4 -0.24192,-0.41191 0.15744,-1.29917 0.61771,-1.29911 z m 7.14192,0.90739 c 0.29372,-0.0118 0.68424,0.21068 0.68421,0.46001 -4e-5,0.30686 -0.59164,0.57306 -0.8662,0.4117 -0.1228,-0.0722 1e-4,-0.27458 1.2e-4,-0.41182 2e-5,-0.13725 -0.12282,-0.33957 0,-0.41171 0.0515,-0.0302 0.11409,-0.0454 0.18187,-0.0482 z m -15.08105,3.23607 c -0.13721,0 -0.27436,0.0447 -0.35899,0.13406 -0.42316,0.44669 0.42316,1.44851 0,1.8952 -0.21159,0.22336 -0.68613,0.22336 -0.89772,0 -0.42316,-0.44669 0.42315,-1.44851 0,-1.8952 -0.16902,-0.17842 -0.54919,-0.17843 -0.71822,0 -0.59242,0.62535 -0.59241,2.02783 0,2.65319 0.55011,0.58071 1.78393,0.58071 2.33405,0 0.59241,-0.62535 0.59241,-2.02783 0,-2.65319 -0.0846,-0.0893 -0.2219,-0.13406 -0.35912,-0.13406 z m 7.93925,0 v 1.2e-4 c -1.07396,-1.3e-4 -2.00569,2.07009 -1.4412,3.03123 0.25246,0.42986 0.96064,1.8e-4 1.44096,2.3e-4 0.48033,7e-5 1.1884,0.43004 1.44097,2.3e-4 0.56474,-0.96101 -0.36673,-3.03169 -1.44073,-3.03183 z m 7.36591,0 v 1.2e-4 c -1.07397,-1.3e-4 -2.00581,2.07009 -1.44133,3.03123 0.25247,0.42986 0.96064,1.8e-4 1.44097,2.3e-4 0.48033,7e-5 1.18852,0.43004 1.44109,2.3e-4 0.56474,-0.96101 -0.36674,-3.03169 -1.44073,-3.03183 z m -12.2825,1.2e-4 c -2.07672,0 -2.04787,2.11623 -1.29954,2.80176 0.6126,0.56119 1.98648,0.56119 2.59908,0 0.21879,-0.20043 0.21879,-0.64986 0,-0.8503 -0.39376,-0.36071 -1.45748,0.47132 -1.67055,0 -0.0669,-0.14803 0.37099,-0.17962 0.37101,-0.33985 2e-5,-0.16043 -0.43839,-0.19224 -0.37136,-0.34045 0.21318,-0.4714 1.27705,0.3608 1.6709,0 0.21879,-0.20043 0.21879,-0.64987 0,-0.8503 -0.3063,-0.28059 -0.80293,-0.42086 -1.29954,-0.42086 z m 8.59931,4.6e-4 c -0.54688,0 -1.09378,0.15467 -1.43062,0.46381 -0.24087,0.22105 -0.24087,0.71679 0,0.93784 0.24086,0.22106 0.78104,-0.22105 1.0219,0 0.43354,0.39788 -0.43354,1.29022 0,1.6881 0.19268,0.17682 0.62476,0.17682 0.81743,0 0.43354,-0.39788 -0.43354,-1.29022 0,-1.6881 0.24087,-0.22105 0.78104,0.22106 1.02191,0 0.24086,-0.22105 0.24086,-0.71679 0,-0.93784 -0.33687,-0.30916 -0.88374,-0.46382 -1.43062,-0.46381 z m -16.04384,1.2e-4 c -0.51281,-1e-5 -1.02562,0.16121 -1.34153,0.48367 -0.4517,0.46107 -0.4517,1.49504 0,1.95611 0.45171,0.46108 1.91645,3e-5 1.91654,0 0,0 0.0975,0.78233 0.38314,0.78237 0.33206,4e-5 0.87669,-2.23494 0.38338,-2.73848 -0.3159,-0.32244 -0.82872,-0.48367 -1.34153,-0.48367 z m 0.20947,0.74859 c 0.0847,0.003 0.16297,0.0225 0.22732,0.0603 0.1535,0.0902 -1e-4,0.34316 -1.2e-4,0.51472 -2e-5,0.17155 0.15352,0.42443 0,0.5146 -0.34325,0.20161 -1.08262,-0.13114 -1.08257,-0.51472 4e-5,-0.31167 0.48822,-0.5898 0.85537,-0.57491 z m 12.15165,0.17165 c 0.46029,6e-5 0.85939,0.88737 0.61736,1.29923 -0.10825,0.18421 -0.41174,3e-5 -0.6176,0 -0.20585,-2e-5 -0.50927,0.18411 -0.61747,-1.2e-4 -0.24192,-0.41191 0.15744,-1.29917 0.61771,-1.29911 z m 7.36579,0 c 0.46028,5e-5 0.8595,0.88737 0.61747,1.29923 -0.10824,0.18421 -0.41173,3e-5 -0.61759,0 -0.20586,-2e-5 -0.50939,0.18411 -0.61759,-1.2e-4 -0.24193,-0.41191 0.15743,-1.29917 0.61771,-1.29911 z" />
  </g>
</svg>
