<?xml version="1.0" encoding="UTF-8" standalone="no"?>
<!-- Created with Inkscape (http://www.inkscape.org/) -->

<svg
   width="35.738842mm"
   height="33.460903mm"
   viewBox="0 0 35.738842 33.460903"
   version="1.1"
   id="svg1"
   inkscape:version="1.4.2 (f4327f4, 2025-05-13)"
   sodipodi:docname="EHQALogo2.svg"
   inkscape:export-filename="C:\Users\buste\Pictures\EHQALogoBlanco2.png"
   inkscape:export-xdpi="355.35565"
   inkscape:export-ydpi="355.35565"
   xmlns:inkscape="http://www.inkscape.org/namespaces/inkscape"
   xmlns:sodipodi="http://sodipodi.sourceforge.net/DTD/sodipodi-0.dtd"
   xmlns="http://www.w3.org/2000/svg"
   xmlns:svg="http://www.w3.org/2000/svg">
  <sodipodi:namedview
     id="namedview1"
     pagecolor="#ffffff"
     bordercolor="#000000"
     borderopacity="0.25"
     inkscape:showpageshadow="2"
     inkscape:pageopacity="0.0"
     inkscape:pagecheckerboard="0"
     inkscape:deskcolor="#d1d1d1"
     inkscape:document-units="mm"
     inkscape:zoom="1.947738"
     inkscape:cx="45.180615"
     inkscape:cy="61.866637"
     inkscape:window-width="1920"
     inkscape:window-height="991"
     inkscape:window-x="-9"
     inkscape:window-y="-9"
     inkscape:window-maximized="1"
     inkscape:current-layer="svg1" />
  <defs
     id="defs1" />
  <path
     id="path4"
     style="fill:#ffffff;stroke-width:0.251187;fill-opacity:1"
     d="M 5.2498088 0 C 5.0479238 0.0022000045 4.8481458 0.06699566 4.6467448 0.21342367 C 4.4793068 0.33516367 4.3111379 0.51344429 4.1640869 0.71416829 L 4.1635701 0.71468506 C 4.0275021 0.92300406 3.9198454 1.1434825 3.8648804 1.3430705 C 3.7326474 1.8232125 3.9042041 2.1828151 4.2447021 2.5016561 C 4.5852021 2.8204891 5.094708 3.0985462 5.50354 3.3057414 C 5.912372 3.5129366 6.220705 3.6492441 6.575826 3.8560954 C 6.930924 4.0629466 7.3327293 4.3403597 7.7152913 4.5408081 C 8.0978783 4.7412564 8.4613523 4.864845 8.8247843 4.988326 C 8.9514663 5.004306 9.0777926 5.0195487 9.2056396 4.9671387 L 10.28516 5.6518514 A 10.154099 10.153998 0 0 0 9.9771688 6.0445923 C 9.869543 6.1785425 9.7602076 6.3110173 9.6598755 6.4497355 A 10.154099 10.153998 0 0 0 9.3487834 6.9143066 C 9.2492188 7.0692773 9.154309 7.2263421 9.0635295 7.3861125 A 10.154099 10.153998 0 0 0 8.8144491 7.8424154 C 8.7014559 8.0673634 8.6012949 8.297779 8.505424 8.5302287 A 10.154099 10.153998 0 0 0 8.3188721 9.0144368 C 8.2273157 9.2732309 8.1442953 9.5347428 8.0739258 9.8004354 A 10.154099 10.153998 0 0 0 7.9793579 10.205579 C 7.9268634 10.442634 7.883551 10.681353 7.8480998 10.922331 A 10.154099 10.153998 0 0 0 7.7959066 11.300085 C 7.7567706 11.659477 7.7307339 12.021225 7.7302775 12.385807 A 10.154099 10.153998 0 0 0 7.7302775 12.386841 A 10.154099 10.153998 0 0 1 7.7302775 12.387358 A 10.154099 10.153998 0 0 0 7.9865926 14.654403 C 7.4197914 15.002082 6.8675516 15.33909 6.4089111 15.605249 C 5.8036211 15.956536 5.3498661 16.193299 5.0100301 16.357658 C 4.6701881 16.522017 4.4444532 16.613778 4.2555542 16.748848 C 4.0666552 16.883918 3.914669 17.062691 3.843693 17.224272 C 3.772713 17.385854 3.7824616 17.528971 3.8183716 17.640784 C 3.8542816 17.752597 3.9160016 17.830864 3.9827026 17.899683 C 4.0494026 17.968523 4.1209433 18.027829 4.2245483 18.079 C 4.3281513 18.1302 4.4637756 18.172728 4.6141886 18.18752 C 4.7646046 18.20234 4.9298278 18.189168 5.0983968 18.155998 C 5.2669658 18.122848 5.4387917 18.069765 5.5919067 17.986499 C 5.7450237 17.903209 5.8793252 17.789745 5.9681112 17.699178 C 6.0569012 17.608608 6.1000913 17.541443 6.1432943 17.473869 C 6.0140983 17.445609 5.8852478 17.417157 5.7738078 17.378267 C 5.6623628 17.339347 5.5682957 17.289684 5.4911377 17.242875 C 5.4139777 17.196095 5.3533483 17.152284 5.3340413 17.104899 C 5.3147313 17.057539 5.3368104 17.006525 5.4172404 16.951937 C 5.4976504 16.897327 5.63679 16.838999 5.780009 16.79484 C 5.923228 16.75071 6.0704554 16.720911 6.2285604 16.689421 C 6.3866614 16.657941 6.555384 16.624858 7.045048 16.407267 C 7.3605712 16.267049 7.8232078 16.042289 8.3199056 15.798002 A 10.154099 10.153998 0 0 0 13.714925 21.645707 C 13.565678 21.83617 13.404408 22.042175 13.358358 22.095809 C 11.782526 23.930906 8.7633992 19.943395 7.4677612 19.969324 C 7.0434232 19.977824 6.7590177 20.228881 6.6378377 20.639567 C 6.5925377 20.727197 6.5420998 20.756508 6.4884928 20.74447 C 6.4349128 20.73243 6.3781506 20.678918 6.3158936 20.609595 C 6.2536436 20.540275 6.1861038 20.4551 6.1267578 20.350696 C 6.0674178 20.246291 6.0163803 20.122313 5.9655273 19.998779 C 5.9004473 20.051539 5.8354282 20.10472 5.7531372 20.206002 C 5.6708472 20.307285 5.5713564 20.457161 5.5071574 20.620964 C 5.4429574 20.784768 5.4141566 20.962476 5.4058716 21.134111 C 5.3975716 21.305746 5.4098665 21.471275 5.4497965 21.617802 C 5.4897065 21.764354 5.557414 21.891946 5.628597 21.986772 C 5.699777 22.081602 5.7744861 22.143441 5.8585571 22.199162 C 6.0229751 22.308091 6.3598267 22.472631 6.6466227 22.236886 C 6.7616627 22.142326 6.9272489 21.96524 7.0409139 21.758362 C 7.1546049 21.551458 7.2163439 21.314282 7.3370199 20.95376 C 7.5611749 19.909794 10.69419 23.269686 12.284521 23.162927 C 12.507705 23.147955 13.371666 23.31193 14.303003 21.888586 A 10.154099 10.153998 0 0 0 16.065169 22.357808 A 10.154099 10.153998 0 0 0 16.909045 22.481832 C 17.227327 22.515829 17.547094 22.536982 17.86816 22.540743 C 17.873478 22.540805 17.878862 22.541206 17.88418 22.54126 C 17.89133 22.541206 17.898734 22.540812 17.905884 22.540743 C 18.237631 22.537539 18.567716 22.514743 18.896521 22.479248 A 10.154099 10.153998 0 0 0 19.583818 22.380029 C 19.655103 22.367356 19.726243 22.354951 19.797241 22.340755 A 10.154099 10.153998 0 0 0 21.465356 21.888586 C 22.39665 23.311709 23.260674 23.147953 23.483838 23.162927 C 25.074196 23.269686 28.207185 19.909794 28.43134 20.95376 C 28.552017 21.314282 28.613753 21.551485 28.727445 21.758362 C 28.841136 21.965267 29.006696 22.142324 29.121737 22.236886 C 29.408545 22.47263 29.74539 22.308092 29.909802 22.199162 C 29.993882 22.143442 30.068562 22.081599 30.139762 21.986772 C 30.210932 21.891942 30.278876 21.764328 30.318563 21.617802 C 30.358513 21.471249 30.370688 21.305746 30.362488 21.134111 C 30.354288 20.962476 30.325492 20.784768 30.261202 20.620964 C 30.197082 20.457161 30.097508 20.307285 30.015222 20.206002 C 29.932912 20.10472 29.86792 20.051564 29.802832 19.998779 C 29.751982 20.122313 29.700948 20.246291 29.641602 20.350696 C 29.582252 20.4551 29.514722 20.540248 29.452466 20.609595 C 29.390206 20.678915 29.333445 20.732458 29.279867 20.74447 C 29.226267 20.75651 29.175819 20.727198 29.130522 20.639567 C 29.009343 20.228881 28.724937 19.977817 28.300598 19.969324 C 27.00496 19.943364 23.985807 23.93088 22.410002 22.095809 C 22.364091 22.042357 22.201274 21.834342 22.053434 21.645707 A 10.154099 10.153998 0 0 0 23.718966 20.669539 C 23.778586 20.627758 23.837507 20.585469 23.896216 20.542415 A 10.154099 10.153998 0 0 0 24.577828 20.000846 C 24.632935 19.952657 24.683425 19.89935 24.737508 19.849951 A 10.154099 10.153998 0 0 0 25.726595 18.801436 C 25.834905 18.669773 25.945587 18.540276 26.046989 18.403528 A 10.154099 10.153998 0 0 0 26.383919 17.908984 C 26.506269 17.721866 26.621448 17.5312 26.731185 17.33641 A 10.154099 10.153998 0 0 0 26.973031 16.891475 C 27.148528 16.540031 27.309708 16.180853 27.443803 15.809888 C 27.929221 16.048482 28.38438 16.269739 28.693856 16.407267 C 29.18352 16.62486 29.352254 16.657935 29.510343 16.689421 C 29.668458 16.720911 29.815676 16.75071 29.958895 16.79484 C 30.102114 16.839 30.241151 16.897353 30.321663 16.951937 C 30.402093 17.006497 30.423656 17.057538 30.404346 17.104899 C 30.385026 17.152289 30.32505 17.196073 30.247766 17.242875 C 30.170616 17.289655 30.076512 17.339376 29.965096 17.378267 C 29.853627 17.417157 29.724806 17.445619 29.59561 17.473869 C 29.63879 17.541449 29.681996 17.608611 29.770793 17.699178 C 29.859563 17.789748 29.993882 17.903208 30.146997 17.986499 C 30.300085 18.069759 30.471703 18.122872 30.640507 18.155998 C 30.809047 18.189148 30.974431 18.20231 31.124715 18.18752 C 31.275263 18.17273 31.410903 18.130167 31.514355 18.079 C 31.618067 18.0278 31.689526 17.968527 31.756201 17.899683 C 31.822871 17.830863 31.884549 17.752596 31.920532 17.640784 C 31.956512 17.528971 31.966111 17.385853 31.895211 17.224272 C 31.824301 17.062692 31.672262 16.883918 31.48335 16.748848 C 31.294437 16.613752 31.068864 16.522017 30.728874 16.357658 C 30.389149 16.193299 29.935281 15.956537 29.329993 15.605249 C 28.878827 15.343447 28.335053 15.011949 27.778149 14.670422 A 10.154099 10.153998 0 0 0 28.038082 12.386841 C 28.037979 12.01528 28.011171 11.647135 27.970903 11.280965 A 10.154099 10.153998 0 0 0 27.925427 10.950236 C 27.887843 10.688193 27.839994 10.42889 27.782284 10.171472 A 10.154099 10.153998 0 0 0 27.700635 9.8180054 C 27.613871 9.4868868 27.513745 9.1594945 27.394194 8.8392537 A 10.154099 10.153998 0 0 0 27.348201 8.7188477 C 27.225382 8.4021872 27.083764 8.0933906 26.929622 7.7902222 A 10.154099 10.153998 0 0 0 26.747205 7.4548421 C 26.624841 7.2350421 26.49433 7.020185 26.355497 6.8094035 A 10.154099 10.153998 0 0 0 26.145174 6.4952108 C 25.958627 6.2337516 25.760425 5.9798969 25.548311 5.7355672 A 10.154099 10.153998 0 0 0 25.472347 5.6394491 L 26.532747 4.9671387 C 26.66062 5.0195487 26.78741 5.004336 26.914119 4.988326 C 27.27755 4.864872 27.641051 4.7412564 28.023612 4.5408081 C 28.406173 4.3403597 28.807981 4.0629466 29.163078 3.8560954 C 29.518202 3.6492441 29.82653 3.5129631 30.235364 3.3057414 C 30.644171 3.0985462 31.153166 2.8204891 31.493685 2.5016561 C 31.834203 2.1828091 32.006314 1.8232155 31.874023 1.3430705 C 31.818993 1.1434825 31.710812 0.92300206 31.574817 0.71468506 L 31.574817 0.71416829 C 31.427709 0.51344529 31.25964 0.33516467 31.092159 0.21342367 C 30.890811 0.06699166 30.690972 0.0022420045 30.489095 0 C 30.287218 -0.0021999955 30.083299 0.058038468 29.874146 0.16123047 C 29.455813 0.36761947 29.016279 0.74609454 28.678353 1.0557495 C 28.340427 1.3654055 28.104048 1.6060132 27.785384 1.8655192 C 27.46672 2.1250172 27.065412 2.4033328 26.74307 2.6907918 C 26.420701 2.9782354 26.177367 3.2746809 25.933818 3.5713582 C 25.869238 3.6937279 25.806362 3.8168965 25.822713 3.9713338 L 24.578861 4.7521647 A 10.154099 10.153998 0 0 0 24.429517 4.6358927 C 24.207326 4.4481652 23.978634 4.2700548 23.742737 4.1031087 A 10.154099 10.153998 0 0 0 23.404773 3.878833 C 23.205724 3.7495937 23.002989 3.6281228 22.796025 3.5134806 A 10.154099 10.153998 0 0 0 22.452376 3.3274455 C 22.167226 3.1835423 21.87659 3.0514868 21.579561 2.9352214 A 10.154099 10.153998 0 0 0 21.391459 2.8633911 C 21.087162 2.751192 20.777383 2.6561531 20.46335 2.5734863 A 10.154099 10.153998 0 0 0 20.1104 2.490804 C 19.859977 2.4343553 19.607641 2.3876439 19.352824 2.3502441 A 10.154099 10.153998 0 0 0 19.016927 2.3027018 C 18.658598 2.2622997 18.297871 2.2348807 17.934306 2.2329386 A 10.154099 10.153998 0 0 0 17.88418 2.2329386 A 10.154099 10.153998 0 0 0 17.858341 2.2329386 C 17.49377 2.2341506 17.131968 2.2607494 16.77262 2.3006348 A 10.154099 10.153998 0 0 0 16.423287 2.3497274 C 16.174938 2.3860743 15.92902 2.4311932 15.684831 2.4856364 A 10.154099 10.153998 0 0 0 15.302942 2.5745199 C 15.00569 2.652954 14.712484 2.7440068 14.423926 2.8489217 A 10.154099 10.153998 0 0 0 14.142289 2.9564087 C 13.867809 3.065541 13.598325 3.1863618 13.33407 3.3191772 A 10.154099 10.153998 0 0 0 12.936678 3.534668 C 12.751411 3.6383639 12.569859 3.7478883 12.390975 3.8633301 A 10.154099 10.153998 0 0 0 11.996167 4.1258464 C 11.809404 4.2591315 11.629673 4.4031983 11.451497 4.5495931 A 10.154099 10.153998 0 0 0 11.177096 4.7630168 L 9.9161906 3.9713338 C 9.9325706 3.81687 9.8696923 3.6937544 9.8050863 3.5713582 C 9.5615373 3.2746809 9.3176586 2.9782354 8.9953166 2.6907918 C 8.6729746 2.4033298 8.2721837 2.1250152 7.9535197 1.8655192 C 7.6348557 1.6060112 7.3984769 1.3654015 7.0605509 1.0557495 C 6.7226249 0.74609154 6.2830963 0.36761847 5.8647583 0.16123047 C 5.6555913 0.058034468 5.4516938 -0.0022409955 5.2498088 0 z M 5.8177327 1.3720093 C 5.9001827 1.3757093 5.9797951 1.4028675 6.0471761 1.4505575 C 6.2413351 1.5879245 6.2873892 1.8563728 6.1500122 2.0505208 C 6.0126272 2.2446728 5.7436801 2.2907339 5.5495321 2.1533569 C 5.3553731 2.0159879 5.309316 1.7475476 5.446696 1.5533936 C 5.531356 1.4337496 5.6713047 1.3654633 5.8177327 1.3720093 z M 29.921171 1.3720093 C 30.067618 1.3655093 30.207462 1.4337436 30.292208 1.5533936 C 30.429527 1.7475476 30.383058 2.0159909 30.188855 2.1533569 C 29.99473 2.2907369 29.726264 2.2446648 29.588892 2.0505208 C 29.451494 1.8563718 29.497576 1.5879245 29.691728 1.4505575 C 29.759118 1.4028675 29.838727 1.3757093 29.921171 1.3720093 z M 8.2315389 3.0680298 C 8.3140089 3.0717298 8.3936193 3.0989 8.4609823 3.146578 C 8.6551593 3.2839762 8.7011894 3.5528804 8.5638184 3.7470581 C 8.4264464 3.9412623 8.1574892 3.9873453 7.9633382 3.8498942 C 7.7691872 3.7125226 7.7231301 3.4435653 7.8605021 3.2494141 C 7.9451721 3.1297695 8.0851179 3.0614946 8.2315389 3.0680298 z M 27.507365 3.0680298 C 27.653786 3.0614898 27.793736 3.1297693 27.878402 3.2494141 C 28.015774 3.4435653 27.969713 3.7125226 27.775566 3.8498942 C 27.581415 3.9873453 27.312456 3.9412622 27.175085 3.7470581 C 27.037713 3.5528804 27.083766 3.2839762 27.277922 3.146578 C 27.345312 3.0989 27.424894 3.0717338 27.507365 3.0680298 z M 15.007869 3.6938314 L 20.76049 3.6938314 C 20.99658 3.6938314 21.18682 3.884072 21.18682 4.1201619 C 21.18682 4.3562519 20.99658 4.5464925 20.76049 4.5464925 L 15.007869 4.5464925 C 14.77178 4.5464925 14.581539 4.3562519 14.581539 4.1201619 C 14.581539 3.884072 14.77178 3.6938314 15.007869 3.6938314 z M 12.570292 5.5309285 L 23.198067 5.5309285 C 23.439483 5.5309285 23.6337 5.7210891 23.6337 5.9572591 C 23.6337 6.1934291 23.439483 6.3835897 23.198067 6.3835897 L 12.570292 6.3835897 C 12.328877 6.3835897 12.13466 6.1934291 12.13466 5.9572591 C 12.13466 5.7210891 12.328877 5.5309285 12.570292 5.5309285 z M 11.014832 7.3680257 L 24.753528 7.3680257 C 24.994944 7.3680257 25.189677 7.5581863 25.189677 7.7943563 C 25.189677 8.0305263 24.994944 8.2206868 24.753528 8.2206868 L 11.014832 8.2206868 C 10.773415 8.2206868 10.578682 8.0305263 10.578682 7.7943563 C 10.578682 7.5581863 10.773415 7.3680257 11.014832 7.3680257 z M 10.050033 9.2051229 L 25.718327 9.2051229 C 25.959743 9.2051229 26.153959 9.3952835 26.153959 9.6314535 C 26.153959 9.8676225 25.959743 10.057784 25.718327 10.057784 L 10.050033 10.057784 C 9.8086182 10.057784 9.6144002 9.8676225 9.6144002 9.6314535 C 9.6144002 9.3952835 9.8086182 9.2051229 10.050033 9.2051229 z M 9.5839111 11.04222 L 26.184448 11.04222 C 26.425863 11.04222 26.620597 11.232381 26.620597 11.468551 C 26.620597 11.704721 26.425863 11.894881 26.184448 11.894881 L 9.5839111 11.894881 C 9.3424971 11.894881 9.147762 11.70472 9.147762 11.468551 C 9.147762 11.232381 9.3424971 11.04222 9.5839111 11.04222 z M 9.5839111 12.879317 L 26.184448 12.879317 C 26.425863 12.879317 26.620597 13.068961 26.620597 13.305131 C 26.620597 13.5413 26.425863 13.731462 26.184448 13.731462 L 9.5839111 13.731462 C 9.3424971 13.731462 9.147762 13.5413 9.147762 13.305131 C 9.147762 13.068961 9.3424971 12.879317 9.5839111 12.879317 z M 10.050033 14.715898 L 25.718327 14.715898 C 25.959743 14.715898 26.153959 14.906058 26.153959 15.142228 C 26.153959 15.378398 25.959743 15.568559 25.718327 15.568559 L 10.050033 15.568559 C 9.8086172 15.568559 9.6144002 15.378398 9.6144002 15.142228 C 9.6144002 14.906058 9.8086172 14.715898 10.050033 14.715898 z M 11.014832 16.553512 L 24.753528 16.553512 C 24.994944 16.553512 25.189677 16.743673 25.189677 16.979842 C 25.189677 17.216012 24.994944 17.405656 24.753528 17.405656 L 11.014832 17.405656 C 10.773416 17.405656 10.578682 17.216012 10.578682 16.979842 C 10.578682 16.743673 10.773416 16.553512 11.014832 16.553512 z M 12.570292 18.390092 L 23.198067 18.390092 C 23.43948 18.390092 23.6337 18.580253 23.6337 18.816423 C 23.6337 19.052593 23.43948 19.242753 23.198067 19.242753 L 12.570292 19.242753 C 12.328877 19.242753 12.13466 19.052593 12.13466 18.816423 C 12.13466 18.580253 12.328877 18.390092 12.570292 18.390092 z M 15.007869 20.227189 L 20.76049 20.227189 C 20.99658 20.227189 21.18682 20.41743 21.18682 20.65352 C 21.18682 20.88961 20.99658 21.07985 20.76049 21.07985 L 15.007869 21.07985 C 14.77178 21.07985 14.581539 20.88961 14.581539 20.65352 C 14.581539 20.41743 14.77178 20.227189 15.007869 20.227189 z " />
  <path
     id="path18"
     style="fill:#ffffff;fill-opacity:1;stroke-width:0.264583"
     d="M 1.6355591 24.605216 C 0.75129508 24.605216 0.027415509 24.610119 0.027388509 24.616069 C 0.027335509 24.622069 0.070833438 24.713188 0.12402344 24.818123 C 0.46110244 25.483339 0.46120844 27.588042 0.12402344 27.982271 L 0 28.127482 L 1.6117879 28.137817 L 3.2240926 28.148669 L 3.2313273 27.563692 C 3.2356273 27.22285 3.2348088 27.083912 3.2215088 27.063981 L 3.220992 27.063464 L 3.2204753 27.062948 L 3.2199585 27.062431 L 3.2194417 27.061914 L 3.218925 27.061914 L 3.2184082 27.061914 L 3.2178914 27.061914 L 3.2173747 27.061914 L 3.2168579 27.061914 L 3.2163411 27.062431 L 3.2158244 27.062431 L 3.2153076 27.062948 C 3.2088076 27.067648 3.2004394 27.087738 3.1894694 27.118758 C 3.0527064 27.505844 2.757662 27.844328 2.482019 27.931112 C 2.001721 28.082718 1.8930799 28.050856 1.7192749 27.704252 C 1.5181119 27.303144 1.400406 26.38547 1.550293 26.38547 C 1.769103 26.38547 2.0028666 26.560533 2.1145996 26.808183 L 2.181779 26.957528 L 2.425175 26.4573 C 2.59194 26.114653 2.6598058 25.976229 2.6535848 25.950871 L 2.6535848 25.950354 L 2.653068 25.950354 L 2.6525513 25.949837 L 2.6525513 25.94932 L 2.6525513 25.948804 L 2.6520345 25.948287 L 2.6515177 25.94777 L 2.651001 25.94777 L 2.6504842 25.947253 L 2.6499674 25.947253 L 2.6494507 25.947253 L 2.6489339 25.947253 L 2.6484172 25.947253 C 2.6342172 25.947994 2.5956974 25.982706 2.5383464 26.033036 C 2.3569744 26.192315 2.1671449 26.247179 1.7916219 26.249561 L 1.469161 26.251628 L 1.4758789 25.887826 C 1.4832789 25.4873 1.5427293 24.977244 1.5999023 24.826908 C 1.7600023 24.405797 2.8974535 24.908788 2.9941325 25.443408 L 3.0354736 25.672852 L 3.1393433 25.17159 C 3.1963833 24.895815 3.2432129 24.655553 3.2432129 24.637773 C 3.2432129 24.619993 2.5198231 24.605216 1.6355591 24.605216 z M 15.761312 24.617619 L 15.655375 24.677047 C 15.534963 24.744517 15.170188 24.830728 14.856974 24.866182 C 14.740187 24.879412 14.567157 24.900251 14.473018 24.912691 L 14.301969 24.934912 L 14.389819 25.036198 C 14.825747 25.5397 14.867102 27.488691 14.452865 27.998808 L 14.351579 28.123348 L 14.675073 28.111979 C 14.8529 28.105879 15.141715 28.11639 15.316895 28.13575 C 15.717686 28.17941 16.022788 28.186621 16.191777 28.156421 L 16.323035 28.133167 L 16.212964 28.052035 C 15.971161 27.873177 15.820801 27.425982 15.750977 26.675891 C 15.703117 26.16154 15.706346 26.153467 15.958199 26.152409 C 16.470088 26.150309 16.643945 26.495464 16.643945 27.513049 L 16.643945 28.13265 L 16.776754 28.156421 C 16.945187 28.186591 17.938533 28.179666 18.071248 28.147636 L 18.170984 28.123348 L 18.069181 28.058752 C 17.864447 27.928577 17.71738 27.506356 17.615462 26.755473 C 17.536322 26.172593 17.479228 25.988718 17.334342 25.851135 C 16.98705 25.5212 16.268132 25.563578 15.875517 25.937435 L 15.712219 26.092981 L 15.736507 25.355558 L 15.761312 24.617619 z M 27.988989 24.63984 L 27.988989 24.640356 C 27.963109 24.642256 27.923719 24.660358 27.866516 24.681698 C 27.65387 24.760808 27.291892 24.838856 26.996802 24.869283 C 26.612363 24.908703 26.614461 24.907453 26.713098 25.06462 C 26.914551 25.385824 26.978715 25.917651 26.978715 27.269137 L 26.978715 28.136784 L 27.16475 28.159005 C 27.266961 28.170915 27.398329 28.187729 27.456722 28.196729 C 27.630236 28.223189 28.472606 28.180331 28.533142 28.141951 C 28.552462 28.129701 28.563875 28.121067 28.566215 28.115597 L 28.566732 28.11508 L 28.566732 28.114563 C 28.566743 28.114375 28.566748 28.113313 28.566732 28.113013 L 28.566215 28.112496 L 28.565698 28.111979 L 28.565181 28.111462 L 28.564665 28.110946 L 28.564148 28.110429 L 28.563631 28.109912 C 28.557731 28.106612 28.543133 28.105761 28.518673 28.105261 C 28.181435 28.099161 27.965281 27.554937 27.914058 26.58339 C 27.882968 25.994161 28.112794 25.846762 28.546578 26.176697 C 28.933293 26.470912 29.019575 27.604591 28.687655 28.031364 C 28.639505 28.093264 28.618636 28.123894 28.622026 28.1342 L 28.622542 28.134717 L 28.623059 28.135234 L 28.623059 28.13575 L 28.623576 28.136267 L 28.624093 28.136267 L 28.624609 28.136784 L 28.625126 28.136784 C 28.630926 28.139184 28.643326 28.136519 28.661816 28.130583 C 28.699726 28.118673 28.802421 28.088787 28.889709 28.064437 C 29.832631 27.800383 30.253163 26.590306 29.634884 25.920382 C 29.255922 25.509484 28.456617 25.526156 28.031881 25.953455 C 27.990071 25.995415 27.95266 26.022154 27.93783 26.022184 L 27.937313 26.022184 L 27.937313 26.021667 L 27.936796 26.021667 L 27.936279 26.021667 L 27.935763 26.021151 L 27.935246 26.021151 L 27.934729 26.021151 L 27.934212 26.020634 L 27.933695 26.020634 L 27.933179 26.020117 L 27.932662 26.0196 L 27.932662 26.019084 L 27.932662 26.018567 L 27.932145 26.01805 L 27.931628 26.017533 L 27.931628 26.017017 L 27.931628 26.015983 L 27.931628 26.015466 L 27.931628 26.01495 C 27.920148 25.872868 27.947156 25.451499 27.991056 25.084257 C 28.032776 24.735007 28.050607 24.640633 27.994157 24.63984 C 27.992557 24.639805 27.990789 24.639723 27.988989 24.63984 z M 7.8584351 24.970052 L 7.7426799 25.080123 C 7.5878459 25.226622 7.1102145 25.482878 6.6559245 25.663033 L 6.286438 25.809277 L 6.4828084 25.810311 C 6.7517314 25.811611 6.7543925 25.81881 6.7742635 26.576672 C 6.7996135 27.544779 6.9388866 27.918159 7.3530396 28.129032 C 7.6105586 28.26 8.0427103 28.244604 8.5069743 28.087174 C 8.7117423 28.017734 8.8140779 27.978702 8.8278849 27.957983 L 8.8284017 27.957467 L 8.8284017 27.95695 C 8.8285967 27.956421 8.8288125 27.9557 8.8289185 27.9554 L 8.8289185 27.954883 C 8.8289445 27.954089 8.8289555 27.953316 8.8289185 27.952816 L 8.8289185 27.952299 L 8.8289185 27.951782 L 8.8284017 27.951782 L 8.8284017 27.951265 L 8.8278849 27.951265 L 8.8278849 27.950749 C 8.8277099 27.950522 8.8270314 27.948982 8.8268514 27.948682 C 8.8148914 27.938152 8.7597212 27.935246 8.6671712 27.935246 C 8.3172592 27.935246 8.0900315 27.68423 7.9452515 27.138395 C 7.8742915 26.870901 7.7859738 25.964993 7.8217448 25.871806 L 7.8222616 25.871289 C 7.8228377 25.870347 7.8236536 25.868863 7.8243286 25.868188 C 7.8650886 25.832058 8.2808238 25.879183 8.4904378 25.945703 C 8.5260778 25.957003 8.5929864 25.917745 8.6537354 25.849585 L 8.7560547 25.734347 L 8.2920003 25.734347 L 7.827946 25.734347 L 7.8434489 25.351941 L 7.8584351 24.970052 z M 25.506453 25.341089 C 25.214036 25.339989 24.900858 25.471889 24.627437 25.756051 C 24.521154 25.866383 24.46734 25.900795 24.455355 25.865605 C 24.274009 25.329295 23.250734 25.223771 22.727812 25.687321 C 22.630822 25.773171 22.584223 25.81598 22.565031 25.805143 C 22.547501 25.793213 22.553794 25.731833 22.562964 25.611873 L 22.578984 25.402584 L 22.436357 25.476998 C 22.285545 25.555838 21.867761 25.645012 21.455538 25.686287 C 21.319277 25.699777 21.162457 25.720653 21.107239 25.731763 L 21.006986 25.752433 L 21.128426 25.841833 C 21.410551 26.049266 21.916717 27.277149 21.209041 28.125932 L 22.08289 28.105778 C 22.666799 28.092018 23.131231 28.099681 23.114351 28.084591 C 23.097471 28.069241 23.023831 28.009469 22.950537 27.951265 C 22.460026 27.562857 22.328385 25.974642 22.786723 25.974642 C 23.340019 25.974642 23.492713 26.267845 23.516394 27.373006 L 23.532414 28.101644 L 24.28844 28.113013 L 25.044983 28.123865 L 24.908557 27.976587 C 24.749225 27.804343 24.703524 27.656433 24.656376 27.161133 C 24.623836 26.81982 24.564117 26.24169 24.543722 26.070243 C 24.535622 26.002513 24.558051 25.992197 24.743709 25.981877 C 25.314018 25.950127 25.515224 26.345674 25.505937 27.481527 L 25.500769 28.09906 L 25.654765 28.122314 C 25.873337 28.154854 26.508128 28.272238 26.954427 28.121281 C 26.435818 27.750336 26.636474 26.967247 26.522412 26.364799 C 26.424352 25.713395 25.993841 25.342676 25.506453 25.341089 z M 5.0441366 25.548311 C 4.5260296 25.557611 3.9730188 25.709203 3.7346558 26.010299 C 3.2668458 26.600847 3.4830631 26.932474 4.6023031 27.339933 C 5.1907631 27.553981 5.3598942 27.661539 5.4265422 27.863416 C 5.4627822 27.973252 5.4324454 28.042836 5.3557454 28.075806 C 5.8387514 27.937553 6.2113427 27.684132 6.3024577 27.355953 C 6.4180817 26.939499 6.2296869 26.79316 5.1991659 26.497091 C 4.2941059 26.23701 4.1149262 26.109559 4.2379842 25.812378 C 4.3419652 25.561341 5.1208183 25.664806 5.1717773 25.936401 C 5.2371573 26.28507 5.256747 26.327926 5.383134 26.412858 C 5.709312 26.632196 6.1534078 26.429349 6.1639648 26.056291 C 6.1737648 25.710295 5.6313266 25.537781 5.0441366 25.548311 z M 32.193901 25.59637 C 31.975408 25.59897 31.736448 25.69 31.531925 25.884208 C 31.370821 26.037137 31.358965 26.031108 31.373279 25.804626 C 31.385269 25.61492 31.383308 25.611112 31.296798 25.632544 C 31.165618 25.664824 30.463948 25.766068 30.198674 25.790674 L 29.96768 25.811344 L 30.114958 25.978259 C 30.492387 26.404238 30.48217 27.616563 30.097904 28.006559 C 30.036974 28.068469 29.987317 28.135028 29.987317 28.154871 L 29.987317 28.155387 L 29.987317 28.155904 L 29.987317 28.156421 L 29.987834 28.156938 L 29.98835 28.157454 L 29.988867 28.157971 L 29.988867 28.158488 L 29.989384 28.158488 L 29.989901 28.159005 L 29.990417 28.159005 L 29.990417 28.159521 L 29.990417 28.160038 C 30.010607 28.176708 30.128536 28.179459 30.296859 28.166239 C 30.4672 28.152749 30.913258 28.13115 31.288013 28.11818 L 31.969625 28.094409 L 31.836816 28.000875 C 31.381574 27.680729 31.108646 26.201209 31.474565 26.03717 C 31.635617 25.96494 31.709313 26.05437 31.728813 26.345679 C 31.784823 27.183346 32.866211 27.091474 32.866211 26.249044 C 32.866211 25.832061 32.558047 25.591872 32.193901 25.59637 z M 10.462927 25.611873 C 10.427287 25.611873 10.391557 25.61284 10.356474 25.61394 C 9.3039878 25.6485 8.5296258 26.215052 9.1374268 26.574089 C 9.6431248 26.872803 10.317138 26.264271 9.9559814 25.835116 C 9.8298544 25.685229 9.837362 25.678969 10.092924 25.725562 C 10.705328 25.837163 10.775034 26.028211 10.729578 27.479976 L 10.716659 27.882019 L 10.549227 27.915609 C 10.206327 27.983609 9.9376205 27.734618 9.9316935 27.343034 C 9.9274935 27.067603 10.000324 26.997033 10.477397 26.810767 C 10.59402 26.765187 10.651052 26.741198 10.657231 26.732218 L 10.657747 26.731702 L 10.657747 26.731185 L 10.657747 26.730668 L 10.657747 26.730151 L 10.657231 26.730151 L 10.657231 26.729635 L 10.656714 26.729635 L 10.656197 26.729118 L 10.65568 26.729118 C 10.64848 26.726418 10.620148 26.729598 10.572998 26.736869 C 9.705879 26.868632 9.513173 26.906724 9.343099 26.979749 C 8.72154 27.247507 8.7933502 28.031504 9.4521362 28.168823 C 9.6883302 28.218303 10.035395 28.178622 10.343555 28.067537 C 10.74977 27.920958 10.762612 27.920003 10.812777 28.03033 C 10.871617 28.159447 11.019132 28.183206 11.577588 28.153837 C 11.695195 28.147737 11.923418 28.139826 12.185303 28.131616 C 12.138653 28.093776 12.102573 28.057836 12.0835 28.030847 C 11.962744 27.907022 11.878924 27.542691 11.835453 26.939441 C 11.753243 25.798347 11.613772 25.652663 10.570414 25.614457 C 10.534244 25.613157 10.498564 25.611873 10.462927 25.611873 z M 19.595186 25.617558 C 19.562216 25.617558 19.529441 25.618011 19.497001 25.619108 C 19.197149 25.629688 18.921885 25.691418 18.700667 25.781372 C 18.441799 25.900435 18.251624 26.058117 18.18442 26.211837 C 18.14563 26.339895 18.19699 26.469442 18.369421 26.579773 C 18.836966 26.878485 19.460386 26.269952 19.126481 25.8408 C 19.009879 25.690782 19.016814 25.68468 19.253088 25.731246 C 20.031679 25.86539 19.855415 26.859392 19.841683 27.485661 L 19.829797 27.887703 L 19.674768 27.920776 C 19.35777 27.988776 19.10971 27.740301 19.10426 27.348718 C 19.10036 27.073551 19.16753 27.002717 19.608622 26.816451 C 19.710286 26.773481 19.763508 26.748996 19.773987 26.738936 L 19.774504 26.73842 L 19.774504 26.737903 L 19.77502 26.737903 L 19.77502 26.737386 L 19.77502 26.736869 L 19.775537 26.736869 L 19.775537 26.736353 L 19.77502 26.735836 L 19.77502 26.735319 L 19.774504 26.735319 L 19.774504 26.734802 L 19.773987 26.734802 L 19.77347 26.734802 L 19.772953 26.734285 C 19.765353 26.732185 19.739229 26.735554 19.696989 26.742554 C 19.367979 26.796534 19.147637 26.834055 18.986955 26.865544 C 18.655406 26.962384 18.404305 27.100126 18.253149 27.255701 C 18.049869 27.59622 18.199949 28.07001 18.660876 28.173991 C 18.879263 28.223461 19.199696 28.184341 19.484599 28.073222 C 19.682508 27.995962 19.779228 27.959309 19.833415 27.957983 L 19.84375 27.953333 L 19.847367 27.957983 C 19.885097 27.962183 19.899001 27.988928 19.918681 28.035498 C 19.973101 28.164879 20.109279 28.188626 20.625614 28.159521 C 20.734331 28.153221 20.945734 28.145241 21.187854 28.137301 C 21.144704 28.099201 21.110906 28.06327 21.093286 28.036015 C 20.981632 27.91219 20.90455 27.547859 20.86436 26.944609 C 20.81689 26.231825 20.748462 25.907417 20.469035 25.755017 L 20.468518 25.755017 L 20.468001 25.7545 L 20.467485 25.7545 L 20.466968 25.753984 C 20.299037 25.663234 20.055734 25.633913 19.694922 25.619625 C 19.661502 25.618325 19.628156 25.617558 19.595186 25.617558 z M 34.641296 25.639779 C 32.800113 25.634979 32.161913 27.723174 33.880619 28.128516 C 34.42664 28.257368 35.147188 28.060695 35.605579 27.65826 C 35.639889 27.62812 35.662594 27.607645 35.667074 27.598315 L 35.667074 27.597799 L 35.66759 27.597799 L 35.66759 27.597282 L 35.66759 27.596765 L 35.66759 27.596248 L 35.66759 27.595732 L 35.66759 27.595215 L 35.667074 27.595215 L 35.667074 27.594698 L 35.666557 27.594181 L 35.66604 27.593665 L 35.665523 27.593665 L 35.665007 27.593665 C 35.652787 27.589865 35.595507 27.609199 35.473287 27.650509 C 34.587912 27.950547 33.895768 27.468071 33.89974 26.553935 C 33.90304 25.786643 34.330282 25.45228 34.593754 26.010815 C 34.798568 26.444996 34.652275 26.928407 34.250106 27.14563 C 34.195566 27.17504 34.163586 27.196235 34.160706 27.208675 C 34.160635 27.209204 34.160635 27.210759 34.160706 27.211259 L 34.160706 27.211776 L 34.161222 27.212292 L 34.161222 27.212809 L 34.161222 27.213326 L 34.161739 27.213843 L 34.161739 27.21436 L 34.162256 27.21436 C 34.179106 27.23227 34.309063 27.220457 34.599438 27.184387 C 36.093064 26.999443 36.129786 25.644012 34.641296 25.639779 z M 3.6214844 27.2526 L 3.6209676 27.253117 L 3.6204508 27.253117 C 3.5930308 27.257817 3.580528 27.320167 3.552238 27.503231 C 3.528478 27.656954 3.5007598 27.830781 3.4912598 27.889254 C 3.4707298 28.01546 3.5225002 28.04604 3.8938192 28.125415 C 4.3824022 28.23018 4.8894056 28.203465 5.3159546 28.088725 C 5.0843276 28.143415 4.5726221 27.964742 4.1175781 27.616402 C 3.9073401 27.455271 3.7039053 27.300787 3.6654093 27.273271 C 3.6472893 27.260391 3.6336679 27.25193 3.6225179 27.2526 L 3.6220011 27.2526 L 3.6214844 27.2526 z M 24.197489 28.948104 L 24.050728 29.090214 C 23.882744 29.253195 23.315416 29.552655 22.813078 29.742887 L 22.468396 29.873629 L 22.71696 29.892749 L 22.96604 29.911869 L 22.990845 30.639473 C 23.030375 31.790408 23.194476 32.22219 23.674007 32.437297 C 23.892314 32.534927 24.533249 32.49853 24.918376 32.3665 C 25.134815 32.29216 25.257885 32.236604 25.265641 32.215088 L 25.265641 32.214571 L 25.265641 32.214054 L 25.265641 32.213538 L 25.265641 32.213021 L 25.265641 32.212504 L 25.265641 32.211987 L 25.264608 32.211471 L 25.264091 32.210954 L 25.263574 32.210437 L 25.263057 32.20992 L 25.262541 32.209403 L 25.262024 32.208887 C 25.251212 32.203523 25.216482 32.205077 25.157638 32.214571 C 24.587963 32.307171 24.223222 31.634683 24.157182 30.370239 C 24.130802 29.865147 24.112001 29.882332 24.587646 29.973881 C 24.805371 30.015951 24.986155 30.044827 24.989172 30.038477 C 24.992172 30.032177 25.03409 29.970588 25.08219 29.902051 L 25.169523 29.776994 L 24.680147 29.787329 L 24.190255 29.797148 L 24.193355 29.372367 L 24.197489 28.948104 z M 21.093803 29.867944 C 21.058312 29.867946 21.023299 29.868056 20.988383 29.869495 C 19.935898 29.903895 19.161018 30.47112 19.768819 30.83016 C 20.274516 31.128874 20.948503 30.520341 20.587374 30.091187 C 20.461246 29.941168 20.469272 29.935065 20.724833 29.981632 C 21.337211 30.093286 21.406425 30.284278 21.36097 31.736047 L 21.348051 32.13809 L 21.180619 32.171163 C 20.837719 32.239163 20.569503 31.990688 20.563603 31.599105 C 20.559403 31.323938 20.631723 31.253104 21.108789 31.066838 C 21.225412 31.021258 21.28242 30.996713 21.288623 30.987773 L 21.28914 30.987773 L 21.28914 30.987256 L 21.28914 30.986739 L 21.28914 30.986222 L 21.288623 30.985706 L 21.28759 30.985189 L 21.287073 30.985189 C 21.279873 30.982589 21.251034 30.985669 21.203874 30.99294 C 20.336755 31.124702 20.14405 31.16253 19.973975 31.235819 C 19.352417 31.503313 19.424743 32.28731 20.083529 32.424894 C 20.319749 32.474104 20.666243 32.434693 20.97443 32.323608 C 21.380618 32.177028 21.393461 32.175821 21.443652 32.285885 C 21.502492 32.415002 21.649982 32.439274 22.208464 32.409908 C 22.326045 32.403808 22.554294 32.395627 22.816178 32.387687 C 22.769478 32.349587 22.733368 32.313649 22.714376 32.286401 C 22.59362 32.162576 22.5098 31.799027 22.466329 31.195512 C 22.384119 30.054364 22.244674 29.908375 21.20129 29.870011 C 21.165324 29.868718 21.129786 29.868147 21.09432 29.867944 L 21.093803 29.867944 z M 27.068115 29.873629 C 27.032653 29.873634 26.997611 29.874113 26.962695 29.875179 C 25.910237 29.909839 25.135331 30.476805 25.743132 30.835844 C 26.24883 31.134559 26.922843 30.526025 26.561686 30.096871 C 26.435559 29.947117 26.443583 29.94075 26.699146 29.987317 C 27.311524 30.098971 27.380737 30.289963 27.335282 31.741732 L 27.32288 32.143774 L 27.155448 32.176847 C 26.812574 32.244847 26.543815 31.996372 26.537915 31.604789 C 26.533715 31.329622 26.606546 31.258272 27.083618 31.072005 C 27.193576 31.029035 27.250578 31.005027 27.261902 30.995007 L 27.261902 30.994491 L 27.262935 30.993974 L 27.263452 30.993974 L 27.263452 30.993457 L 27.263969 30.99294 L 27.263969 30.992424 L 27.263969 30.991907 L 27.263452 30.991907 L 27.263452 30.99139 L 27.262935 30.99139 L 27.262935 30.990873 L 27.261902 30.990873 L 27.261385 30.990873 C 27.254185 30.988273 27.225863 30.991354 27.178703 30.998625 C 26.311584 31.130388 26.118388 31.168214 25.948287 31.241504 C 25.326754 31.508998 25.399081 32.292996 26.057841 32.430579 C 26.294061 32.479799 26.640583 32.43988 26.948743 32.328776 C 27.354931 32.182197 27.3678 32.18124 27.417965 32.291569 C 27.476835 32.420677 27.624294 32.444698 28.182776 32.415592 C 28.300357 32.409492 28.529149 32.401302 28.791007 32.393372 C 28.744257 32.355272 28.707627 32.319342 28.688688 32.292086 C 28.567932 32.168261 28.484112 31.804192 28.440641 31.20068 C 28.358431 30.05953 28.219479 29.914058 27.176119 29.875696 C 27.140122 29.874402 27.10411 29.873636 27.068632 29.873629 L 27.068115 29.873629 z M 9.2340617 29.875179 C 7.619345 29.860045 6.5469707 30.808268 7.0905233 31.912781 C 7.3851373 32.511533 8.3543759 32.65667 8.9617269 32.193384 C 9.1365639 32.060034 9.1365909 32.606498 8.9617269 33.280656 C 8.9111969 33.475389 8.9113395 33.475617 9.0108195 33.447571 C 9.0655395 33.432221 9.3974312 33.422697 9.7482422 33.425867 L 10.385929 33.432068 L 10.335803 33.311145 C 10.162554 32.892839 10.16181 30.863691 10.33477 30.017289 C 10.35673 29.909868 10.35356 29.907147 10.2309 29.932023 C 10.16155 29.946043 9.9458378 29.936513 9.7513428 29.911353 C 9.5740102 29.888096 9.4015075 29.876777 9.2345785 29.875179 L 9.2340617 29.875179 z M 16.223816 29.922721 C 14.153401 29.92391 13.504061 32.204671 15.560807 32.47347 C 16.013244 32.53246 16.404478 32.458682 16.855302 32.230074 C 17.113814 32.099161 17.342093 31.952116 17.350362 31.921049 L 17.350362 31.920532 L 17.350362 31.920015 L 17.350362 31.919499 L 17.350362 31.918982 L 17.349329 31.918982 L 17.349329 31.918465 L 17.348812 31.918465 L 17.348812 31.917948 L 17.348295 31.917948 L 17.347778 31.917432 C 17.342378 31.915032 17.327396 31.917206 17.301786 31.9257 C 16.464671 32.202718 15.779233 31.998761 15.518433 31.394983 C 15.222867 30.710506 15.572852 29.789238 16.008325 30.104622 C 16.465922 30.436145 16.31944 31.274978 15.770614 31.46733 L 15.617651 31.521073 L 15.866215 31.522107 C 17.624583 31.529207 18.066838 29.984068 16.323551 29.924272 C 16.290145 29.922978 16.257056 29.922724 16.224333 29.922721 L 16.223816 29.922721 z M 11.840621 29.966646 C 11.831421 29.96744 11.821058 29.969414 11.809098 29.971814 C 11.756448 29.982134 11.515334 29.999952 11.273214 30.012122 C 10.704477 30.040222 10.493954 30.059963 10.47843 30.091703 L 10.477913 30.09222 L 10.477397 30.09222 L 10.477397 30.092737 L 10.477397 30.093254 L 10.477913 30.093254 L 10.477913 30.09377 L 10.47843 30.094287 L 10.47843 30.094804 C 10.479409 30.102704 10.49063 30.111766 10.51047 30.121676 C 10.751029 30.241532 10.839283 30.507525 10.892358 31.27561 C 10.951068 32.125452 11.05747 32.338624 11.478369 32.447632 C 11.889055 32.55373 12.466314 32.422362 12.762012 32.155143 C 12.842652 32.082453 12.914559 32.027663 12.929443 32.025952 L 12.92996 32.025952 L 12.930477 32.025952 L 12.930994 32.026469 C 12.936494 32.034669 12.975353 32.127871 13.017293 32.233175 C 13.109603 32.46495 13.193225 32.480449 13.924215 32.40319 C 14.41941 32.3508 14.414828 32.352759 14.277165 32.244543 C 14.018085 32.040813 13.878383 31.505273 13.853935 30.625004 C 13.841105 30.162793 13.82523 29.996439 13.79399 29.989901 C 13.793729 29.989867 13.79274 29.989912 13.79244 29.989901 C 13.791615 29.989932 13.789732 29.990221 13.788822 29.990417 C 13.763152 29.999117 13.441046 30.018746 13.072587 30.033826 C 12.570804 30.054326 12.409238 30.059097 12.393042 30.078267 L 12.393042 30.078784 L 12.393042 30.079818 L 12.392525 30.080334 L 12.392525 30.080851 C 12.392494 30.081105 12.392516 30.082102 12.392525 30.082402 C 12.392573 30.082667 12.392936 30.083969 12.393042 30.084469 L 12.393042 30.084985 C 12.398942 30.095275 12.430003 30.109294 12.467973 30.129944 C 12.649583 30.228374 12.759089 30.471616 12.803353 30.875635 C 12.931888 32.048797 12.944308 31.94637 12.670544 31.94637 C 12.08854 31.94637 11.9047 31.617551 11.9047 30.576945 C 11.9047 30.031639 11.904731 29.963459 11.840621 29.967163 L 11.840621 29.966646 z M 8.5007731 29.992485 C 8.8154681 29.981105 9.1562938 30.712189 9.1219238 31.677653 L 9.1100382 32.003215 L 8.8599243 32.014583 C 8.2439483 32.041833 7.8946018 31.272064 8.1462728 30.442069 C 8.2396128 30.134359 8.3678991 29.997514 8.5007731 29.992485 z " />
</svg>
