<?xml version="1.0" encoding="UTF-8" standalone="no"?>
<svg
   width="340.67526"
   height="280.27206"
   viewBox="0 0 340.67527 280.27207"
   fill="none"
   version="1.1"
   id="svg1"
   sodipodi:docname="EHQALogoCropped.svg"
   inkscape:version="1.4.2 (f4327f4, 2025-05-13)"
   xmlns:inkscape="http://www.inkscape.org/namespaces/inkscape"
   xmlns:sodipodi="http://sodipodi.sourceforge.net/DTD/sodipodi-0.dtd"
   xmlns="http://www.w3.org/2000/svg"
   xmlns:svg="http://www.w3.org/2000/svg">
  <sodipodi:namedview
     id="namedview1"
     pagecolor="#ffffff"
     bordercolor="#000000"
     borderopacity="0.25"
     inkscape:showpageshadow="2"
     inkscape:pageopacity="0.0"
     inkscape:pagecheckerboard="0"
     inkscape:deskcolor="#d1d1d1"
     inkscape:zoom="0.94894713"
     inkscape:cx="-237.10489"
     inkscape:cy="-66.916268"
     inkscape:window-width="1920"
     inkscape:window-height="991"
     inkscape:window-x="-9"
     inkscape:window-y="-9"
     inkscape:window-maximized="1"
     inkscape:current-layer="layer1"
     showgrid="false" />
  <defs
     id="defs1">
    <clipPath
       id="clip0_55_53">
      <rect
         width="106.423"
         height="144"
         fill="#ffffff"
         id="rect1"
         x="0"
         y="0" />
    </clipPath>
  </defs>
  <g
     inkscape:groupmode="layer"
     id="layer1"
     inkscape:label="Layer 1"
     transform="translate(-11.000079,-47.000001)">
    <path
       d="m 28.656606,47.000769 c -2.442576,0.02721 -4.86143,0.809382 -7.298145,2.581016 -2.025817,1.47292 -4.060661,3.633217 -5.839796,6.061736 l -0.0031,0.0054 c -1.646262,2.520427 -2.952111,5.185385 -3.617126,7.600173 -1.599866,5.809161 0.479461,10.158406 4.599112,14.016015 4.119657,3.857517 10.27896,7.222888 15.225347,9.729709 4.946387,2.506819 8.678065,4.154773 12.974617,6.657434 4.296266,2.502659 9.156573,5.859066 13.785117,8.284258 4.628865,2.42519 9.025645,3.91949 13.422747,5.41347 1.532712,0.19335 3.066382,0.38285 4.613179,-0.2513 l 13.139125,8.33004 c -19.934877,22.44746 -30.960603,51.41755 -30.994213,81.43922 0.10309,9.18636 1.235965,18.33236 3.377855,27.26648 -6.953861,4.26613 -13.739981,8.40652 -19.363156,11.66978 -7.323305,4.25017 -12.814528,7.11869 -16.92615,9.10728 -4.111686,1.98853 -6.843485,3.09712 -9.128947,4.73129 -2.285462,1.63416 -4.124689,3.79498 -4.983421,5.74993 -0.858743,1.9549 -0.738716,3.68481 -0.304269,5.03765 0.434445,1.3528 1.181817,2.29937 1.988818,3.13201 0.807,0.83293 1.674015,1.55159 2.927523,2.17069 1.253474,0.61942 2.892911,1.13862 4.712734,1.3176 1.819854,0.17921 3.819837,0.0192 5.859323,-0.38318 2.039485,-0.40113 4.118378,-1.04198 5.970885,-2.04938 1.852535,-1.00777 3.478273,-2.38073 4.552483,-3.47646 1.07421,-1.09575 1.597182,-1.913 2.119899,-2.7306 -1.563154,-0.34186 -3.126307,-0.68438 -4.474602,-1.15495 -1.348357,-0.47089 -2.4823,-1.06983 -3.41582,-1.6361 -0.933487,-0.566 -1.666423,-1.09836 -1.900012,-1.67166 -0.233619,-0.57301 0.0329,-1.18633 1.00577,-1.84676 0.972831,-0.6607 2.651962,-1.36816 4.384745,-1.90241 1.732783,-0.534 3.518771,-0.89441 5.431649,-1.27535 1.912849,-0.38094 3.951565,-0.78207 9.875936,-3.41467 3.874673,-1.72188 9.586807,-4.49924 15.698445,-7.50605 5.576404,15.54317 14.229117,29.80267 25.441149,41.92643 11.211713,12.12338 24.752583,21.86227 39.813683,28.63427 -1.87236,2.3887 -3.98448,5.09335 -4.56773,5.77265 -19.06573,22.20253 -55.592149,-26.04619 -71.267868,-25.73247 -5.134005,0.10309 -8.576523,3.14035 -10.042649,8.10917 -0.548039,1.06022 -1.158498,1.41554 -1.807051,1.26989 -0.648298,-0.14561 -1.334048,-0.79163 -2.087279,-1.63031 -0.753198,-0.83872 -1.572853,-1.87111 -2.290871,-3.13428 -0.717987,-1.26315 -1.333503,-2.75905 -1.948765,-4.2537 -0.787418,0.63831 -1.574581,1.27762 -2.570205,2.50301 -0.995653,1.22541 -2.199478,3.03725 -2.976206,5.01905 -0.776727,1.98184 -1.127477,4.13365 -1.227737,6.21024 -0.100232,2.07661 0.04984,4.07762 0.532671,5.85043 0.48283,1.77311 1.299733,3.31767 2.16097,4.46495 0.861238,1.1473 1.76633,1.89734 2.783497,2.57149 1.989258,1.31791 6.063844,3.30583 9.533733,0.45361 1.391861,-1.1441 3.399301,-3.28376 4.774516,-5.78672 1.375534,-2.5033 2.119161,-5.37121 3.579207,-9.73307 2.712015,-12.63082 40.616526,28.01579 59.857687,26.72414 2.7197,-0.18256 13.30879,1.83265 24.66935,-15.79161 13.74863,5.31936 28.34204,8.12069 43.08302,8.27019 14.75635,-0.11162 29.37152,-2.88138 43.14575,-8.17608 11.33687,17.5196 21.89203,15.51534 24.60661,15.6975 19.24147,1.29165 57.14565,-39.35496 59.85768,-26.72414 1.46003,4.36186 2.20366,7.22977 3.5792,9.73276 1.37552,2.50327 3.38265,4.64293 4.77451,5.78703 3.47005,2.85226 7.54448,0.8643 9.53368,-0.45361 1.01732,-0.67415 1.92228,-1.42419 2.7837,-2.57149 0.86112,-1.14726 1.67933,-2.69184 2.1595,-4.46463 0.48339,-1.77313 0.63384,-3.77414 0.5346,-5.85071 -0.0993,-2.07663 -0.45135,-4.2284 -1.22924,-6.21024 -0.77563,-1.98184 -1.9796,-3.79368 -2.97515,-5.01909 -0.99588,-1.22539 -1.78273,-1.86438 -2.5702,-2.50297 -0.61527,1.49461 -1.23085,2.99051 -1.94886,4.25367 -0.71803,1.26319 -1.53785,2.29524 -2.29107,3.13427 -0.75323,0.83868 -1.43892,1.485 -2.08715,1.63032 -0.64856,0.14562 -1.25901,-0.20967 -1.80704,-1.26989 -1.46614,-4.96882 -4.90866,-8.00607 -10.04266,-8.10883 -15.67571,-0.31403 -52.20212,47.93465 -71.26754,25.73243 -0.573,-0.6671 -2.65152,-3.33017 -4.4832,-5.66666 15.06877,-6.7381 28.625,-16.44366 39.85943,-28.53696 11.23446,-12.09367 19.91693,-26.32724 25.52823,-41.85057 5.87314,2.88679 11.37912,5.56263 15.12351,7.22658 5.92437,2.63263 7.9632,3.03373 9.87586,3.41467 1.91301,0.38094 3.69895,0.74139 5.43173,1.27535 1.73277,0.53425 3.41307,1.24205 4.38717,1.90244 0.97315,0.66009 1.23565,1.27372 1.00197,1.84673 -0.2337,0.57334 -0.96355,1.10566 -1.8986,1.67197 -0.93347,0.56596 -2.06764,1.16618 -3.41564,1.63675 -1.34864,0.47057 -2.91144,0.81213 -4.47457,1.154 0.52244,0.81759 1.04549,1.63484 2.11981,2.73059 1.07398,1.09573 2.69985,2.46869 4.55236,3.47646 1.85219,1.0074 3.92974,1.64955 5.97205,2.05033 2.03915,0.40107 4.03986,0.56118 5.85812,0.38223 1.82144,-0.17903 3.46044,-0.69721 4.71208,-1.31632 1.25486,-0.61943 2.12237,-1.33904 2.92907,-2.17197 0.80667,-0.83264 1.55255,-1.77921 1.9879,-3.13201 0.43538,-1.35282 0.5538,-3.08272 -0.30409,-5.03765 -0.85793,-1.95495 -2.69858,-4.11572 -4.98419,-5.74993 -2.28563,-1.6345 -5.01622,-2.74274 -9.12968,-4.73129 -4.11029,-1.98856 -9.60251,-4.85711 -16.92578,-9.10728 -5.46692,-3.17235 -12.05585,-7.19106 -18.80453,-11.32983 2.09964,-9.05222 3.16594,-18.31379 3.17746,-27.60643 -0.009,-30.09401 -11.0622,-59.13806 -31.0646,-81.6223 l 12.85103,-8.14693 c 1.54711,0.63415 3.08047,0.44496 4.6135,0.2513 4.3971,-1.49366 8.79387,-2.98828 13.42241,-5.41347 4.62855,-2.425194 9.48918,-5.781602 13.78545,-8.284261 4.29657,-2.50266 8.02816,-4.150292 12.97459,-6.657434 4.94608,-2.506821 11.10509,-5.87219 15.22498,-9.729707 4.11988,-3.857673 6.20064,-8.206824 4.60006,-14.016016 -0.66585,-2.414788 -1.97191,-5.079778 -3.61731,-7.600174 l -0.004,-0.0054 c -1.77985,-2.428519 -3.81257,-4.588849 -5.8389,-6.06178 -2.43608,-1.771657 -4.85614,-2.5539 -7.29863,-2.581029 -2.44248,-0.02722 -4.90929,0.700299 -7.43979,1.948786 -5.06135,2.497058 -10.38006,7.076817 -14.46856,10.823284 -4.08852,3.746467 -6.94618,6.658298 -10.80166,9.798021 -3.85546,3.139623 -8.70743,6.506307 -12.60741,9.984229 -3.90027,3.477732 -6.84693,7.066862 -9.79358,10.656313 -0.7814,1.480533 -1.54487,2.969068 -1.34705,4.837579 l -15.07678,9.465479 c -22.39736,-19.648368 -51.1722,-30.487467 -80.9669,-30.499376 -29.85618,0.02273 -58.68223,10.91695 -81.0906,30.646606 h -9.6e-4 L 85.114811,95.049886 C 85.312963,93.181052 84.548528,91.692197 83.766807,90.211345 80.820147,86.621896 77.873167,83.032764 73.973205,79.555033 70.073242,76.077078 65.221257,72.710364 61.365792,69.57077 57.510325,66.431018 54.652657,63.519187 50.564148,59.772751 46.475637,56.026253 41.156955,51.446557 36.095552,48.949509 c -2.530671,-1.248556 -4.996324,-1.97589 -7.4389,-1.948771 z m 6.868358,16.597005 c 0.997606,0.04474 1.96176,0.374728 2.776997,0.95164 2.349101,1.661973 2.906069,4.91351 1.243967,7.262482 -1.662196,2.349005 -4.914535,2.906037 -7.263507,1.243935 -2.3491,-1.662004 -2.905012,-4.913381 -1.242879,-7.262419 1.024241,-1.44756 2.713809,-2.274835 4.485422,-2.195638 z m 291.624026,0 c 1.77184,-0.07919 3.46237,0.747982 4.4877,2.195573 1.66138,2.349039 1.10439,5.60048 -1.24526,7.262453 -2.34868,1.662133 -5.6001,1.105037 -7.26213,-1.243935 -1.66235,-2.348973 -1.10632,-5.600447 1.2427,-7.26242 0.81531,-0.576943 1.77951,-0.906919 2.77699,-0.951671 z M 176.84983,82.147997 c 0.78749,-0.03072 1.59289,0.166144 2.31603,0.613981 1.92806,1.194029 2.51804,3.707893 1.32401,5.635947 l -50.14828,80.969595 c -1.19435,1.92805 -3.70726,2.5193 -5.63531,1.32496 -1.92837,-1.19402 -2.51931,-3.70789 -1.32528,-5.63626 l 50.14859,-80.969286 c 0.74619,-1.204912 2.0084,-1.888038 3.32024,-1.938937 z m 15.41707,0.921291 c 0.78684,-0.03937 1.5945,0.147887 2.32243,0.587731 1.94117,1.172904 2.56028,3.680043 1.3877,5.621223 l -40.52466,67.089728 c -1.17257,1.94149 -3.67972,2.56059 -5.62121,1.38802 -1.94119,-1.17259 -2.55932,-3.67972 -1.38675,-5.62122 l 40.52371,-67.08973 c 0.73273,-1.213237 1.98726,-1.910128 3.29878,-1.975752 z M 64.727271,84.118306 c 0.997799,0.04483 1.961987,0.375816 2.777,0.952661 2.349324,1.662358 2.906004,4.913128 1.243967,7.262453 -1.662038,2.349645 -4.914408,2.906965 -7.263413,1.243967 -2.349004,-1.662038 -2.906004,-4.914406 -1.243966,-7.263411 1.024369,-1.447562 2.714896,-2.274738 4.486412,-2.19567 z m 233.220489,0 c 1.77153,-0.07907 3.46109,0.748108 4.48545,2.19567 1.66204,2.349005 1.10505,5.601373 -1.24396,7.263411 -2.34901,1.662998 -5.60137,1.105678 -7.26341,-1.243967 -1.66203,-2.349325 -1.10407,-5.600095 1.24495,-7.262453 0.81532,-0.576845 1.77918,-0.907845 2.77697,-0.952661 z m -140.41559,0.592213 c 0.78715,-0.03393 1.59288,0.159424 2.31795,0.604057 1.93317,1.186027 2.53499,3.69765 1.34897,5.631146 L 103.692,184.69782 c -1.18602,1.93319 -3.697647,2.53469 -5.63082,1.34898 -1.933496,-1.18603 -2.534993,-3.69668 -1.348967,-5.62988 L 154.22025,86.663541 c 0.74139,-1.208114 2.00008,-1.896361 3.31192,-1.953022 z m 50.26,1.371694 c 0.6671,0.01952 1.33327,0.205512 1.93893,0.573965 1.93796,1.178344 2.50233,3.763914 1.26572,5.797606 l -29.73388,48.900136 c -1.2366,2.03337 -3.79273,2.72195 -5.7307,1.54361 -1.93767,-1.17835 -2.50202,-3.76392 -1.26541,-5.79729 L 204.0007,88.199774 c 0.85023,-1.397943 2.32373,-2.160458 3.79147,-2.117561 z m 12.6887,4.934894 c 0.78686,-0.03713 1.5945,0.15429 2.32117,0.596373 1.93765,1.178986 2.54844,3.686767 1.36945,5.624423 l -18.84134,30.966007 c -1.17866,1.93767 -3.68772,2.54844 -5.62539,1.36946 -1.93764,-1.17866 -2.54747,-3.68772 -1.36848,-5.62539 l 18.84037,-30.966008 c 0.73691,-1.210995 1.9924,-1.903402 3.30422,-1.964865 z m -85.73739,2.428394 c 0.78717,-0.02912 1.59258,0.169019 2.31476,0.618141 1.92581,1.197871 2.51195,3.712695 1.3144,5.638509 L 74.849952,201.83296 c -1.19755,1.92581 -3.712375,2.51195 -5.638187,1.31438 -1.926132,-1.19786 -2.511302,-3.71268 -1.313433,-5.63849 L 131.41973,95.378035 c 0.74875,-1.203632 2.01161,-1.884198 3.32375,-1.932534 z m 97.89217,4.502737 c 0.0904,-0.0016 0.18127,-9.59e-4 0.27179,0.0031 0.6591,0.02978 1.32109,0.220239 1.92836,0.585811 1.9431,1.1697 2.56606,3.675561 1.39665,5.618651 l -4.41533,7.33416 c -1.16938,1.9431 -3.67558,2.56605 -5.61867,1.39634 -1.9431,-1.16938 -2.56539,-3.67556 -1.3957,-5.61866 l 4.41407,-7.33415 c 0.75387,-1.25229 2.06315,-1.956542 3.41883,-1.985353 z m 19.36857,8.629662 c 1.37874,0.0343 2.67167,0.71322 3.39642,1.93158 1.15946,1.94918 0.40976,4.51874 -1.68028,5.76303 L 75.273465,220.49792 c -2.090353,1.24334 -4.706333,0.67481 -5.86579,-1.27438 -1.159457,-1.94919 -0.410068,-4.51971 1.680284,-5.76305 L 249.53486,107.23606 c 0.78395,-0.46609 1.64217,-0.67865 2.46936,-0.65816 z m -145.48336,4.33948 c 0.78716,-0.0352 1.59353,0.15719 2.31923,0.60086 1.93478,1.18282 2.54044,3.69349 1.35761,5.62858 L 74.390906,175.717 c -1.182825,1.9351 -3.692526,2.5398 -5.627623,1.35665 -1.934776,-1.18282 -2.540433,-3.69253 -1.357608,-5.62761 l 35.806795,-58.57019 c 0.73915,-1.2094 1.99656,-1.89989 3.30839,-1.95847 z m 156.03402,6.48714 c 1.37874,0.0343 2.67265,0.71321 3.39738,1.93126 1.15946,1.9495 0.40976,4.51873 -1.68027,5.76206 L 79.920254,234.6707 c -2.09035,1.24364 -4.707292,0.67509 -5.867068,-1.27409 -1.159457,-1.9495 -0.410067,-4.51971 1.680284,-5.763 l 184.35302,-109.5719 c 0.78364,-0.46641 1.64122,-0.67768 2.46839,-0.65719 z m 9.23726,12.25784 c 1.37872,0.0343 2.67263,0.71322 3.39705,1.93126 1.15979,1.94919 0.40975,4.51874 -1.67995,5.76303 L 84.88204,249.67001 c -2.090352,1.24334 -4.706334,0.67481 -5.86579,-1.27438 -1.159457,-1.94919 -0.410068,-4.51971 1.680285,-5.76302 L 269.3234,130.31956 c 0.78395,-0.46641 1.64124,-0.67768 2.46874,-0.6572 z m 8.64694,12.65703 c 1.37873,0.0343 2.67264,0.71322 3.39739,1.93158 1.15946,1.94918 0.41005,4.51841 -1.68031,5.76175 L 93.063542,262.49927 c -2.090353,1.24332 -4.706332,0.67479 -5.865791,-1.27437 -1.159456,-1.94919 -0.410067,-4.5194 1.680286,-5.76276 L 277.97066,142.97658 c 0.78396,-0.46608 1.64125,-0.67767 2.46842,-0.65719 z m 6.60974,14.39719 c 1.37875,0.0343 2.67263,0.7132 3.39738,1.93155 1.15946,1.94919 0.41007,4.51845 -1.68028,5.76177 L 102.8453,274.47349 c -2.09035,1.24334 -4.706334,0.67481 -5.865791,-1.27438 -1.159457,-1.94919 -0.410067,-4.51937 1.680284,-5.76302 L 284.57912,157.37378 c 0.78396,-0.4661 1.64252,-0.67802 2.4697,-0.6572 z m 4.44639,15.62928 c 0.65944,-0.0242 1.31376,0.11203 1.90661,0.39409 0.7113,0.33866 1.33328,0.88606 1.76576,1.61847 1.15271,1.95304 0.5077,4.45411 -1.44532,5.60716 l -94.71599,55.90683 c -1.95301,1.15303 -4.45408,0.50803 -5.60682,-1.44536 -1.15303,-1.953 -0.50801,-4.45311 1.44533,-5.60583 l 94.71662,-55.90715 c 0.61046,-0.36012 1.27437,-0.54418 1.93381,-0.56821 z m 0.49683,17.49463 c 0.65976,-0.0233 1.31439,0.1142 1.90661,0.39727 0.71096,0.33961 1.33264,0.88862 1.7635,1.62168 1.14986,1.95494 0.50001,4.45408 -1.45492,5.60395 l -85.0357,51.22003 c -1.95493,1.14984 -4.45408,0.50225 -5.60393,-1.45268 -1.14953,-1.95496 -0.50099,-4.45409 1.45396,-5.60395 l 85.0357,-51.22033 c 0.6111,-0.35918 1.27534,-0.54293 1.93478,-0.56597 z m -0.68314,18.33875 c 0.65977,-0.0149 1.31312,0.12991 1.90213,0.42031 0.70683,0.34798 1.32079,0.90529 1.74304,1.64346 1.12647,1.9684 0.44848,4.45985 -1.51992,5.58635 l -75.50746,45.56231 c -1.9684,1.12647 -4.45985,0.44844 -5.58635,-1.51994 -1.12647,-1.96867 -0.4475,-4.46014 1.5212,-5.58662 l 75.50619,-45.56231 c 0.61525,-0.35182 1.28142,-0.52885 1.94117,-0.54356 z m -4.7681,20.892 c 0.75034,0 1.48214,0.19527 2.11563,0.56629 0.57588,0.33741 1.07143,0.81982 1.4258,1.43347 1.13448,1.96391 0.38831,4.50306 -1.67261,5.69357 l -62.73422,38.28029 c -2.06093,1.19086 -4.63401,0.56856 -5.76849,-1.39536 -1.13448,-1.96389 -0.38797,-4.50307 1.67292,-5.69356 l 62.73425,-38.28064 c 0.70841,-0.40879 1.47668,-0.60406 2.22672,-0.60406 z m -109.81421,10.0689 4.7886,-3.1e-4 h 9.6e-4 l 9.5e-4,3.1e-4 4.7886,-3.1e-4 c 1.54744,0.0944 3.173,1.1194 4.19641,2.81733 l 32.21125,53.33786 c 1.18603,1.92934 0.37293,4.46242 -1.71518,5.34051 -1.61144,0.67799 -3.7239,-0.009 -4.72041,-1.53402 -5.45092,-8.34247 -20.84749,-32.67988 -32.03008,-48.96508 -0.74331,-1.08232 -1.73662,-1.63771 -2.73059,-1.66076 h -9.5e-4 -9.6e-4 c -0.99365,0.0223 -1.98728,0.57844 -2.73057,1.66076 -11.18259,16.2852 -26.57917,40.62261 -32.03009,48.96512 -0.99652,1.52374 -3.10896,2.21199 -4.72042,1.53398 -2.08778,-0.87806 -2.90121,-3.41113 -1.71486,-5.34047 l 32.21095,-53.3379 c 1.02372,-1.69793 2.64896,-2.72292 4.19639,-2.81702 z m 99.95241,14.06358 c 0.65977,-0.004 1.31025,0.15551 1.8938,0.45685 0.69978,0.3614 1.3032,0.9299 1.71134,1.67577 1.08904,1.98951 0.36462,4.46753 -1.62491,5.55627 l -44.32281,27.20911 c -1.9895,1.08875 -4.46817,0.36365 -5.5572,-1.62618 -1.0887,-1.98952 -0.36236,-4.46845 1.62747,-5.5572 l 44.32154,-27.20911 c 0.62165,-0.34029 1.29101,-0.50358 1.95077,-0.50551 z m -129.30537,2.08844 c 0.78717,-0.0371 1.59449,0.15438 2.32115,0.59642 1.93766,1.17898 2.54844,3.68675 1.36977,5.62441 l -18.84164,30.96603 c -1.17867,1.93764 -3.68773,2.5484 -5.62539,1.36944 -1.93734,-1.17867 -2.54716,-3.68774 -1.36849,-5.62539 l 18.84037,-30.96601 c 0.7369,-1.21099 1.99272,-1.90374 3.30423,-1.9649 z m 34.08202,8.57012 c 0.78748,-0.0168 1.58938,0.19398 2.30482,0.65404 1.9079,1.22665 2.45657,3.74917 1.22987,5.65675 l -22.8386,35.68194 c -1.22635,1.9079 -3.74886,2.45654 -5.65675,1.22986 -1.90756,-1.22668 -2.45528,-3.75012 -1.22892,-5.65768 l 22.83765,-35.68227 c 0.76667,-1.19211 2.03913,-1.85379 3.35193,-1.88264 z m -61.45026,7.7529 c 0.0903,0 0.18087,0 0.27178,0.004 0.65911,0.0287 1.32079,0.22025 1.92805,0.58548 1.9431,1.16971 2.56636,3.67589 1.39666,5.61898 l -4.41502,7.33384 c -1.1697,1.9431 -3.67589,2.56636 -5.61898,1.39665 -1.94311,-1.16969 -2.56509,-3.67586 -1.39571,-5.61897 l 4.41407,-7.33383 c 0.75387,-1.25229 2.06346,-1.95654 3.41915,-1.98568 z m 72.0451,5.56905 v 10e-4 c 0.69177,0.0192 1.38962,0.21287 2.02538,0.59957 1.93764,1.17899 2.54844,3.68711 1.36977,5.62443 l -14.56492,24.51569 c -1.17898,1.93765 -3.68804,2.54844 -5.62538,1.36949 -1.93766,-1.17867 -2.54748,-3.68808 -1.3685,-5.62539 l 14.56364,-24.51569 c 0.73691,-1.21101 1.99271,-1.90342 3.30422,-1.96487 0.0986,-0.005 0.19687,-0.005 0.29579,-0.004 z m 9.55415,14.58984 c 0.39504,-10e-4 1.06792,0.0579 1.85475,0.4741 2.00489,1.06088 2.76579,3.52899 1.70525,5.53353 l -6.42887,11.62656 c -1.06054,2.00492 -3.52862,2.76484 -5.5335,1.70429 -2.00456,-1.06085 -2.76451,-3.52766 -1.70397,-5.53251 l 6.42758,-11.62659 c 0.68377,-1.29202 1.95238,-2.06797 3.30424,-2.17168 v -10e-4 c 9.6e-4,0.0192 0.13795,-0.005 0.37452,-0.005 z"
       fill="#062e32"
       id="path1"
       sodipodi:nodetypes="scccccsccccccccsssscccscsccccccsccscccccsscssscscscccccccccccccscccscccccccccsccccccccccccssccccccccscccccccscsccccccccccccccscccccccccccccsccccccsscccccsccccccccccccccccccccsccccccsccccccccccccccccccscccccccsccscccccccccccccccccccccccsccccsccsccccsccsccccccccccccccccccccccccccccccsccccsccsccccccccccscscccccccccccccccccccccccsscccccscccccscccccccccccccccccccccccc"
       style="fill:#ffffff;stroke-width:3.20115" />
  </g>
</svg>
