<?xml version="1.0" encoding="UTF-8" standalone="no"?>
<!-- Created with Inkscape (http://www.inkscape.org/) -->

<svg
   width="37.756313mm"
   height="35.317471mm"
   viewBox="0 0 37.756313 35.317471"
   version="1.1"
   id="svg1"
   inkscape:version="1.4.3 (0d15f75, 2025-12-25)"
   sodipodi:docname="EHQALogo5.svg"
   xmlns:inkscape="http://www.inkscape.org/namespaces/inkscape"
   xmlns:sodipodi="http://sodipodi.sourceforge.net/DTD/sodipodi-0.dtd"
   xmlns="http://www.w3.org/2000/svg"
   xmlns:svg="http://www.w3.org/2000/svg">
  <sodipodi:namedview
     id="namedview1"
     pagecolor="#ffffff"
     bordercolor="#000000"
     borderopacity="0.25"
     inkscape:showpageshadow="2"
     inkscape:pageopacity="0.0"
     inkscape:pagecheckerboard="0"
     inkscape:deskcolor="#d1d1d1"
     inkscape:document-units="mm"
     inkscape:zoom="2.7545174"
     inkscape:cx="68.79608"
     inkscape:cy="133.05416"
     inkscape:window-width="1920"
     inkscape:window-height="991"
     inkscape:window-x="-9"
     inkscape:window-y="-9"
     inkscape:window-maximized="1"
     inkscape:current-layer="layer1" />
  <defs
     id="defs1" />
  <g
     inkscape:label="Capa 1"
     inkscape:groupmode="layer"
     id="layer1"
     transform="translate(-156.63333,-161.66042)">
    <path
       id="path4"
       style="fill:#062e32;fill-opacity:1;stroke-width:0.251187"
       d="m 162.89185,163.23852 c -0.20188,0.002 -0.40166,0.067 -0.60306,0.21342 -0.16744,0.12174 -0.33561,0.30002 -0.48266,0.50075 l -5.2e-4,5.2e-4 c -0.13607,0.20831 -0.24373,0.42879 -0.29869,0.62838 -0.13224,0.48014 0.0393,0.83975 0.37983,1.15859 0.3405,0.31883 0.85,0.59689 1.25883,0.80408 0.40883,0.2072 0.71717,0.3435 1.07229,0.55036 0.3551,0.20685 0.75691,0.48426 1.13947,0.68471 0.38259,0.20045 0.74606,0.32404 1.10949,0.44752 0.12668,0.016 0.25301,0.0312 0.38085,-0.0212 l 1.07952,0.68471 c -0.10587,0.12837 -0.20856,0.25932 -0.30799,0.39274 -0.10762,0.13395 -0.21696,0.26643 -0.31729,0.40515 -0.10794,0.15197 -0.21168,0.30689 -0.31109,0.46457 -0.0996,0.15497 -0.19448,0.31203 -0.28526,0.4718 -0.0869,0.14995 -0.16996,0.30211 -0.24908,0.45631 -0.11299,0.22494 -0.21315,0.45536 -0.30902,0.68781 -0.0663,0.15979 -0.1285,0.32124 -0.18655,0.48421 -0.0916,0.25879 -0.17458,0.5203 -0.24495,0.786 -0.0345,0.13438 -0.0662,0.26946 -0.0951,0.40514 -0.0525,0.23705 -0.0958,0.47577 -0.13126,0.71675 -0.0198,0.12558 -0.0372,0.25152 -0.0522,0.37776 -0.0391,0.3594 -0.0652,0.72113 -0.0656,1.08572 v 10e-4 5.2e-4 c 1.7e-4,0.76293 0.0863,1.52341 0.25684,2.26704 -0.56681,0.34768 -1.11956,0.6847 -1.5782,0.95085 -0.60529,0.35129 -1.05904,0.58805 -1.39888,0.75241 -0.33984,0.16436 -0.56558,0.25612 -0.75448,0.39119 -0.1889,0.13507 -0.34036,0.31384 -0.41134,0.47542 -0.071,0.16158 -0.0612,0.3047 -0.0253,0.41651 0.0359,0.11181 0.0976,0.19008 0.16433,0.2589 0.0667,0.0688 0.13823,0.12814 0.24184,0.17932 0.1036,0.0512 0.23922,0.0937 0.38964,0.10852 0.15041,0.0148 0.31564,0.002 0.48421,-0.0315 0.16857,-0.0332 0.3404,-0.0862 0.49351,-0.1695 0.15312,-0.0833 0.28743,-0.19676 0.37621,-0.28732 0.0888,-0.0906 0.13197,-0.15774 0.17518,-0.22531 -0.1292,-0.0283 -0.25805,-0.0567 -0.36949,-0.0956 -0.11144,-0.0389 -0.20551,-0.0886 -0.28267,-0.13539 -0.0772,-0.0468 -0.13778,-0.0906 -0.15709,-0.13798 -0.0193,-0.0474 0.003,-0.0984 0.0832,-0.15296 0.0804,-0.0546 0.21955,-0.11294 0.36277,-0.1571 0.14322,-0.0441 0.29045,-0.0739 0.44855,-0.10542 0.1581,-0.0315 0.32683,-0.0646 0.81649,-0.28215 0.31552,-0.14022 0.77816,-0.36498 1.27486,-0.60927 0.928,2.60196 2.87608,4.7135 5.39502,5.84771 -0.14925,0.19046 -0.31052,0.39646 -0.35657,0.4501 -1.57583,1.8351 -4.59495,-2.15242 -5.89059,-2.12649 -0.42433,0.008 -0.70875,0.25956 -0.82993,0.67025 -0.0453,0.0876 -0.0957,0.11694 -0.14934,0.1049 -0.0536,-0.012 -0.11035,-0.0656 -0.1726,-0.13488 -0.0622,-0.0693 -0.12979,-0.15449 -0.18914,-0.25889 -0.0593,-0.10441 -0.11038,-0.22839 -0.16123,-0.35192 -0.0651,0.0528 -0.1301,0.10594 -0.21239,0.20722 -0.0823,0.10128 -0.18178,0.25116 -0.24598,0.41496 -0.0642,0.16381 -0.093,0.34152 -0.10128,0.51315 -0.008,0.17164 0.004,0.33716 0.0434,0.48369 0.0399,0.14655 0.10762,0.27415 0.1788,0.36897 0.0712,0.0948 0.14589,0.15667 0.22996,0.21239 0.16442,0.10893 0.50127,0.27353 0.78807,0.0377 0.11504,-0.0946 0.28062,-0.27165 0.39429,-0.47853 0.11369,-0.20691 0.17544,-0.44408 0.29611,-0.8046 0.22416,-1.04397 3.35716,2.31593 4.9475,2.20917 0.22318,-0.015 1.08714,0.14901 2.01848,-1.27434 0.57213,0.20894 1.1619,0.36598 1.76217,0.46922 0.27943,0.0531 0.56097,0.0945 0.84387,0.12402 0.31828,0.034 0.63806,0.0551 0.95912,0.0589 0.005,6e-5 0.0107,4.7e-4 0.016,5.2e-4 0.007,-5e-5 0.0145,-4.5e-4 0.0217,-5.2e-4 0.33175,-0.003 0.66184,-0.026 0.99064,-0.0615 0.23016,-0.0252 0.45939,-0.0583 0.68729,-0.0992 0.0713,-0.0127 0.14243,-0.0251 0.21343,-0.0393 0.56788,-0.10304 1.12593,-0.25431 1.66811,-0.45217 0.93129,1.42312 1.79532,1.25937 2.01849,1.27434 1.59036,0.10676 4.72334,-3.25313 4.9475,-2.20917 0.12068,0.36052 0.1824,0.59773 0.2961,0.8046 0.11369,0.20691 0.27925,0.38397 0.39429,0.47853 0.28681,0.23574 0.62366,0.0712 0.78807,-0.0377 0.0841,-0.0557 0.15876,-0.11756 0.22996,-0.21239 0.0712,-0.0948 0.13912,-0.22245 0.1788,-0.36897 0.04,-0.14655 0.0521,-0.31206 0.0439,-0.48369 -0.008,-0.17164 -0.037,-0.34935 -0.10128,-0.51315 -0.0641,-0.1638 -0.1637,-0.31368 -0.24598,-0.41496 -0.0823,-0.10128 -0.14731,-0.15444 -0.21239,-0.20722 -0.0508,0.12353 -0.10189,0.24752 -0.16123,0.35192 -0.0593,0.10441 -0.12688,0.18954 -0.18914,0.25889 -0.0623,0.0693 -0.11902,0.12286 -0.1726,0.13488 -0.0536,0.012 -0.10405,-0.0173 -0.14934,-0.1049 -0.12118,-0.41068 -0.40558,-0.66176 -0.82992,-0.67025 -1.29564,-0.026 -4.3148,3.96156 -5.8906,2.12649 -0.0459,-0.0534 -0.20873,-0.26146 -0.35657,-0.4501 0.58492,-0.27176 1.14262,-0.59862 1.66553,-0.97617 0.0596,-0.0418 0.11854,-0.0841 0.17725,-0.12712 0.23484,-0.1707 0.46226,-0.35139 0.68162,-0.54157 0.0551,-0.0482 0.1056,-0.1015 0.15968,-0.1509 0.35412,-0.32563 0.68464,-0.67602 0.98908,-1.04851 0.10831,-0.13166 0.219,-0.26116 0.3204,-0.39791 0.11714,-0.1615 0.2295,-0.32643 0.33693,-0.49455 0.12235,-0.18712 0.23752,-0.37778 0.34726,-0.57257 0.0843,-0.14628 0.16494,-0.29463 0.24185,-0.44493 0.17549,-0.35144 0.33667,-0.71062 0.47077,-1.08159 0.48542,0.2386 0.94058,0.45986 1.25005,0.59738 0.48966,0.2176 0.6584,0.25066 0.81649,0.28215 0.15811,0.0315 0.30533,0.0613 0.44855,0.10542 0.14322,0.0442 0.28226,0.10252 0.36277,0.1571 0.0804,0.0546 0.10195,0.10559 0.0827,0.15296 -0.0193,0.0474 -0.0793,0.0912 -0.15658,0.13798 -0.0772,0.0468 -0.17126,0.0965 -0.28267,0.13539 -0.11147,0.0389 -0.24028,0.0673 -0.36948,0.0956 0.0432,0.0676 0.0864,0.13475 0.17518,0.22531 0.0888,0.0906 0.22308,0.20403 0.3762,0.28732 0.15309,0.0833 0.3247,0.13638 0.49351,0.1695 0.16854,0.0332 0.33392,0.0463 0.48421,0.0315 0.15055,-0.0148 0.28618,-0.0574 0.38964,-0.10852 0.10371,-0.0512 0.17518,-0.11048 0.24185,-0.17932 0.0667,-0.0688 0.12835,-0.14709 0.16433,-0.2589 0.036,-0.11182 0.0456,-0.25492 -0.0253,-0.41651 -0.0709,-0.16158 -0.22295,-0.34035 -0.41186,-0.47542 -0.18891,-0.1351 -0.41449,-0.22683 -0.75448,-0.39119 -0.33973,-0.16436 -0.7936,-0.40112 -1.39888,-0.75241 -0.45117,-0.2618 -0.99493,-0.5933 -1.55184,-0.93483 0.17279,-0.7489 0.25999,-1.515 0.25993,-2.28358 -1.1e-4,-0.37156 -0.0269,-0.7397 -0.0672,-1.10587 -0.0134,-0.11049 -0.0285,-0.22074 -0.0455,-0.33073 -0.0376,-0.26204 -0.0854,-0.52135 -0.14314,-0.77877 -0.0251,-0.1183 -0.0524,-0.23614 -0.0816,-0.35346 -0.0868,-0.33112 -0.18689,-0.65852 -0.30644,-0.97876 -0.0151,-0.0402 -0.0304,-0.0804 -0.046,-0.1204 -0.12282,-0.31666 -0.26444,-0.62546 -0.41858,-0.92863 -0.0587,-0.11293 -0.11952,-0.22474 -0.18242,-0.33538 -0.12237,-0.2198 -0.25288,-0.43465 -0.39171,-0.64544 -0.0682,-0.10603 -0.13827,-0.21077 -0.21032,-0.31419 -0.18655,-0.26146 -0.38474,-0.51531 -0.59686,-0.75964 -0.0251,-0.0322 -0.0505,-0.0642 -0.076,-0.0961 l 1.0604,-0.67231 c 0.12788,0.0524 0.25467,0.0372 0.38138,0.0212 0.36343,-0.12346 0.72693,-0.24707 1.10949,-0.44752 0.38256,-0.20045 0.78437,-0.47786 1.13946,-0.68471 0.35513,-0.20686 0.66346,-0.34314 1.07229,-0.55036 0.40881,-0.20719 0.9178,-0.48525 1.25832,-0.80408 0.34052,-0.31885 0.51263,-0.67844 0.38034,-1.15859 -0.055,-0.19959 -0.16321,-0.42007 -0.29921,-0.62838 v -5.2e-4 c -0.14711,-0.20072 -0.31517,-0.379 -0.48265,-0.50075 -0.20135,-0.14643 -0.4012,-0.21118 -0.60307,-0.21342 -0.20188,-0.002 -0.4058,0.058 -0.61495,0.16123 -0.41833,0.20639 -0.85787,0.58486 -1.19579,0.89452 -0.33793,0.30966 -0.57431,0.55026 -0.89297,0.80977 -0.31867,0.2595 -0.71996,0.53781 -1.04231,0.82527 -0.32237,0.28745 -0.56571,0.58389 -0.80926,0.88057 -0.0646,0.12237 -0.12746,0.24554 -0.1111,0.39997 l -1.24385,0.78083 c -0.0494,-0.0392 -0.0992,-0.078 -0.14935,-0.11627 -0.22219,-0.18772 -0.45088,-0.36583 -0.68678,-0.53278 -0.11115,-0.077 -0.22382,-0.15178 -0.33796,-0.22428 -0.19905,-0.12924 -0.40179,-0.25071 -0.60875,-0.36535 -0.11335,-0.0642 -0.22792,-0.12623 -0.34365,-0.18603 -0.28515,-0.14391 -0.57578,-0.27596 -0.87281,-0.39223 -0.0625,-0.0245 -0.12516,-0.0485 -0.1881,-0.0718 -0.3043,-0.1122 -0.61407,-0.20724 -0.92811,-0.2899 -0.11715,-0.0297 -0.23482,-0.0572 -0.35295,-0.0827 -0.25042,-0.0564 -0.50277,-0.10316 -0.75758,-0.14056 -0.11169,-0.0177 -0.22368,-0.0335 -0.3359,-0.0475 -0.35833,-0.0404 -0.71906,-0.0678 -1.08262,-0.0698 -0.0167,-4e-5 -0.0334,-4e-5 -0.0501,0 -0.008,-1e-5 -0.0169,-1e-5 -0.0253,0 -0.36457,0.001 -0.72638,0.0278 -1.08573,0.0677 -0.11672,0.0143 -0.23318,0.0307 -0.34933,0.0491 -0.24835,0.0363 -0.49427,0.0815 -0.73846,0.13591 -0.12786,0.0272 -0.25517,0.0568 -0.38188,0.0889 -0.29725,0.0784 -0.59046,0.16949 -0.87902,0.2744 -0.0944,0.0344 -0.1883,0.0703 -0.28164,0.10749 -0.27448,0.10913 -0.54396,0.22995 -0.80822,0.36277 -0.13405,0.0689 -0.26654,0.14072 -0.39739,0.21549 -0.18527,0.10369 -0.36682,0.21322 -0.5457,0.32866 -0.13363,0.0844 -0.26527,0.17195 -0.39481,0.26252 -0.18676,0.13328 -0.36649,0.27735 -0.54467,0.42374 -0.0927,0.0696 -0.18416,0.14073 -0.2744,0.21343 l -1.26091,-0.79169 c 0.0164,-0.15446 -0.0465,-0.27758 -0.1111,-0.39997 -0.24355,-0.29668 -0.48743,-0.59312 -0.80977,-0.88057 -0.32234,-0.28746 -0.72313,-0.56577 -1.0418,-0.82527 -0.31866,-0.25951 -0.55504,-0.50012 -0.89297,-0.80977 -0.33792,-0.30966 -0.77745,-0.68813 -1.19579,-0.89452 -0.20917,-0.1032 -0.41306,-0.16347 -0.61495,-0.16123 z m 0.56793,1.37201 c 0.0825,0.004 0.16206,0.0308 0.22944,0.0785 0.19416,0.13736 0.24021,0.40581 0.10284,0.59996 -0.13739,0.19415 -0.40633,0.24021 -0.60048,0.10284 -0.19415,-0.13737 -0.24022,-0.40581 -0.10284,-0.59997 0.0847,-0.11964 0.22461,-0.18793 0.37104,-0.18138 z m 24.10344,0 c 0.14645,-0.006 0.28628,0.0617 0.37103,0.18138 0.13732,0.19416 0.0909,0.4626 -0.10335,0.59997 -0.19413,0.13738 -0.46259,0.0913 -0.59996,-0.10284 -0.1374,-0.19415 -0.0913,-0.4626 0.10283,-0.59996 0.0674,-0.0477 0.14701,-0.0747 0.22945,-0.0785 z m -21.68964,1.69602 c 0.0825,0.004 0.16208,0.0309 0.22945,0.0786 0.19417,0.1374 0.2402,0.4063 0.10283,0.60048 -0.13737,0.1942 -0.40633,0.24029 -0.60048,0.10283 -0.19415,-0.13737 -0.24021,-0.40632 -0.10283,-0.60048 0.0847,-0.11964 0.22461,-0.18792 0.37103,-0.18138 z m 19.27583,0 c 0.14642,-0.007 0.28638,0.0617 0.37104,0.18138 0.13738,0.19416 0.0913,0.46311 -0.10284,0.60048 -0.19415,0.13746 -0.46311,0.0914 -0.60048,-0.10283 -0.13737,-0.19418 -0.0913,-0.46308 0.10284,-0.60048 0.0674,-0.0477 0.14697,-0.0747 0.22944,-0.0786 z m -12.4995,0.6258 h 5.75262 c 0.23609,0 0.42633,0.19024 0.42633,0.42633 0,0.23609 -0.19024,0.42633 -0.42633,0.42633 h -5.75262 c -0.23609,0 -0.42633,-0.19024 -0.42633,-0.42633 0,-0.23609 0.19024,-0.42633 0.42633,-0.42633 z m -2.43757,1.8371 h 10.62777 c 0.24142,0 0.43563,0.19016 0.43563,0.42633 0,0.23617 -0.19421,0.42633 -0.43563,0.42633 h -10.62777 c -0.24142,0 -0.43564,-0.19016 -0.43564,-0.42633 0,-0.23617 0.19422,-0.42633 0.43564,-0.42633 z m -1.55546,1.8371 h 13.73869 c 0.24142,0 0.43615,0.19016 0.43615,0.42633 0,0.23617 -0.19473,0.42633 -0.43615,0.42633 h -13.73869 c -0.24141,0 -0.43615,-0.19016 -0.43615,-0.42633 0,-0.23617 0.19474,-0.42633 0.43615,-0.42633 z m -0.9648,1.83709 h 15.66829 c 0.24142,0 0.43563,0.19016 0.43563,0.42633 0,0.23617 -0.19421,0.42633 -0.43563,0.42633 h -15.66829 c -0.24142,0 -0.43564,-0.19016 -0.43564,-0.42633 0,-0.23617 0.19422,-0.42633 0.43564,-0.42633 z m -0.46612,1.8371 h 16.60053 c 0.24142,0 0.43615,0.19016 0.43615,0.42633 0,0.23617 -0.19473,0.42633 -0.43615,0.42633 h -16.60053 c -0.24141,0 -0.43615,-0.19016 -0.43615,-0.42633 0,-0.23617 0.19474,-0.42633 0.43615,-0.42633 z m 0,1.8371 h 16.60053 c 0.24142,0 0.43615,0.18964 0.43615,0.42581 0,0.23617 -0.19473,0.42633 -0.43615,0.42633 h -16.60053 c -0.24141,0 -0.43615,-0.19016 -0.43615,-0.42633 0,-0.23617 0.19474,-0.42581 0.43615,-0.42581 z m 0.46612,1.83658 h 15.66829 c 0.24142,0 0.43563,0.19016 0.43563,0.42633 0,0.23617 -0.19421,0.42633 -0.43563,0.42633 h -15.66829 c -0.24142,0 -0.43564,-0.19016 -0.43564,-0.42633 0,-0.23617 0.19422,-0.42633 0.43564,-0.42633 z m 0.9648,1.83761 h 13.73869 c 0.24142,0 0.43615,0.19016 0.43615,0.42633 0,0.23617 -0.19473,0.42582 -0.43615,0.42582 h -13.73869 c -0.24141,0 -0.43615,-0.18965 -0.43615,-0.42582 0,-0.23617 0.19474,-0.42633 0.43615,-0.42633 z m 1.55546,1.83658 h 10.62777 c 0.24141,0 0.43563,0.19016 0.43563,0.42633 0,0.23617 -0.19422,0.42633 -0.43563,0.42633 h -10.62777 c -0.24142,0 -0.43564,-0.19016 -0.43564,-0.42633 0,-0.23617 0.19422,-0.42633 0.43564,-0.42633 z m 2.43757,1.8371 h 5.75262 c 0.23609,0 0.42633,0.19024 0.42633,0.42633 0,0.23609 -0.19024,0.42633 -0.42633,0.42633 h -5.75262 c -0.23609,0 -0.42633,-0.19024 -0.42633,-0.42633 0,-0.23609 0.19024,-0.42633 0.42633,-0.42633 z"
       sodipodi:nodetypes="cccccccscccccccccccccccscsccsscscccccccsccccccccccccccccsccccsscccccsccccccccccsccccccccccccccccccccccccscccccccccccccscccccccccccccccccccsccccccccccccccccccccccccccccccccccccccccccccccccccccscccccccccccccccccccccsccssssssssssssssssssssssssssssssssssssssssssssssssssssssssssssssssssssss" />
    <path
       id="rect1-76-0-6-7-6-4-3"
       style="fill:#062e32;stroke:none;stroke-width:2.42107;stroke-dasharray:none;fill-opacity:1"
       d="M 164.7393 188.09343 C 164.52008 188.09343 164.34345 188.27984 164.34345 188.51149 C 164.34345 188.74315 164.52008 188.92956 164.7393 188.92956 C 164.93139 188.92956 165.09092 188.78653 165.12739 188.59521 L 165.67619 188.59521 L 165.67619 190.98266 C 165.67619 191.12166 165.78237 191.23329 165.9139 191.23329 C 166.04544 191.23329 166.1511 191.12166 166.1511 190.98266 L 166.1511 188.59521 L 166.6999 188.59521 C 166.7364 188.78653 166.8959 188.92956 167.08799 188.92956 C 167.30721 188.92956 167.48383 188.74315 167.48383 188.51149 C 167.48383 188.27984 167.30721 188.09343 167.08799 188.09343 L 164.7393 188.09343 z M 168.37938 188.11875 C 168.16025 188.11875 167.98354 188.30517 167.98354 188.53682 L 167.98354 190.84055 C 167.98354 191.0722 168.16025 191.25861 168.37938 191.25861 C 168.59851 191.25861 168.77471 191.0722 168.77471 190.84055 C 168.77471 190.63755 168.63941 190.4693 168.45845 190.43076 L 168.45845 189.93931 L 170.64746 189.93931 L 170.64746 190.43076 C 170.46648 190.46926 170.3312 190.63754 170.3312 190.84055 C 170.3312 191.0722 170.50742 191.25861 170.72653 191.25861 C 170.94566 191.25861 171.12237 191.0722 171.12237 190.84055 C 171.12837 190.07272 171.11537 189.30462 171.12237 188.53682 C 171.12237 188.30517 170.94566 188.11875 170.72653 188.11875 L 168.37938 188.11875 z M 176.65536 188.11927 C 176.43614 188.11927 176.26004 188.3062 176.26004 188.53785 L 176.26004 190.84107 C 176.26004 191.07272 176.43614 191.25965 176.65536 191.25965 C 176.87459 191.25965 177.05121 191.07272 177.05121 190.84107 C 177.05121 190.63807 176.91548 190.46981 176.73443 190.43127 L 176.73443 189.93983 L 178.92499 189.93983 L 178.92499 190.43127 C 178.74393 190.46977 178.60822 190.63805 178.60822 190.84107 C 178.60822 191.07272 178.78483 191.25965 179.00406 191.25965 C 179.22328 191.25965 179.3999 191.07272 179.3999 190.84107 L 179.3999 188.53785 C 179.3999 188.30619 179.22328 188.11927 179.00406 188.11927 L 176.65536 188.11927 z M 180.30424 188.11927 C 180.29724 188.11927 180.28932 188.12012 180.28202 188.12134 C 180.07319 188.13344 179.9084 188.3146 179.9084 188.53837 C 179.9084 188.54737 179.90896 188.55519 179.90943 188.56369 C 179.90896 188.56969 179.9084 188.57714 179.9084 188.58384 L 179.9084 190.76924 C 179.9084 190.77994 179.90909 190.79036 179.91046 190.80076 C 179.90846 190.81416 179.9084 190.82778 179.9084 190.84158 C 179.9084 191.07321 180.08501 191.25965 180.30424 191.25965 C 180.52346 191.25965 180.70008 191.07321 180.70008 190.84158 C 180.70008 190.63861 180.56434 190.47031 180.3833 190.43179 L 180.3833 188.94816 C 180.53879 188.91506 180.66049 188.78586 180.69181 188.62157 L 181.24113 188.62157 L 181.24113 191.00902 C 181.24113 191.148 181.3468 191.25965 181.47833 191.25965 C 181.60986 191.25965 181.71604 191.148 181.71604 191.00902 L 181.71604 188.62157 L 182.26484 188.62157 C 182.29624 188.78586 182.41838 188.91507 182.57387 188.94816 L 182.57387 190.43179 C 182.39283 190.47029 182.25709 190.63861 182.25709 190.84158 C 182.25709 191.07321 182.4337 191.25965 182.65293 191.25965 C 182.84925 191.25965 183.01138 191.10998 183.04309 190.91238 C 183.04709 190.89478 183.04877 190.8764 183.04877 190.8576 L 183.04877 188.58849 C 183.04877 188.58149 183.04872 188.57357 183.04826 188.56627 C 183.04888 188.55727 183.04877 188.54777 183.04877 188.53837 C 183.04877 188.30673 182.87216 188.1203 182.65293 188.1203 C 182.64393 188.1203 182.63538 188.12033 182.62658 188.12082 C 182.61958 188.12019 182.6128 188.1203 182.6059 188.1203 L 181.47884 188.1203 L 180.3063 188.1203 L 180.30579 188.1203 L 180.30475 188.1203 L 180.30424 188.11927 z M 183.93554 188.11927 C 183.71631 188.11927 183.5397 188.30562 183.5397 188.53733 C 183.5397 188.54633 183.53975 188.55604 183.54021 188.56524 C 183.53959 188.57224 183.5397 188.57964 183.5397 188.58694 L 183.5397 189.68713 C 183.53969 189.68775 183.5397 189.68868 183.5397 189.68868 C 183.5397 189.68931 183.53969 189.69075 183.5397 189.69075 L 183.5397 190.78939 C 183.5397 190.79739 183.53973 190.80473 183.54021 190.81213 C 183.53958 190.82213 183.5397 190.83178 183.5397 190.84158 C 183.5397 191.01544 183.63879 191.16381 183.78103 191.22709 C 183.81563 191.24789 183.85603 191.25965 183.89885 191.25965 L 186.2863 191.25965 C 186.50451 191.25765 186.67956 191.07251 186.67956 190.84158 C 186.67956 190.82858 186.67901 190.81604 186.67749 190.80334 C 186.67829 190.79334 186.67956 190.78305 186.67956 190.77285 L 186.67956 190.09124 C 186.67956 189.95222 186.5739 189.8401 186.44236 189.8401 C 186.42466 189.8401 186.40719 189.8423 186.39069 189.8463 C 186.42289 189.8034 186.44236 189.74901 186.44236 189.68972 C 186.44236 189.63122 186.42332 189.57781 186.39172 189.5352 C 186.40792 189.5392 186.42506 189.54089 186.44236 189.54089 C 186.5739 189.54089 186.67956 189.42928 186.67956 189.29026 L 186.67956 188.60761 C 186.67956 188.59741 186.67885 188.58702 186.67749 188.57712 C 186.67829 188.56442 186.67956 188.55178 186.67956 188.53888 C 186.67956 188.30717 186.50294 188.12082 186.28372 188.12082 C 186.27572 188.12082 186.26763 188.12087 186.25943 188.12134 C 186.25343 188.12087 186.24671 188.12082 186.24031 188.12082 L 183.98618 188.12082 C 183.97918 188.12082 183.97126 188.12085 183.96396 188.12134 C 183.95496 188.12056 183.94514 188.12082 183.93554 188.12082 L 183.93554 188.11927 z M 187.57459 188.11927 C 187.35537 188.11927 187.17875 188.30567 187.17875 188.53733 C 187.17875 188.54633 187.1793 188.55604 187.17979 188.56524 C 187.17916 188.57224 187.17875 188.57964 187.17875 188.58694 L 187.17875 189.68713 C 187.17874 189.68761 187.17875 189.68748 187.17875 189.68868 C 187.17875 189.68915 187.17874 189.68955 187.17875 189.69075 L 187.17875 190.78991 C 187.17875 190.79791 187.1793 190.80525 187.17979 190.81265 C 187.17916 190.82265 187.17875 190.83178 187.17875 190.84158 C 187.17875 191.07323 187.35537 191.25965 187.57459 191.25965 C 187.79381 191.25965 187.97044 191.07323 187.97044 190.84158 C 187.97044 190.63858 187.8347 190.47034 187.65366 190.43179 L 187.65366 189.94035 L 189.52745 189.94035 L 189.52745 190.42352 L 189.52745 190.77285 C 189.52745 190.78305 189.52798 190.79303 189.52951 190.80283 C 189.52871 190.81553 189.52745 190.82858 189.52745 190.84158 C 189.52745 191.07325 189.70408 191.25965 189.92329 191.25965 C 190.14251 191.25965 190.31861 191.07323 190.31861 190.84158 C 190.31861 190.63858 190.18339 190.47032 190.00235 190.43179 L 190.00235 190.09073 C 190.00235 189.95174 189.89617 189.83958 189.76464 189.83958 C 189.74694 189.83958 189.73018 189.84178 189.71348 189.84578 C 189.74578 189.80288 189.76464 189.74846 189.76464 189.6892 C 189.76464 189.6307 189.74601 189.57728 189.71451 189.53469 C 189.73071 189.53869 189.74734 189.54037 189.76464 189.54037 C 189.89617 189.54037 190.00235 189.42875 190.00235 189.28974 L 190.00235 188.6071 C 190.00235 188.5866 190.00015 188.56677 189.99615 188.54767 C 189.99621 188.54467 189.99615 188.54188 189.99615 188.53888 C 189.99615 188.3209 189.84014 188.14266 189.63907 188.12237 C 189.62907 188.12037 189.61909 188.1203 189.60909 188.1203 L 189.60031 188.1203 L 187.59216 188.1203 C 187.59016 188.1203 187.58693 188.12022 187.58493 188.1203 C 187.58193 188.12022 187.57911 188.1203 187.57511 188.1203 L 187.57459 188.11927 z M 191.21313 188.11927 C 190.99391 188.11927 190.81729 188.30567 190.81729 188.53733 L 190.81729 190.84158 C 190.81729 191.07324 190.99391 191.25965 191.21313 191.25965 L 193.56183 191.25965 C 193.78105 191.25965 193.95715 191.07324 193.95715 190.84158 C 193.95715 190.60991 193.78105 190.42301 193.56183 190.42301 C 193.36973 190.42301 193.21021 190.56654 193.17374 190.75787 L 191.60122 190.75787 C 191.56982 190.59355 191.44768 190.46436 191.2922 190.43127 L 191.2922 189.96825 L 193.71996 189.96825 C 193.85149 189.96825 193.95715 189.85611 193.95715 189.71711 C 193.95715 189.57811 193.85149 189.46647 193.71996 189.46647 L 191.2922 189.46647 L 191.2922 188.94764 C 191.44768 188.91454 191.5699 188.78537 191.60122 188.62105 L 193.17374 188.62105 C 193.21024 188.81238 193.36973 188.95591 193.56183 188.95591 C 193.78105 188.95591 193.95715 188.769 193.95715 188.53733 C 193.95715 188.30567 193.78105 188.11927 193.56183 188.11927 L 191.21313 188.11927 z M 157.46119 188.11979 C 157.24197 188.11979 157.06534 188.30619 157.06534 188.53785 L 157.06534 190.8421 C 157.06534 191.07376 157.24197 191.26016 157.46119 191.26016 L 159.80988 191.26016 C 160.0291 191.26016 160.20572 191.07376 160.20572 190.8421 C 160.20572 190.61043 160.0291 190.42352 159.80988 190.42352 C 159.61778 190.42352 159.45826 190.56706 159.42179 190.75839 L 157.84928 190.75839 C 157.81788 190.59407 157.69573 190.46488 157.54025 190.43179 L 157.54025 189.96877 L 159.96801 189.96877 C 160.09954 189.96877 160.20572 189.85662 160.20572 189.71762 C 160.20572 189.57862 160.09954 189.46699 159.96801 189.46699 L 157.54025 189.46699 L 157.54025 188.94816 C 157.69573 188.91506 157.81796 188.78589 157.84928 188.62157 L 159.42179 188.62157 C 159.45829 188.8129 159.61778 188.95643 159.80988 188.95643 C 160.0291 188.95643 160.20572 188.76952 160.20572 188.53785 C 160.20572 188.30619 160.0291 188.11979 159.80988 188.11979 L 157.46119 188.11979 z M 161.10024 188.1203 C 160.88102 188.1203 160.70492 188.30672 160.70492 188.53837 L 160.70492 189.6892 C 160.70492 189.82819 160.81059 189.94035 160.94211 189.94035 L 163.36987 189.94035 L 163.36987 190.43179 C 163.21437 190.46489 163.09216 190.59407 163.06084 190.75839 L 161.48833 190.75839 C 161.45183 190.56707 161.29234 190.42352 161.10024 190.42352 C 160.88102 190.42352 160.70492 190.61044 160.70492 190.8421 C 160.70492 191.07375 160.88102 191.26016 161.10024 191.26016 L 163.44893 191.26016 C 163.66815 191.26016 163.84478 191.07375 163.84478 190.8421 L 163.84478 189.69075 L 163.84478 189.68972 C 163.83478 189.49614 163.69198 189.43909 163.60706 189.43909 L 161.17931 189.43909 L 161.17931 188.94868 C 161.3348 188.91558 161.45701 188.78638 161.48833 188.62208 L 163.06084 188.62208 C 163.09734 188.81339 163.25683 188.95695 163.44893 188.95695 C 163.66815 188.95695 163.84478 188.77054 163.84478 188.53888 C 163.84478 188.30723 163.66815 188.1203 163.44893 188.1203 L 161.10024 188.1203 z M 173.01786 188.1203 C 172.79865 188.1203 172.62202 188.30672 172.62202 188.53837 L 172.62202 190.8421 C 172.62202 191.07375 172.79865 191.26016 173.01786 191.26016 C 173.23708 191.26016 173.4137 191.07375 173.4137 190.8421 C 173.4137 190.6391 173.27796 190.47084 173.09692 190.43231 L 173.09692 189.96877 L 175.28749 189.96877 L 175.28749 190.43231 C 175.10644 190.47081 174.97071 190.63909 174.97071 190.8421 C 174.97071 191.07376 175.14733 191.26016 175.36655 191.26016 C 175.58577 191.26016 175.76238 191.07376 175.76239 190.8421 L 175.76239 188.6071 C 175.76239 188.6071 175.7617 188.56127 175.76239 188.53837 C 175.76239 188.30672 175.58577 188.1203 175.36655 188.1203 C 175.14733 188.1203 174.97071 188.30672 174.97071 188.53837 C 174.97071 188.74139 175.10644 188.90964 175.28749 188.94816 L 175.28749 189.46699 L 173.09692 189.46699 L 173.09692 188.94816 C 173.27796 188.90966 173.4137 188.74137 173.4137 188.53837 C 173.4137 188.30672 173.23708 188.1203 173.01786 188.1203 z M 168.76696 188.62053 L 170.33895 188.62053 C 170.37025 188.78484 170.49203 188.91405 170.64746 188.94713 L 170.64746 189.43754 L 168.45845 189.43754 L 168.45845 188.94713 C 168.61387 188.91403 168.73565 188.78484 168.76696 188.62053 z M 184.32311 188.62105 L 185.89614 188.62105 C 185.92744 188.78541 186.04915 188.91455 186.20465 188.94764 L 186.20465 189.28871 L 186.20465 189.43805 L 184.0146 189.43805 L 184.0146 188.94764 C 184.1701 188.91454 184.29179 188.7854 184.32311 188.62105 z M 187.96217 188.62105 L 189.21222 188.62105 C 189.24392 188.78766 189.36884 188.91787 189.52745 188.94868 L 189.52745 189.28819 L 189.52745 189.43754 L 187.65366 189.43754 L 187.65366 188.94713 C 187.80914 188.91403 187.93085 188.78536 187.96217 188.62105 z M 177.04345 188.62157 L 178.61648 188.62157 C 178.64778 188.78588 178.76948 188.91456 178.92499 188.94764 L 178.92499 189.43805 L 176.73443 189.43805 L 176.73443 188.94764 C 176.88992 188.91454 177.01213 188.78588 177.04345 188.62157 z M 184.0146 189.93983 L 186.20465 189.93983 L 186.20465 190.11243 L 186.20465 190.43179 C 186.04915 190.46489 185.92746 190.59352 185.89614 190.75787 L 184.32311 190.75787 C 184.29181 190.59353 184.1701 190.46489 184.0146 190.43179 L 184.0146 189.93983 z M 180.2877 192.23426 C 180.06848 192.23426 179.89238 192.42068 179.89238 192.65233 C 179.89238 192.88399 180.06848 193.07091 180.2877 193.07091 C 180.47979 193.07091 180.63932 192.92736 180.67579 192.73604 L 181.22459 192.73604 L 181.22459 195.12349 C 181.22459 195.26249 181.33078 195.37412 181.46231 195.37412 C 181.59385 195.37412 181.6995 195.26249 181.6995 195.12349 L 181.6995 192.73604 L 182.24882 192.73604 C 182.28532 192.92736 182.4443 193.07091 182.63639 193.07091 C 182.85561 193.07091 183.03224 192.88399 183.03224 192.65233 C 183.03224 192.42068 182.85561 192.23426 182.63639 192.23426 L 180.2877 192.23426 z M 176.66312 192.25907 C 176.44399 192.25907 176.26779 192.446 176.26779 192.67765 L 176.26779 194.98087 C 176.26779 195.21252 176.44399 195.39945 176.66312 195.39945 C 176.88225 195.39945 177.05844 195.21252 177.05844 194.98087 C 177.05844 194.77787 176.92314 194.60961 176.74218 194.57107 L 176.74218 194.07963 L 178.93171 194.07963 L 178.93171 194.57107 C 178.75073 194.60957 178.61493 194.77786 178.61493 194.98087 C 178.61493 195.21252 178.79167 195.39945 179.01078 195.39945 C 179.22992 195.39945 179.4061 195.21252 179.4061 194.98087 C 179.4121 194.21304 179.3991 193.44493 179.4061 192.67713 C 179.4061 192.44548 179.22991 192.25907 179.01078 192.25907 L 176.66312 192.25907 z M 164.74601 192.25959 L 164.73309 192.2601 C 164.71779 192.2601 164.70315 192.26224 164.68865 192.26424 C 164.49697 192.29354 164.35069 192.4667 164.35069 192.67713 C 164.35069 192.67913 164.35065 192.68185 164.35069 192.68385 C 164.35065 192.68585 164.35069 192.68805 164.35069 192.69005 L 164.35069 194.98345 C 164.35069 194.99245 164.35123 195.00226 164.35276 195.01136 C 164.37006 195.2254 164.53937 195.39221 164.74705 195.39221 C 164.74784 195.39221 164.7486 195.39222 164.7486 195.39221 C 164.74939 195.39222 164.75066 195.39221 164.75066 195.39221 L 165.8183 195.39221 C 165.94984 195.39221 166.05549 195.28077 166.05549 195.1421 C 166.05549 195.00343 165.94984 194.89198 165.8183 194.89198 L 165.13359 194.89198 C 165.10219 194.72806 164.98059 194.59944 164.82508 194.56642 L 164.82508 193.08589 C 164.98059 193.05289 165.10226 192.92425 165.13359 192.76033 L 166.70662 192.76033 C 166.73792 192.92426 166.86012 193.05288 167.01564 193.08589 L 167.01564 193.80729 C 167.01564 193.94596 167.12129 194.05741 167.25284 194.05741 C 167.38439 194.05741 167.49055 193.94596 167.49055 193.80729 L 167.49055 192.74534 C 167.49055 192.73524 167.48985 192.72527 167.48848 192.71537 C 167.48928 192.70267 167.49055 192.69013 167.49055 192.67713 C 167.49055 192.44602 167.31396 192.25959 167.09471 192.25959 C 167.08671 192.25959 167.07884 192.25963 167.07094 192.2601 C 167.06494 192.25963 167.05895 192.25959 167.05285 192.25959 L 164.74601 192.25959 z M 168.38403 192.25959 L 168.38455 192.2601 C 168.16532 192.2601 167.98871 192.44654 167.98871 192.67816 C 167.98871 192.69116 167.98925 192.70371 167.99078 192.71641 C 167.98998 192.72641 167.98871 192.73669 167.98871 192.74689 L 167.98871 194.91265 C 167.98871 194.92285 167.9894 194.93324 167.99078 194.94314 C 167.98998 194.95584 167.98871 194.96838 167.98871 194.98138 C 167.98871 195.213 168.16532 195.39945 168.38455 195.39945 C 168.39255 195.39945 168.40116 195.39942 168.40936 195.39893 C 168.41536 195.3994 168.42208 195.39945 168.42848 195.39945 L 170.71361 195.39945 C 170.71661 195.39945 170.71988 195.39954 170.72188 195.39945 C 170.72588 195.39955 170.72873 195.39945 170.73273 195.39945 C 170.95196 195.39945 171.12857 195.213 171.12857 194.98138 L 171.12857 194.97725 L 171.12857 194.97415 L 171.12857 192.72984 C 171.12857 192.72184 171.12802 192.7145 171.12754 192.7071 C 171.12817 192.6971 171.12857 192.68755 171.12857 192.67765 C 171.12857 192.44603 170.95196 192.25959 170.73273 192.25959 C 170.5135 192.25959 170.33689 192.44603 170.33689 192.67765 C 170.33689 192.88063 170.47261 193.04891 170.65366 193.08744 L 170.65366 194.57159 C 170.49817 194.60469 170.37596 194.73339 170.34464 194.89767 L 168.77212 194.89767 C 168.74082 194.73338 168.61862 194.60467 168.4631 194.57159 L 168.4631 193.08744 C 168.64417 193.04894 168.77988 192.88063 168.77988 192.67765 C 168.77988 192.44603 168.60326 192.25959 168.38403 192.25959 z M 172.02309 192.25959 C 171.80387 192.25959 171.62725 192.44599 171.62725 192.67765 L 171.62725 194.98138 C 171.62725 195.21305 171.80387 195.39945 172.02309 195.39945 L 174.37178 195.39945 C 174.591 195.39945 174.76711 195.21305 174.76711 194.98138 C 174.76711 194.74971 174.591 194.56332 174.37178 194.56332 C 174.17968 194.56332 174.02016 194.70634 173.98369 194.89767 L 172.41118 194.89767 C 172.37978 194.73335 172.25763 194.60468 172.10215 194.57159 L 172.10215 194.10857 L 174.52991 194.10857 C 174.66144 194.10857 174.76711 193.99642 174.76711 193.85742 C 174.76711 193.71842 174.66144 193.60627 174.52991 193.60627 L 172.10215 193.60627 L 172.10215 193.08744 C 172.25763 193.05434 172.37986 192.92568 172.41118 192.76136 L 173.98369 192.76136 C 174.02019 192.95269 174.17968 193.09571 174.37178 193.09571 C 174.591 193.09571 174.76711 192.90932 174.76711 192.67765 C 174.76711 192.44599 174.591 192.25959 174.37178 192.25959 L 172.02309 192.25959 z M 183.92779 192.2601 C 183.70866 192.2601 183.53195 192.44651 183.53195 192.67816 L 183.53195 194.9819 C 183.53195 195.21355 183.70866 195.39996 183.92779 195.39996 C 184.14692 195.39996 184.32311 195.21355 184.32311 194.9819 C 184.32311 194.7789 184.18781 194.61065 184.00685 194.57211 L 184.00685 194.08015 L 186.19587 194.08015 L 186.19587 194.57211 C 186.01489 194.61061 185.87961 194.77889 185.87961 194.9819 C 185.87961 195.21355 186.05582 195.39996 186.27493 195.39996 C 186.49407 195.39996 186.67077 195.21355 186.67077 194.9819 C 186.67677 194.21407 186.66377 193.44596 186.67077 192.67816 C 186.67077 192.44651 186.49406 192.2601 186.27493 192.2601 L 183.92779 192.2601 z M 177.05069 192.76085 L 178.62269 192.76085 C 178.65399 192.92516 178.77628 193.05436 178.93171 193.08744 L 178.93171 193.57785 L 176.74218 193.57785 L 176.74218 193.08744 C 176.8976 193.05434 177.01938 192.92516 177.05069 192.76085 z M 184.31536 192.76188 L 185.88736 192.76188 C 185.91866 192.92619 186.04044 193.05488 186.19587 193.08796 L 186.19587 193.57837 L 184.00685 193.57837 L 184.00685 193.08796 C 184.16227 193.05486 184.28405 192.92619 184.31536 192.76188 z M 165.92062 193.42954 C 165.71202 193.42954 165.5439 193.60654 165.5439 193.82642 C 165.5439 194.04071 165.70343 194.21405 165.9046 194.22277 C 165.9086 194.22293 165.9128 194.22329 165.917 194.22329 L 166.27615 194.22329 L 166.27615 194.83152 C 166.27615 194.83552 166.27642 194.83982 166.27667 194.84392 C 166.27667 194.97585 166.37735 195.08215 166.5025 195.08215 L 166.74279 195.08215 C 166.77749 195.26376 166.92897 195.39945 167.11176 195.39945 C 167.32036 195.39945 167.48796 195.22247 167.48796 195.00257 C 167.48796 194.78269 167.32036 194.6057 167.11176 194.6057 C 167.10006 194.6057 167.08854 194.60638 167.07714 194.60776 C 167.06814 194.60696 167.05947 194.6057 167.05027 194.6057 L 166.75106 194.6057 L 166.75106 193.99746 C 166.75106 193.99546 166.75111 193.99326 166.75106 193.99126 C 166.75111 193.98926 166.75106 193.98706 166.75106 193.98506 C 166.75106 193.85313 166.65038 193.74735 166.52523 193.74735 L 166.28959 193.74735 C 166.25489 193.56574 166.10341 193.42954 165.92062 193.42954 z " />
  </g>
</svg>
