<?xml version="1.0" encoding="UTF-8" standalone="no"?>
<!-- Created with Inkscape (http://www.inkscape.org/) -->

<svg
   width="37.75631mm"
   height="34.609787mm"
   viewBox="0 0 37.756309 34.609786"
   version="1.1"
   id="svg1"
   inkscape:version="1.4.2 (f4327f4, 2025-05-13)"
   sodipodi:docname="EHQALogoText.svg"
   inkscape:export-filename="C:\Users\buste\Pictures\ESTAHAMBREQUEATA\EHQALogoBlanco3.png"
   inkscape:export-xdpi="336.37042"
   inkscape:export-ydpi="336.37042"
   xmlns:inkscape="http://www.inkscape.org/namespaces/inkscape"
   xmlns:sodipodi="http://sodipodi.sourceforge.net/DTD/sodipodi-0.dtd"
   xmlns="http://www.w3.org/2000/svg"
   xmlns:svg="http://www.w3.org/2000/svg">
  <sodipodi:namedview
     id="namedview1"
     pagecolor="#ffffff"
     bordercolor="#000000"
     borderopacity="0.25"
     inkscape:showpageshadow="2"
     inkscape:pageopacity="0.0"
     inkscape:pagecheckerboard="0"
     inkscape:deskcolor="#d1d1d1"
     inkscape:document-units="mm"
     inkscape:zoom="2.8284271"
     inkscape:cx="5.4800776"
     inkscape:cy="80.433397"
     inkscape:window-width="1920"
     inkscape:window-height="991"
     inkscape:window-x="-9"
     inkscape:window-y="-9"
     inkscape:window-maximized="1"
     inkscape:current-layer="layer1"
     showguides="false" />
  <defs
     id="defs1">
    <inkscape:path-effect
       effect="fillet_chamfer"
       id="path-effect16"
       is_visible="true"
       lpeversion="1"
       nodesatellites_param="F,0,0,1,0,0,0,1 @ F,0,0,1,0,0.39095062,0,1 @ F,0,0,1,0,0.33994647,0,1"
       radius="0"
       unit="px"
       method="auto"
       mode="F"
       chamfer_steps="1"
       flexible="false"
       use_knot_distance="true"
       apply_no_radius="true"
       apply_with_radius="true"
       only_selected="false"
       hide_knots="false" />
    <inkscape:path-effect
       effect="fillet_chamfer"
       id="path-effect16-2"
       is_visible="true"
       lpeversion="1"
       nodesatellites_param="F,0,0,1,0,0,0,1 @ F,0,0,1,0,0.39095062,0,1 @ F,0,0,1,0,0.33994647,0,1"
       radius="0"
       unit="px"
       method="auto"
       mode="F"
       chamfer_steps="1"
       flexible="false"
       use_knot_distance="true"
       apply_no_radius="true"
       apply_with_radius="true"
       only_selected="false"
       hide_knots="false" />
    <inkscape:path-effect
       effect="fillet_chamfer"
       id="path-effect16-25"
       is_visible="true"
       lpeversion="1"
       nodesatellites_param="F,0,0,1,0,0,0,1 @ F,0,0,1,0,0.39095062,0,1 @ F,0,0,1,0,0.33994647,0,1"
       radius="0"
       unit="px"
       method="auto"
       mode="F"
       chamfer_steps="1"
       flexible="false"
       use_knot_distance="true"
       apply_no_radius="true"
       apply_with_radius="true"
       only_selected="false"
       hide_knots="false" />
    <inkscape:path-effect
       effect="fillet_chamfer"
       id="path-effect16-25-9"
       is_visible="true"
       lpeversion="1"
       nodesatellites_param="F,0,0,1,0,0,0,1 @ F,0,0,1,0,0.39095062,0,1 @ F,0,0,1,0,0.33994647,0,1"
       radius="0"
       unit="px"
       method="auto"
       mode="F"
       chamfer_steps="1"
       flexible="false"
       use_knot_distance="true"
       apply_no_radius="true"
       apply_with_radius="true"
       only_selected="false"
       hide_knots="false" />
  </defs>
  <g
     inkscape:label="Capa 1"
     inkscape:groupmode="layer"
     id="layer1"
     transform="translate(-96.691703,-173.95011)">
    <path
       id="path4"
       style="fill:#062e32;fill-opacity:1;stroke-width:0.251187"
       d="m 102.95043,173.9502 c -0.20188,0.002 -0.40166,0.067 -0.60306,0.21342 -0.16744,0.12174 -0.33561,0.30002 -0.48266,0.50075 l -5.2e-4,5.2e-4 c -0.13607,0.20831 -0.24372,0.42879 -0.29868,0.62838 -0.13224,0.48014 0.0393,0.83975 0.37982,1.15859 0.3405,0.31883 0.85,0.59689 1.25883,0.80408 0.40883,0.2072 0.71717,0.3435 1.07229,0.55036 0.3551,0.20685 0.75691,0.48426 1.13947,0.68471 0.38259,0.20045 0.74606,0.32404 1.10949,0.44752 0.12668,0.016 0.25301,0.0312 0.38085,-0.0212 l 1.07953,0.68471 a 10.154099,10.153998 0 0 0 -0.308,0.39274 c -0.10762,0.13395 -0.21696,0.26643 -0.31729,0.40515 a 10.154099,10.153998 0 0 0 -0.31109,0.46457 c -0.0996,0.15497 -0.19448,0.31203 -0.28526,0.4718 a 10.154099,10.153998 0 0 0 -0.24908,0.45631 c -0.11299,0.22494 -0.21315,0.45536 -0.30902,0.68781 a 10.154099,10.153998 0 0 0 -0.18655,0.48421 c -0.0916,0.25879 -0.17458,0.5203 -0.24495,0.786 a 10.154099,10.153998 0 0 0 -0.0951,0.40514 c -0.0525,0.23705 -0.0958,0.47577 -0.13126,0.71675 a 10.154099,10.153998 0 0 0 -0.0522,0.37776 c -0.0391,0.3594 -0.0652,0.72113 -0.0656,1.08572 a 10.154099,10.153998 0 0 0 0,10e-4 10.154099,10.153998 0 0 1 0,5.2e-4 10.154099,10.153998 0 0 0 0.25683,2.26704 c -0.56681,0.34768 -1.11956,0.6847 -1.5782,0.95085 -0.60529,0.35129 -1.05904,0.58805 -1.39888,0.75241 -0.33984,0.16436 -0.56558,0.25612 -0.75448,0.39119 -0.1889,0.13507 -0.34036,0.31384 -0.41134,0.47542 -0.071,0.16158 -0.0612,0.3047 -0.0253,0.41651 0.0359,0.11181 0.0976,0.19008 0.16433,0.2589 0.0667,0.0688 0.13823,0.12814 0.24184,0.17932 0.1036,0.0512 0.23922,0.0937 0.38964,0.10852 0.15041,0.0148 0.31564,0.002 0.48421,-0.0315 0.16857,-0.0332 0.3404,-0.0862 0.49351,-0.1695 0.15312,-0.0833 0.28743,-0.19676 0.37621,-0.28732 0.0888,-0.0906 0.13197,-0.15774 0.17518,-0.22531 -0.1292,-0.0283 -0.25805,-0.0567 -0.36949,-0.0956 -0.11144,-0.0389 -0.20551,-0.0886 -0.28267,-0.13539 -0.0772,-0.0468 -0.13778,-0.0906 -0.15709,-0.13798 -0.0193,-0.0474 0.003,-0.0984 0.0832,-0.15296 0.0804,-0.0546 0.21954,-0.11294 0.36276,-0.1571 0.14322,-0.0441 0.29046,-0.0739 0.44856,-0.10542 0.1581,-0.0315 0.32682,-0.0646 0.81648,-0.28215 0.31552,-0.14022 0.77816,-0.36498 1.27486,-0.60927 a 10.154099,10.153998 0 0 0 5.39502,5.84771 c -0.14925,0.19046 -0.31052,0.39646 -0.35657,0.4501 -1.57583,1.8351 -4.59495,-2.15242 -5.89059,-2.12649 -0.42433,0.008 -0.70875,0.25956 -0.82993,0.67025 -0.0453,0.0876 -0.0957,0.11694 -0.14934,0.1049 -0.0536,-0.012 -0.11035,-0.0656 -0.1726,-0.13488 -0.0622,-0.0693 -0.12979,-0.15449 -0.18914,-0.25889 -0.0593,-0.10441 -0.11038,-0.22839 -0.16123,-0.35192 -0.0651,0.0528 -0.1301,0.10594 -0.21239,0.20722 -0.0823,0.10128 -0.18178,0.25116 -0.24598,0.41496 -0.0642,0.16381 -0.093,0.34152 -0.10128,0.51315 -0.008,0.17164 0.004,0.33716 0.0434,0.48369 0.0399,0.14655 0.10762,0.27415 0.1788,0.36897 0.0712,0.0948 0.1459,0.15667 0.22997,0.21239 0.16442,0.10893 0.50126,0.2735 0.78806,0.0377 0.11504,-0.0946 0.28062,-0.27165 0.39429,-0.47853 0.11369,-0.20691 0.17544,-0.44408 0.29611,-0.8046 0.22416,-1.04397 3.35716,2.31593 4.9475,2.20917 0.22318,-0.015 1.08714,0.14901 2.01848,-1.27434 a 10.154099,10.153998 0 0 0 1.76217,0.46922 10.154099,10.153998 0 0 0 0.84387,0.12402 c 0.31828,0.034 0.63806,0.0551 0.95912,0.0589 0.005,6e-5 0.0107,4.7e-4 0.016,5.2e-4 0.007,-5e-5 0.0145,-4.5e-4 0.0217,-5.2e-4 0.33175,-0.003 0.66184,-0.026 0.99064,-0.0615 a 10.154099,10.153998 0 0 0 0.6873,-0.0992 c 0.0713,-0.0127 0.14242,-0.0251 0.21342,-0.0393 a 10.154099,10.153998 0 0 0 1.66811,-0.45217 c 0.93129,1.42312 1.79532,1.25937 2.01849,1.27434 1.59036,0.10676 4.72334,-3.25313 4.9475,-2.20917 0.12068,0.36052 0.1824,0.59773 0.2961,0.8046 0.11369,0.20691 0.27925,0.38397 0.39429,0.47853 0.28681,0.23574 0.62366,0.0712 0.78807,-0.0377 0.0841,-0.0557 0.15876,-0.11756 0.22996,-0.21239 0.0712,-0.0948 0.13912,-0.22245 0.1788,-0.36897 0.04,-0.14655 0.0521,-0.31206 0.0439,-0.48369 -0.008,-0.17164 -0.037,-0.34935 -0.10129,-0.51315 -0.0641,-0.1638 -0.1637,-0.31368 -0.24598,-0.41496 -0.0823,-0.10128 -0.14731,-0.15444 -0.21239,-0.20722 -0.0508,0.12353 -0.10189,0.24752 -0.16123,0.35192 -0.0593,0.10441 -0.12688,0.18954 -0.18914,0.25889 -0.0623,0.0693 -0.11902,0.12286 -0.1726,0.13488 -0.0536,0.012 -0.10405,-0.0173 -0.14934,-0.1049 -0.12118,-0.41068 -0.40558,-0.66176 -0.82992,-0.67025 -1.29564,-0.026 -4.3148,3.96156 -5.8906,2.12649 -0.0459,-0.0534 -0.20873,-0.26146 -0.35657,-0.4501 a 10.154099,10.153998 0 0 0 1.66553,-0.97617 c 0.0596,-0.0418 0.11854,-0.0841 0.17725,-0.12712 a 10.154099,10.153998 0 0 0 0.68162,-0.54157 c 0.0551,-0.0482 0.1056,-0.1015 0.15968,-0.1509 a 10.154099,10.153998 0 0 0 0.98908,-1.04851 c 0.10831,-0.13166 0.219,-0.26116 0.3204,-0.39791 a 10.154099,10.153998 0 0 0 0.33693,-0.49455 c 0.12235,-0.18712 0.23752,-0.37778 0.34726,-0.57257 a 10.154099,10.153998 0 0 0 0.24185,-0.44493 c 0.17549,-0.35144 0.33667,-0.71062 0.47077,-1.08159 0.48542,0.2386 0.94058,0.45986 1.25005,0.59738 0.48966,0.2176 0.6584,0.25066 0.81649,0.28215 0.15811,0.0315 0.30533,0.0613 0.44855,0.10542 0.14322,0.0442 0.28226,0.10252 0.36277,0.1571 0.0804,0.0546 0.10197,0.10559 0.0827,0.15296 -0.0193,0.0474 -0.0793,0.0912 -0.15658,0.13798 -0.0772,0.0468 -0.17126,0.0965 -0.28267,0.13539 -0.11147,0.0389 -0.24028,0.0673 -0.36948,0.0956 0.0432,0.0676 0.0864,0.13475 0.17518,0.22531 0.0888,0.0906 0.22309,0.20403 0.37621,0.28732 0.15309,0.0833 0.32469,0.13638 0.4935,0.1695 0.16854,0.0332 0.33392,0.0463 0.48421,0.0315 0.15055,-0.0148 0.28618,-0.0574 0.38964,-0.10852 0.10371,-0.0512 0.17518,-0.11048 0.24185,-0.17932 0.0667,-0.0688 0.12835,-0.14709 0.16433,-0.2589 0.036,-0.11182 0.0456,-0.25492 -0.0253,-0.41651 -0.0709,-0.16158 -0.22295,-0.34035 -0.41186,-0.47542 -0.18891,-0.1351 -0.41449,-0.22683 -0.75448,-0.39119 -0.33973,-0.16436 -0.7936,-0.40112 -1.39888,-0.75241 -0.45117,-0.2618 -0.99493,-0.5933 -1.55184,-0.93483 a 10.154099,10.153998 0 0 0 0.25993,-2.28358 c -1.1e-4,-0.37156 -0.0269,-0.7397 -0.0672,-1.10587 a 10.154099,10.153998 0 0 0 -0.0455,-0.33073 c -0.0376,-0.26204 -0.0854,-0.52135 -0.14315,-0.77877 a 10.154099,10.153998 0 0 0 -0.0816,-0.35346 c -0.0868,-0.33112 -0.18689,-0.65852 -0.30644,-0.97876 a 10.154099,10.153998 0 0 0 -0.046,-0.1204 c -0.12282,-0.31666 -0.26444,-0.62546 -0.41858,-0.92863 a 10.154099,10.153998 0 0 0 -0.18242,-0.33538 c -0.12237,-0.2198 -0.25287,-0.43465 -0.3917,-0.64544 a 10.154099,10.153998 0 0 0 -0.21033,-0.31419 c -0.18655,-0.26146 -0.38474,-0.51531 -0.59686,-0.75964 a 10.154099,10.153998 0 0 0 -0.076,-0.0961 l 1.06041,-0.67231 c 0.12788,0.0524 0.25466,0.0372 0.38137,0.0212 0.36343,-0.12346 0.72693,-0.24707 1.10949,-0.44752 0.38256,-0.20045 0.78438,-0.47786 1.13947,-0.68471 0.35513,-0.20686 0.66345,-0.34314 1.07228,-0.55036 0.40881,-0.20719 0.9178,-0.48525 1.25832,-0.80408 0.34052,-0.31885 0.51263,-0.67844 0.38034,-1.15859 -0.055,-0.19959 -0.16321,-0.42007 -0.29921,-0.62838 v -5.2e-4 c -0.14711,-0.20072 -0.31517,-0.379 -0.48265,-0.50075 -0.20135,-0.14643 -0.4012,-0.21118 -0.60307,-0.21342 -0.20188,-0.002 -0.4058,0.058 -0.61495,0.16123 -0.41833,0.20639 -0.85787,0.58486 -1.19579,0.89452 -0.33793,0.30966 -0.57431,0.55026 -0.89297,0.80977 -0.31867,0.2595 -0.71996,0.53781 -1.04231,0.82527 -0.32237,0.28745 -0.5657,0.58389 -0.80925,0.88057 -0.0646,0.12237 -0.12747,0.24554 -0.11111,0.39997 l -1.24385,0.78083 a 10.154099,10.153998 0 0 0 -0.14935,-0.11627 c -0.22219,-0.18772 -0.45088,-0.36583 -0.68678,-0.53278 a 10.154099,10.153998 0 0 0 -0.33796,-0.22428 c -0.19905,-0.12924 -0.40179,-0.25071 -0.60875,-0.36535 a 10.154099,10.153998 0 0 0 -0.34365,-0.18603 c -0.28515,-0.14391 -0.57578,-0.27596 -0.87281,-0.39223 a 10.154099,10.153998 0 0 0 -0.1881,-0.0718 c -0.3043,-0.1122 -0.61407,-0.20724 -0.92811,-0.2899 a 10.154099,10.153998 0 0 0 -0.35295,-0.0827 c -0.25042,-0.0564 -0.50277,-0.10316 -0.75758,-0.14056 a 10.154099,10.153998 0 0 0 -0.33589,-0.0475 c -0.35833,-0.0404 -0.71907,-0.0678 -1.08263,-0.0698 a 10.154099,10.153998 0 0 0 -0.0501,0 10.154099,10.153998 0 0 0 -0.0253,0 c -0.36457,0.001 -0.72638,0.0278 -1.08573,0.0677 a 10.154099,10.153998 0 0 0 -0.34933,0.0491 c -0.24835,0.0363 -0.49426,0.0815 -0.73845,0.13591 a 10.154099,10.153998 0 0 0 -0.38189,0.0889 c -0.29725,0.0784 -0.59046,0.16949 -0.87902,0.2744 a 10.154099,10.153998 0 0 0 -0.28164,0.10749 c -0.27448,0.10913 -0.54396,0.22995 -0.80822,0.36277 a 10.154099,10.153998 0 0 0 -0.39739,0.21549 c -0.18527,0.10369 -0.36682,0.21322 -0.5457,0.32866 a 10.154099,10.153998 0 0 0 -0.39481,0.26252 c -0.18676,0.13328 -0.36649,0.27735 -0.54467,0.42374 a 10.154099,10.153998 0 0 0 -0.2744,0.21343 l -1.2609,-0.79169 c 0.0164,-0.15446 -0.0465,-0.27758 -0.11111,-0.39997 -0.24355,-0.29668 -0.48743,-0.59312 -0.80977,-0.88057 -0.32234,-0.28746 -0.72313,-0.56577 -1.0418,-0.82527 -0.31866,-0.25951 -0.55503,-0.50012 -0.89296,-0.80977 -0.33792,-0.30966 -0.77746,-0.68813 -1.1958,-0.89452 -0.20917,-0.1032 -0.41306,-0.16347 -0.61495,-0.16123 z m 0.56793,1.37201 c 0.0825,0.004 0.16206,0.0308 0.22944,0.0785 0.19416,0.13736 0.24021,0.40581 0.10284,0.59996 -0.13739,0.19415 -0.40633,0.24021 -0.60048,0.10284 -0.19415,-0.13737 -0.24022,-0.40581 -0.10284,-0.59997 0.0847,-0.11964 0.22461,-0.18793 0.37104,-0.18138 z m 24.10344,0 c 0.14645,-0.006 0.28628,0.0617 0.37103,0.18138 0.13732,0.19416 0.0909,0.4626 -0.10335,0.59997 -0.19413,0.13738 -0.46259,0.0913 -0.59996,-0.10284 -0.1374,-0.19415 -0.0913,-0.4626 0.10283,-0.59996 0.0674,-0.0477 0.14701,-0.0747 0.22945,-0.0785 z m -21.68964,1.69602 c 0.0825,0.004 0.16208,0.0308 0.22945,0.0785 0.19417,0.1374 0.2402,0.4063 0.10283,0.60048 -0.13737,0.1942 -0.40633,0.24029 -0.60048,0.10283 -0.19415,-0.13737 -0.24021,-0.40632 -0.10283,-0.60048 0.0847,-0.11964 0.22461,-0.18792 0.37103,-0.18138 z m 19.27583,0 c 0.14642,-0.007 0.28638,0.0617 0.37104,0.18138 0.13738,0.19416 0.0913,0.46311 -0.10284,0.60048 -0.19415,0.13746 -0.46311,0.0914 -0.60048,-0.10283 -0.13737,-0.19418 -0.0913,-0.46308 0.10284,-0.60048 0.0674,-0.0477 0.14697,-0.0747 0.22944,-0.0785 z m -12.4995,0.6258 h 5.75262 c 0.23609,0 0.42634,0.19024 0.42634,0.42633 0,0.23609 -0.19025,0.42633 -0.42634,0.42633 h -5.75262 c -0.23609,0 -0.42633,-0.19024 -0.42633,-0.42633 0,-0.23609 0.19024,-0.42633 0.42633,-0.42633 z m -2.43757,1.8371 h 10.62777 c 0.24142,0 0.43563,0.19016 0.43563,0.42633 0,0.23617 -0.19421,0.42633 -0.43563,0.42633 h -10.62777 c -0.24142,0 -0.43564,-0.19016 -0.43564,-0.42633 0,-0.23617 0.19422,-0.42633 0.43564,-0.42633 z m -1.55546,1.8371 h 13.73869 c 0.24142,0 0.43615,0.19016 0.43615,0.42633 0,0.23617 -0.19473,0.42633 -0.43615,0.42633 h -13.73869 c -0.24141,0 -0.43615,-0.19016 -0.43615,-0.42633 0,-0.23617 0.19474,-0.42633 0.43615,-0.42633 z m -0.9648,1.83709 h 15.66829 c 0.24142,0 0.43563,0.19016 0.43563,0.42633 0,0.23617 -0.19421,0.42633 -0.43563,0.42633 h -15.66829 c -0.24142,0 -0.43564,-0.19016 -0.43564,-0.42633 0,-0.23617 0.19422,-0.42633 0.43564,-0.42633 z m -0.46612,1.8371 h 16.60053 c 0.24142,0 0.43615,0.19016 0.43615,0.42633 0,0.23617 -0.19473,0.42633 -0.43615,0.42633 h -16.60053 c -0.24141,0 -0.43615,-0.19016 -0.43615,-0.42633 0,-0.23617 0.19474,-0.42633 0.43615,-0.42633 z m 0,1.8371 h 16.60053 c 0.24142,0 0.43615,0.18964 0.43615,0.42581 0,0.23617 -0.19473,0.42633 -0.43615,0.42633 h -16.60053 c -0.24141,0 -0.43615,-0.19016 -0.43615,-0.42633 0,-0.23617 0.19474,-0.42581 0.43615,-0.42581 z m 0.46612,1.83658 h 15.66829 c 0.24142,0 0.43563,0.19016 0.43563,0.42633 0,0.23617 -0.19421,0.42633 -0.43563,0.42633 h -15.66829 c -0.24142,0 -0.43564,-0.19016 -0.43564,-0.42633 0,-0.23617 0.19422,-0.42633 0.43564,-0.42633 z m 0.9648,1.83761 h 13.73869 c 0.24142,0 0.43615,0.19016 0.43615,0.42633 0,0.23617 -0.19473,0.42582 -0.43615,0.42582 h -13.73869 c -0.24141,0 -0.43615,-0.18965 -0.43615,-0.42582 0,-0.23617 0.19474,-0.42633 0.43615,-0.42633 z m 1.55546,1.83658 h 10.62777 c 0.24141,0 0.43563,0.19016 0.43563,0.42633 0,0.23617 -0.19422,0.42633 -0.43563,0.42633 h -10.62777 c -0.24142,0 -0.43564,-0.19016 -0.43564,-0.42633 0,-0.23617 0.19422,-0.42633 0.43564,-0.42633 z m 2.43757,1.8371 h 5.75262 c 0.23609,0 0.42634,0.19024 0.42634,0.42633 0,0.23609 -0.19025,0.42633 -0.42634,0.42633 h -5.75262 c -0.23609,0 -0.42633,-0.19024 -0.42633,-0.42633 0,-0.23609 0.19024,-0.42633 0.42633,-0.42633 z m -14.251843,6.09523 c -2.076492,0 -2.048042,2.11632 -1.299662,2.8019 0.612598,0.56118 1.986726,0.56118 2.599324,0 0.218791,-0.20044 0.218791,-0.64965 0,-0.85008 -0.393761,-0.36072 -1.457631,0.47131 -1.670699,0 -0.06692,-0.14803 0.371014,-0.1798 0.371037,-0.34003 2.3e-5,-0.16043 -0.438583,-0.19181 -0.371554,-0.34003 0.213184,-0.47139 1.277365,0.3608 1.671216,0 0.218791,-0.20043 0.218791,-0.65016 0,-0.85059 -0.306299,-0.2806 -0.803054,-0.42117 -1.299662,-0.42117 z m 10.901143,0 c -1.07397,-1.3e-4 -2.00573,2.07021 -1.44125,3.03134 0.25247,0.42986 0.96093,4.7e-4 1.44125,5.2e-4 0.48033,7e-5 1.18817,0.42982 1.44074,0 0.56474,-0.961 -0.36675,-3.03173 -1.44074,-3.03186 z m 5.82911,0 c -0.16246,0 -0.32458,0.0605 -0.42478,0.18087 -0.20043,0.24088 0.20043,0.78128 0,1.02216 -0.16035,0.19271 -0.52023,0.19271 -0.68058,0 -0.20043,-0.24088 0.20043,-0.78128 0,-1.02216 -0.20014,-0.24054 -0.64993,-0.24054 -0.85008,0 -0.56118,0.67444 -0.56118,2.18688 0,2.86133 0.20041,0.24085 0.64967,0.24085 0.85008,0 0.20041,-0.24086 -0.20041,-0.7808 0,-1.02165 0.16035,-0.19271 0.52023,-0.19271 0.68058,0 0.20041,0.24085 -0.20041,0.78079 0,1.02165 0.20041,0.24085 0.64967,0.24085 0.85007,0 0.56118,-0.67445 0.56118,-2.18689 0,-2.86133 -0.1002,-0.12043 -0.26283,-0.18087 -0.42529,-0.18087 z m 2.91816,0 c -1.07396,-1.3e-4 -2.00574,2.07021 -1.44125,3.03134 0.25246,0.42986 0.96041,4.7e-4 1.44074,5.2e-4 0.48033,7e-5 1.18868,0.42982 1.44125,0 0.56474,-0.961 -0.36674,-3.03173 -1.44074,-3.03186 z m 14.8792,0 c -2.07672,0 -2.048,2.11636 -1.29966,2.8019 0.6126,0.56118 1.98672,0.56118 2.59932,0 0.21879,-0.20044 0.21879,-0.64965 0,-0.85008 -0.39376,-0.36072 -1.45763,0.47131 -1.6707,0 -0.0669,-0.14803 0.37102,-0.1798 0.37104,-0.34003 3e-5,-0.16043 -0.43858,-0.19181 -0.37155,-0.34003 0.21318,-0.47139 1.27736,0.3608 1.67121,0 0.21879,-0.20043 0.21879,-0.65016 0,-0.85059 -0.3063,-0.2806 -0.80305,-0.42117 -1.29966,-0.42117 z m -7.34167,5.2e-4 c -0.50361,2e-5 -1.00706,0.14038 -1.31723,0.42065 -0.62106,0.56119 -0.62105,1.81954 0,2.38073 0.62107,0.56119 2.0134,0.56119 2.63446,0 0.17743,-0.16033 0.14673,-0.49613 0,-0.68006 -0.24683,-0.23417 -0.45915,-0.39542 -0.6382,-0.50281 0.18133,-0.10333 0.39448,-0.26784 0.6382,-0.51728 0.14673,-0.18397 0.17746,-0.52023 0,-0.68058 -0.31025,-0.28034 -0.81361,-0.42067 -1.31723,-0.42065 z m -19.96777,5.2e-4 c -0.54688,1e-5 -1.09357,0.15441 -1.43041,0.46354 -0.24087,0.22105 -0.24087,0.71687 0,0.93792 0.24087,0.22105 0.78078,-0.22105 1.02164,0 0.43355,0.39787 -0.43354,1.28987 0,1.68775 0.19268,0.17682 0.62486,0.17682 0.81753,0 0.43354,-0.39788 -0.43354,-1.28988 0,-1.68775 0.24087,-0.22105 0.78129,0.22105 1.02216,0 0.24087,-0.22105 0.24087,-0.71687 0,-0.93792 -0.33687,-0.30915 -0.88404,-0.46354 -1.43092,-0.46354 z m 16.98707,0 c -0.15733,-0.006 -0.32698,0.052 -0.44907,0.14366 -0.26964,0.20257 -0.10836,1.03409 -0.42529,1.03404 -0.31689,-5e-5 -0.15574,-0.83139 -0.4253,-1.03404 -0.24072,-0.14597 -0.55076,-0.21381 -0.76481,0 -0.56117,0.68252 -0.56117,2.2129 0,2.89543 0.2004,0.24375 0.64967,0.24375 0.85008,0 0.27479,-0.33422 -0.37065,-1.27593 0,-1.418 0.18844,-0.0722 0.14245,0.59062 0.34003,0.59066 0.19784,4e-5 0.15186,-0.66354 0.34054,-0.59118 0.37079,0.14221 -0.27492,1.08415 0,1.41852 0.20043,0.24377 0.64965,0.24377 0.85008,0 0.5611,-0.68245 0.561,-2.21287 0,-2.89543 -0.0789,-0.096 -0.19389,-0.139 -0.31626,-0.14366 z m -20.7977,5.1e-4 c -0.95941,0.0355 -1.81937,0.49643 -1.30276,1.27021 0.25052,0.37522 1.45533,0.26733 1.31362,0.68006 -0.12032,0.35043 -1.00392,-0.2577 -1.31362,0 -0.24084,0.20041 -0.24084,0.64967 0,0.85008 0.9918,0.82529 3.68733,0.38716 2.86133,-0.85008 -0.2505,-0.37521 -1.45585,-0.26736 -1.31414,-0.68006 0.12032,-0.35039 1.00446,0.25769 1.31414,0 0.24087,-0.20043 0.24087,-0.65016 0,-0.85059 -0.37137,-0.30903 -0.98292,-0.44091 -1.55857,-0.41962 z m 27.33425,0.001 c -0.44206,0.0173 -0.88426,0.15723 -1.1901,0.46199 -0.62114,0.61892 -0.62114,2.00675 0,2.62567 0.17747,0.17685 0.57545,0.17685 0.75292,0 0.2903,-0.28926 -0.43262,-1.6364 0,-1.22731 0.43263,0.40908 0.739,1.01906 1.2976,1.22731 0.24576,0.0916 0.66078,-0.27538 0.58446,-0.52554 -0.13988,-0.45854 -1.50104,-0.83309 -1.04645,-0.98961 0,0 0.83227,-0.0606 1.04645,-0.36018 0.49729,-0.69548 -0.47234,-1.25043 -1.44488,-1.21233 z m -0.262,0.39791 c 0.29371,-0.0118 0.68423,0.21059 0.6842,0.45992 -3e-5,0.30687 -0.59153,0.57322 -0.8661,0.41186 -0.1228,-0.0722 -2e-5,-0.27461 0,-0.41186 2e-5,-0.13724 -0.12281,-0.33973 0,-0.41186 0.0515,-0.0302 0.11412,-0.0453 0.1819,-0.0481 z m -3.68969,0.0749 c 0.29372,-0.0118 0.68422,0.2106 0.68419,0.45992 -4e-5,0.30687 -0.59153,0.5727 -0.86609,0.41134 -0.1228,-0.0722 -2e-5,-0.27409 0,-0.41134 2e-5,-0.13724 -0.12282,-0.33972 0,-0.41186 0.0515,-0.0302 0.11412,-0.0454 0.1819,-0.0481 z m -15.88896,0.44545 c 0.46029,6e-5 0.85957,0.8878 0.61754,1.29966 -0.10825,0.18421 -0.41168,-4.9e-4 -0.61754,-5.2e-4 -0.20585,-2e-5 -0.50933,0.18423 -0.61753,0 -0.24192,-0.41191 0.15726,-1.2992 0.61753,-1.29914 z m 8.74727,0 c 0.46029,6e-5 0.85905,0.8878 0.61702,1.29966 -0.10825,0.18421 -0.41167,-4.9e-4 -0.61753,-5.2e-4 -0.20585,-2e-5 -0.50934,0.18423 -0.61754,0 -0.24192,-0.41191 0.15778,-1.2992 0.61805,-1.29914 z m 7.14169,0.90744 c 0.29372,-0.0118 0.68422,0.21059 0.68419,0.45992 -4e-5,0.30686 -0.59153,0.57322 -0.86609,0.41186 -0.1228,-0.0722 -2e-5,-0.27462 0,-0.41186 2e-5,-0.13725 -0.12282,-0.33972 0,-0.41186 0.0515,-0.0302 0.11412,-0.0453 0.1819,-0.0481 z m -15.08125,3.23597 c -0.13721,0 -0.27401,0.045 -0.35864,0.13436 -0.42316,0.44669 0.42316,1.44829 0,1.89498 -0.21159,0.22336 -0.68603,0.22336 -0.89762,0 -0.42316,-0.44669 0.42315,-1.44829 0,-1.89498 -0.16902,-0.17842 -0.54927,-0.17843 -0.7183,0 -0.59242,0.62535 -0.59241,2.02771 0,2.65307 0.55011,0.58071 1.78359,0.58071 2.33371,0 0.59241,-0.62535 0.59241,-2.02771 0,-2.65307 -0.0846,-0.0893 -0.22193,-0.13436 -0.35915,-0.13436 z m 7.93956,0 v 5.2e-4 c -1.07396,-1.3e-4 -2.00574,2.06968 -1.44125,3.03082 0.25246,0.42986 0.96042,4.7e-4 1.44074,5.2e-4 0.48033,7e-5 1.18868,0.42981 1.44125,0 0.56474,-0.96101 -0.36674,-3.03172 -1.44074,-3.03186 z m 7.36596,0 v 5.2e-4 c -1.07397,-1.3e-4 -2.00573,2.06968 -1.44125,3.03082 0.25247,0.42986 0.96041,4.7e-4 1.44074,5.2e-4 0.48033,7e-5 1.18868,0.42981 1.44125,0 0.56474,-0.96101 -0.36675,-3.03172 -1.44074,-3.03186 z m -12.28245,5.2e-4 c -2.07672,0 -2.04799,2.11585 -1.29966,2.80138 0.6126,0.56119 1.9862,0.56119 2.5988,0 0.21879,-0.20043 0.21879,-0.64964 0,-0.85008 -0.39376,-0.36071 -1.45711,0.47132 -1.67018,0 -0.0669,-0.14803 0.37102,-0.1798 0.37104,-0.34003 2e-5,-0.16043 -0.43859,-0.19234 -0.37156,-0.34055 0.21318,-0.4714 1.27685,0.3608 1.6707,0 0.21879,-0.20043 0.21879,-0.64964 0,-0.85007 -0.3063,-0.28059 -0.80253,-0.42065 -1.29914,-0.42065 z m 8.59896,0 c -0.54688,0 -1.09357,0.15492 -1.43041,0.46406 -0.24087,0.22105 -0.24087,0.71687 0,0.93792 0.24086,0.22106 0.78079,-0.22105 1.02165,0 0.43354,0.39788 -0.43354,1.28988 0,1.68776 0.19268,0.17682 0.62485,0.17682 0.81752,0 0.43354,-0.39788 -0.43354,-1.28988 0,-1.68776 0.24087,-0.22105 0.78129,0.22106 1.02216,0 0.24086,-0.22105 0.24086,-0.71687 0,-0.93792 -0.33687,-0.30916 -0.88404,-0.46407 -1.43092,-0.46406 z m -16.04347,5.2e-4 c -0.51281,-1e-5 -1.02561,0.16123 -1.34152,0.48369 -0.4517,0.46107 -0.4517,1.49488 0,1.95595 0.45171,0.46108 1.91607,3e-5 1.91616,0 0,0 0.0978,0.78234 0.38344,0.78238 0.33206,4e-5 0.87675,-2.23479 0.38344,-2.73833 -0.3159,-0.32244 -0.82871,-0.48369 -1.34152,-0.48369 z m 0.20929,0.74827 c 0.0847,0.003 0.16303,0.0227 0.22738,0.0605 0.1535,0.0902 2e-5,0.34314 0,0.5147 -2e-5,0.17155 0.15352,0.42453 0,0.5147 -0.34325,0.20161 -1.08267,-0.13112 -1.08262,-0.5147 4e-5,-0.31167 0.48809,-0.59005 0.85524,-0.57516 z m 12.15171,0.17157 c 0.46029,6e-5 0.85905,0.8878 0.61702,1.29966 -0.10825,0.18421 -0.41167,3e-5 -0.61753,0 -0.20585,-2e-5 -0.50934,0.18371 -0.61754,-5.2e-4 -0.24192,-0.41191 0.15778,-1.2992 0.61805,-1.29914 z m 7.36545,0 c 0.46028,5e-5 0.85956,0.8878 0.61753,1.29966 -0.10824,0.18421 -0.41167,3e-5 -0.61753,0 -0.20586,-2e-5 -0.50934,0.18371 -0.61754,-5.2e-4 -0.24193,-0.41191 0.15726,-1.2992 0.61754,-1.29914 z" />
  </g>
</svg>
