<?xml version="1.0" encoding="UTF-8" standalone="no"?>
<!-- Created with Inkscape (http://www.inkscape.org/) -->

<svg
   width="32.74107mm"
   height="26.936424mm"
   viewBox="0 0 32.741069 26.936422"
   version="1.1"
   id="svg1"
   inkscape:version="1.4.2 (f4327f4, 2025-05-13)"
   sodipodi:docname="EHQALogo3.svg"
   inkscape:export-filename="C:\Users\buste\Pictures\ESTAHAMBREQUEATA\EHQALogoBlanco3.png"
   inkscape:export-xdpi="336.37042"
   inkscape:export-ydpi="336.37042"
   xmlns:inkscape="http://www.inkscape.org/namespaces/inkscape"
   xmlns:sodipodi="http://sodipodi.sourceforge.net/DTD/sodipodi-0.dtd"
   xmlns="http://www.w3.org/2000/svg"
   xmlns:svg="http://www.w3.org/2000/svg">
  <sodipodi:namedview
     id="namedview1"
     pagecolor="#ffffff"
     bordercolor="#000000"
     borderopacity="0.25"
     inkscape:showpageshadow="2"
     inkscape:pageopacity="0.0"
     inkscape:pagecheckerboard="0"
     inkscape:deskcolor="#d1d1d1"
     inkscape:document-units="mm"
     inkscape:zoom="2.8284271"
     inkscape:cx="-9.0156115"
     inkscape:cy="87.858018"
     inkscape:window-width="1920"
     inkscape:window-height="991"
     inkscape:window-x="-9"
     inkscape:window-y="-9"
     inkscape:window-maximized="1"
     inkscape:current-layer="layer1"
     showguides="false" />
  <defs
     id="defs1">
    <inkscape:path-effect
       effect="fillet_chamfer"
       id="path-effect16"
       is_visible="true"
       lpeversion="1"
       nodesatellites_param="F,0,0,1,0,0,0,1 @ F,0,0,1,0,0.39095062,0,1 @ F,0,0,1,0,0.33994647,0,1"
       radius="0"
       unit="px"
       method="auto"
       mode="F"
       chamfer_steps="1"
       flexible="false"
       use_knot_distance="true"
       apply_no_radius="true"
       apply_with_radius="true"
       only_selected="false"
       hide_knots="false" />
    <inkscape:path-effect
       effect="fillet_chamfer"
       id="path-effect16-2"
       is_visible="true"
       lpeversion="1"
       nodesatellites_param="F,0,0,1,0,0,0,1 @ F,0,0,1,0,0.39095062,0,1 @ F,0,0,1,0,0.33994647,0,1"
       radius="0"
       unit="px"
       method="auto"
       mode="F"
       chamfer_steps="1"
       flexible="false"
       use_knot_distance="true"
       apply_no_radius="true"
       apply_with_radius="true"
       only_selected="false"
       hide_knots="false" />
    <inkscape:path-effect
       effect="fillet_chamfer"
       id="path-effect16-25"
       is_visible="true"
       lpeversion="1"
       nodesatellites_param="F,0,0,1,0,0,0,1 @ F,0,0,1,0,0.39095062,0,1 @ F,0,0,1,0,0.33994647,0,1"
       radius="0"
       unit="px"
       method="auto"
       mode="F"
       chamfer_steps="1"
       flexible="false"
       use_knot_distance="true"
       apply_no_radius="true"
       apply_with_radius="true"
       only_selected="false"
       hide_knots="false" />
    <inkscape:path-effect
       effect="fillet_chamfer"
       id="path-effect16-25-9"
       is_visible="true"
       lpeversion="1"
       nodesatellites_param="F,0,0,1,0,0,0,1 @ F,0,0,1,0,0.39095062,0,1 @ F,0,0,1,0,0.33994647,0,1"
       radius="0"
       unit="px"
       method="auto"
       mode="F"
       chamfer_steps="1"
       flexible="false"
       use_knot_distance="true"
       apply_no_radius="true"
       apply_with_radius="true"
       only_selected="false"
       hide_knots="false" />
  </defs>
  <g
     inkscape:label="Capa 1"
     inkscape:groupmode="layer"
     id="layer1"
     transform="translate(-100.6023,-172.06425)">
    <path
       id="path4"
       style="fill:#062e32;fill-opacity:1;stroke-width:0.292077"
       d="m 102.29891,172.06437 c -0.23474,0.002 -0.46704,0.0779 -0.70124,0.24816 -0.19468,0.14156 -0.39023,0.34887 -0.56122,0.58227 l -6.1e-4,6e-4 c -0.15822,0.24223 -0.2834,0.4986 -0.34731,0.73068 -0.15375,0.5583 0.0457,0.97644 0.44165,1.34719 0.39593,0.37074 0.98838,0.69406 1.46376,0.93498 0.47539,0.24092 0.83392,0.39941 1.24685,0.63994 0.4129,0.24054 0.88012,0.56309 1.32495,0.79618 0.44487,0.23308 0.86752,0.37679 1.29011,0.52037 0.1473,0.0185 0.2942,0.0363 0.44285,-0.0247 l 1.25526,0.79617 a 11.807059,11.806941 0 0 0 -0.35814,0.45667 c -0.12513,0.15577 -0.25227,0.30981 -0.36894,0.47111 a 11.807059,11.806941 0 0 0 -0.36173,0.5402 c -0.11581,0.18019 -0.22614,0.36282 -0.33169,0.5486 a 11.807059,11.806941 0 0 0 -0.28963,0.5306 c -0.13139,0.26154 -0.24784,0.52947 -0.35932,0.79976 a 11.807059,11.806941 0 0 0 -0.21692,0.56304 c -0.10651,0.30091 -0.203,0.605 -0.28482,0.91395 a 11.807059,11.806941 0 0 0 -0.11,0.47109 c -0.061,0.27565 -0.1114,0.55322 -0.15263,0.83343 a 11.807059,11.806941 0 0 0 -0.0607,0.43924 c -0.0455,0.41791 -0.0758,0.83853 -0.0763,1.26248 a 11.807059,11.806941 0 0 0 0,9.8e-4 11.807059,11.806941 0 0 1 0,6e-4 11.807059,11.806941 0 0 0 0.29804,2.6361 c -0.65907,0.40428 -1.30122,0.79614 -1.83451,1.10561 -0.70383,0.40849 -1.23144,0.6838 -1.62661,0.87491 -0.39516,0.19111 -0.65765,0.29781 -0.87729,0.45487 -0.21966,0.15705 -0.39638,0.36493 -0.47891,0.55281 -0.0825,0.18789 -0.0712,0.35431 -0.0294,0.48432 0.0417,0.13 0.11349,0.22101 0.19108,0.30104 0.0776,0.0801 0.16074,0.149 0.28122,0.20851 0.12046,0.0596 0.27818,0.10896 0.45307,0.1262 0.17489,0.0172 0.36702,0.002 0.56303,-0.0366 0.19602,-0.0386 0.39581,-0.10025 0.57385,-0.19708 0.17805,-0.0969 0.3342,-0.2288 0.43744,-0.3341 0.10325,-0.10533 0.15347,-0.18342 0.20371,-0.26199 -0.15023,-0.0329 -0.30006,-0.0659 -0.42964,-0.11116 -0.12958,-0.0452 -0.23897,-0.10306 -0.32869,-0.15744 -0.0898,-0.0544 -0.16022,-0.10533 -0.18267,-0.16043 -0.0225,-0.0551 0.004,-0.11441 0.0967,-0.17786 0.0935,-0.0635 0.2553,-0.13132 0.42183,-0.18268 0.16653,-0.0513 0.33773,-0.0859 0.52157,-0.12258 0.18383,-0.0366 0.38003,-0.0751 0.9494,-0.32807 0.36688,-0.16306 0.90484,-0.4244 1.48239,-0.70846 a 11.807059,11.806941 0 0 0 6.27326,6.79964 c -0.17354,0.22147 -0.36107,0.461 -0.41462,0.52338 -1.83235,2.13383 -5.34296,-2.50281 -6.84951,-2.47266 -0.49341,0.01 -0.82412,0.30182 -0.96502,0.77936 -0.0526,0.10186 -0.11128,0.13599 -0.17365,0.12199 -0.0623,-0.0139 -0.12832,-0.0763 -0.2007,-0.15685 -0.0724,-0.0805 -0.15092,-0.17964 -0.21992,-0.30103 -0.0689,-0.12141 -0.12836,-0.26557 -0.18749,-0.40921 -0.0757,0.0613 -0.15127,0.12318 -0.24696,0.24095 -0.0957,0.11777 -0.21137,0.29205 -0.28602,0.48251 -0.0746,0.19049 -0.10814,0.39711 -0.11778,0.59668 -0.009,0.19958 0.005,0.39205 0.0511,0.56244 0.0464,0.1704 0.12513,0.31877 0.2079,0.42903 0.0828,0.11022 0.16965,0.18217 0.2674,0.24696 0.19119,0.12666 0.58288,0.31799 0.91636,0.0439 0.13376,-0.10999 0.3263,-0.31585 0.45847,-0.55641 0.1322,-0.24059 0.20399,-0.51637 0.3443,-0.93557 0.26066,-1.21392 3.90368,2.69292 5.75291,2.56878 0.25951,-0.0173 1.26411,0.17327 2.34706,-1.48179 a 11.807059,11.806941 0 0 0 2.04902,0.54561 11.807059,11.806941 0 0 0 0.98125,0.14422 c 0.3701,0.0395 0.74191,0.0641 1.11524,0.0685 0.006,6e-5 0.0124,5.2e-4 0.0186,5.9e-4 0.008,-7e-5 0.0169,-5.2e-4 0.0252,-5.9e-4 0.38576,-0.003 0.76958,-0.0303 1.15191,-0.0715 a 11.807059,11.806941 0 0 0 0.79918,-0.11534 c 0.0829,-0.0148 0.1656,-0.0292 0.24816,-0.0457 a 11.807059,11.806941 0 0 0 1.93968,-0.52578 c 1.08289,1.65479 2.08755,1.46437 2.34706,1.48178 1.84925,0.12415 5.49224,-3.7827 5.75288,-2.56879 0.14033,0.4192 0.21211,0.69504 0.34432,0.93557 0.1322,0.2406 0.32471,0.44648 0.45848,0.55643 0.33349,0.27412 0.72517,0.0827 0.91634,-0.0439 0.0978,-0.0648 0.18461,-0.1367 0.2674,-0.24697 0.0828,-0.11023 0.16176,-0.25867 0.20791,-0.42902 0.0465,-0.17042 0.0606,-0.36287 0.0511,-0.56244 -0.009,-0.19959 -0.043,-0.40622 -0.11777,-0.59668 -0.0745,-0.19047 -0.19035,-0.36474 -0.28603,-0.48251 -0.0957,-0.11777 -0.17129,-0.17958 -0.24696,-0.24095 -0.0591,0.14364 -0.11848,0.2878 -0.18748,0.4092 -0.0689,0.12139 -0.14753,0.2204 -0.21993,0.30104 -0.0725,0.0806 -0.13839,0.14286 -0.20069,0.15683 -0.0623,0.0139 -0.12099,-0.0201 -0.17365,-0.12198 -0.14092,-0.47754 -0.47162,-0.76948 -0.96503,-0.77935 -1.50656,-0.0303 -5.01719,4.60645 -6.84952,2.47265 -0.0533,-0.0621 -0.2427,-0.30403 -0.4146,-0.52338 a 11.807059,11.806941 0 0 0 1.93665,-1.13506 c 0.0693,-0.0486 0.13784,-0.0978 0.20611,-0.14783 a 11.807059,11.806941 0 0 0 0.79256,-0.62973 c 0.0641,-0.0561 0.12279,-0.11801 0.18567,-0.17546 a 11.807059,11.806941 0 0 0 1.15011,-1.2192 c 0.12594,-0.15309 0.25463,-0.30367 0.37254,-0.46269 a 11.807059,11.806941 0 0 0 0.39178,-0.57504 c 0.14227,-0.21758 0.2762,-0.43928 0.40381,-0.66578 a 11.807059,11.806941 0 0 0 0.28122,-0.51731 c 0.20405,-0.40866 0.39148,-0.8263 0.54741,-1.25767 0.56443,0.27744 1.09368,0.53472 1.45353,0.69463 0.56938,0.25302 0.76559,0.29148 0.94941,0.32809 0.18384,0.0366 0.35504,0.0713 0.52157,0.12258 0.16653,0.0515 0.32821,0.1192 0.42182,0.18266 0.0935,0.0635 0.1186,0.12279 0.0961,0.17787 -0.0225,0.0551 -0.0922,0.10609 -0.18207,0.16044 -0.0897,0.0544 -0.19914,0.11221 -0.32868,0.15742 -0.12962,0.0453 -0.27941,0.0782 -0.42964,0.11117 0.0503,0.0787 0.10046,0.15668 0.20371,0.26198 0.10325,0.10533 0.25939,0.23725 0.43744,0.3341 0.17801,0.0969 0.37756,0.15858 0.57385,0.19709 0.19597,0.0386 0.38827,0.0538 0.56303,0.0366 0.17506,-0.0172 0.33276,-0.0668 0.45307,-0.12618 0.12059,-0.0596 0.20369,-0.12845 0.28121,-0.2085 0.0776,-0.0801 0.14924,-0.17104 0.19108,-0.30104 0.0419,-0.13003 0.053,-0.29643 -0.0294,-0.48433 -0.0824,-0.18788 -0.25925,-0.39575 -0.47891,-0.5528 -0.21966,-0.1571 -0.48196,-0.26377 -0.87729,-0.45489 -0.39503,-0.19111 -0.92279,-0.46641 -1.6266,-0.87489 -0.52462,-0.30441 -1.1569,-0.68987 -1.80447,-1.087 a 11.807059,11.806941 0 0 0 0.30226,-2.65533 c -1.3e-4,-0.43203 -0.0312,-0.86011 -0.0782,-1.28589 a 11.807059,11.806941 0 0 0 -0.0529,-0.38456 c -0.0437,-0.30469 -0.0993,-0.60622 -0.16644,-0.90555 a 11.807059,11.806941 0 0 0 -0.0949,-0.41095 c -0.10093,-0.38502 -0.21732,-0.76572 -0.35633,-1.13809 a 11.807059,11.806941 0 0 0 -0.0534,-0.14 c -0.14281,-0.3682 -0.30749,-0.72727 -0.48672,-1.07979 a 11.807059,11.806941 0 0 0 -0.21212,-0.38998 c -0.14229,-0.25558 -0.29404,-0.5054 -0.45547,-0.75051 a 11.807059,11.806941 0 0 0 -0.24456,-0.36534 c -0.21691,-0.30403 -0.44738,-0.59919 -0.69404,-0.88329 a 11.807059,11.806941 0 0 0 -0.0883,-0.11175 l 1.23303,-0.78176 c 0.1487,0.0609 0.29613,0.0433 0.44346,0.0247 0.4226,-0.14355 0.84527,-0.28728 1.29011,-0.52037 0.44483,-0.23308 0.91205,-0.55564 1.32495,-0.79616 0.41294,-0.24055 0.77146,-0.399 1.24684,-0.63995 0.47536,-0.24092 1.0672,-0.56425 1.46315,-0.93498 0.39596,-0.37076 0.59609,-0.78889 0.44227,-1.3472 -0.064,-0.23208 -0.18978,-0.48845 -0.34792,-0.73067 v -6e-4 c -0.17106,-0.2334 -0.3665,-0.44071 -0.56124,-0.58228 -0.23412,-0.17026 -0.46649,-0.24556 -0.70123,-0.24816 -0.23475,-0.002 -0.47186,0.0674 -0.71505,0.18748 -0.48644,0.23998 -0.99752,0.68007 -1.39045,1.04013 -0.39295,0.36009 -0.6678,0.63984 -1.03834,0.9416 -0.37054,0.30175 -0.83717,0.62536 -1.21199,0.95961 -0.37485,0.33425 -0.6578,0.67894 -0.94099,1.02392 -0.0751,0.14228 -0.1482,0.28551 -0.12919,0.46507 l -1.44634,0.90796 a 11.807059,11.806941 0 0 0 -0.17365,-0.13521 c -0.25836,-0.21828 -0.52427,-0.42538 -0.79859,-0.61951 a 11.807059,11.806941 0 0 0 -0.39296,-0.26078 c -0.23146,-0.15028 -0.4672,-0.29153 -0.70785,-0.42483 a 11.807059,11.806941 0 0 0 -0.39959,-0.21631 c -0.33157,-0.16734 -0.66953,-0.32089 -1.01491,-0.45608 a 11.807059,11.806941 0 0 0 -0.21872,-0.0835 c -0.35383,-0.13046 -0.71403,-0.24098 -1.07919,-0.33709 a 11.807059,11.806941 0 0 0 -0.41041,-0.0961 c -0.29119,-0.0656 -0.5846,-0.11994 -0.8809,-0.16344 a 11.807059,11.806941 0 0 0 -0.39058,-0.0552 c -0.41665,-0.047 -0.83611,-0.0789 -1.25885,-0.0811 a 11.807059,11.806941 0 0 0 -0.0583,0 11.807059,11.806941 0 0 0 -0.03,0 c -0.42392,9.8e-4 -0.84462,0.0323 -1.26246,0.0788 a 11.807059,11.806941 0 0 0 -0.4062,0.0572 c -0.28878,0.0422 -0.57472,0.0948 -0.85867,0.15803 a 11.807059,11.806941 0 0 0 -0.44406,0.10338 c -0.34564,0.0912 -0.68657,0.19707 -1.0221,0.31906 a 11.807059,11.806941 0 0 0 -0.32749,0.125 c -0.31916,0.12689 -0.63251,0.26738 -0.93978,0.42182 a 11.807059,11.806941 0 0 0 -0.46208,0.25056 c -0.21543,0.12058 -0.42654,0.24794 -0.63453,0.38217 a 11.807059,11.806941 0 0 0 -0.45909,0.30526 c -0.21716,0.15497 -0.42615,0.32249 -0.63333,0.49271 a 11.807059,11.806941 0 0 0 -0.31907,0.24818 l -1.46618,-0.92057 c 0.019,-0.1796 -0.054,-0.32276 -0.12918,-0.46508 -0.2832,-0.34497 -0.56677,-0.68967 -0.94159,-1.02392 -0.37482,-0.33425 -0.84085,-0.65786 -1.21139,-0.95961 -0.37053,-0.30176 -0.64539,-0.58154 -1.03833,-0.94159 -0.39294,-0.36007 -0.90402,-0.80015 -1.39046,-1.04013 -0.24321,-0.12001 -0.4803,-0.19009 -0.71505,-0.18748 z m 0.66038,1.59536 c 0.0959,0.004 0.18844,0.036 0.26679,0.0914 0.22577,0.15971 0.27931,0.47186 0.11958,0.69762 -0.15975,0.22575 -0.47249,0.27931 -0.69824,0.11959 -0.22576,-0.15974 -0.27931,-0.47188 -0.11957,-0.69766 0.0985,-0.13911 0.26118,-0.21851 0.43144,-0.2109 z m 28.02716,0 c 0.1703,-0.007 0.33291,0.0717 0.43145,0.2109 0.15967,0.22577 0.10569,0.53791 -0.12017,0.69764 -0.22574,0.15975 -0.5379,0.10619 -0.69763,-0.11958 -0.15976,-0.22576 -0.10617,-0.5379 0.11957,-0.69763 0.0784,-0.0554 0.17093,-0.087 0.26678,-0.0914 z m -25.22042,1.97211 c 0.0959,0.004 0.18847,0.036 0.2668,0.0914 0.22578,0.15978 0.2793,0.47244 0.11957,0.69824 -0.15973,0.22581 -0.47247,0.27939 -0.69823,0.11957 -0.22575,-0.15974 -0.27932,-0.47247 -0.11957,-0.69823 0.0985,-0.13913 0.26117,-0.21852 0.43143,-0.21092 z m 22.41369,0 c 0.17026,-0.009 0.33299,0.0718 0.43144,0.2109 0.15973,0.22578 0.10616,0.53851 -0.11958,0.69824 -0.22575,0.15983 -0.53849,0.1063 -0.69823,-0.11957 -0.15973,-0.2258 -0.10616,-0.53847 0.11957,-0.69823 0.0784,-0.0554 0.17091,-0.087 0.2668,-0.0914 z m -14.53426,0.72767 h 6.68907 c 0.27453,0 0.49574,0.22121 0.49574,0.49574 0,0.27452 -0.22121,0.49572 -0.49574,0.49572 h -6.68907 c -0.27452,0 -0.49573,-0.2212 -0.49573,-0.49572 0,-0.27453 0.22121,-0.49574 0.49573,-0.49574 z m -2.83437,2.13615 h 12.35783 c 0.28072,0 0.50654,0.22112 0.50654,0.49574 0,0.27462 -0.22582,0.49573 -0.50654,0.49573 h -12.35783 c -0.28072,0 -0.50657,-0.22111 -0.50657,-0.49573 0,-0.27462 0.22585,-0.49574 0.50657,-0.49574 z m -1.80868,2.13617 h 15.97518 c 0.28072,0 0.50715,0.22111 0.50715,0.49573 0,0.27461 -0.22643,0.49572 -0.50715,0.49572 h -15.97518 c -0.28071,0 -0.50716,-0.22111 -0.50716,-0.49572 0,-0.27462 0.22645,-0.49573 0.50716,-0.49573 z m -1.12185,2.13614 h 18.21889 c 0.28072,0 0.50654,0.22111 0.50654,0.49573 0,0.27462 -0.22582,0.49573 -0.50654,0.49573 h -18.21889 c -0.28072,0 -0.50656,-0.22111 -0.50656,-0.49573 0,-0.27462 0.22584,-0.49573 0.50656,-0.49573 z m -0.54202,2.13616 h 19.3029 c 0.28072,0 0.50716,0.22111 0.50716,0.49572 0,0.27463 -0.22644,0.49574 -0.50716,0.49574 h -19.3029 c -0.2807,0 -0.50714,-0.22111 -0.50714,-0.49574 0,-0.27461 0.22644,-0.49572 0.50714,-0.49572 z m 0,2.13616 h 19.3029 c 0.28072,0 0.50716,0.22051 0.50716,0.49512 0,0.27461 -0.22644,0.49574 -0.50716,0.49574 h -19.3029 c -0.2807,0 -0.50714,-0.22113 -0.50714,-0.49574 0,-0.27461 0.22644,-0.49512 0.50714,-0.49512 z m 0.54202,2.13554 h 18.21889 c 0.28072,0 0.50654,0.22111 0.50654,0.49574 0,0.27461 -0.22582,0.49572 -0.50654,0.49572 h -18.21889 c -0.28072,0 -0.50656,-0.22111 -0.50656,-0.49572 0,-0.27463 0.22584,-0.49574 0.50656,-0.49574 z m 1.12185,2.13675 h 15.97518 c 0.28072,0 0.50715,0.22112 0.50715,0.49574 0,0.27461 -0.22643,0.49513 -0.50715,0.49513 h -15.97518 c -0.28071,0 -0.50716,-0.22052 -0.50716,-0.49513 0,-0.27462 0.22645,-0.49574 0.50716,-0.49574 z m 1.80868,2.13556 h 12.35783 c 0.28071,0 0.50654,0.22111 0.50654,0.49572 0,0.27463 -0.22583,0.49574 -0.50654,0.49574 h -12.35783 c -0.28072,0 -0.50657,-0.22111 -0.50657,-0.49574 0,-0.27461 0.22585,-0.49572 0.50657,-0.49572 z m 2.83437,2.13616 h 6.68907 c 0.27453,0 0.49574,0.22121 0.49574,0.49572 0,0.27453 -0.22121,0.49573 -0.49574,0.49573 h -6.68907 c -0.27452,0 -0.49573,-0.2212 -0.49573,-0.49573 0,-0.27451 0.22121,-0.49572 0.49573,-0.49572 z" />
  </g>
</svg>
