<?xml version="1.0" encoding="UTF-8" standalone="no"?>
<!-- Created with Inkscape (http://www.inkscape.org/) -->

<svg
   width="512mm"
   height="512mm"
   viewBox="0 0 512 512"
   version="1.1"
   id="svg1"
   inkscape:version="1.4.2 (f4327f4, 2025-05-13)"
   sodipodi:docname="instagramIcon.svg"
   xmlns:inkscape="http://www.inkscape.org/namespaces/inkscape"
   xmlns:sodipodi="http://sodipodi.sourceforge.net/DTD/sodipodi-0.dtd"
   xmlns="http://www.w3.org/2000/svg"
   xmlns:svg="http://www.w3.org/2000/svg">
  <sodipodi:namedview
     id="namedview1"
     pagecolor="#ffffff"
     bordercolor="#000000"
     borderopacity="0.25"
     inkscape:showpageshadow="2"
     inkscape:pageopacity="0.0"
     inkscape:pagecheckerboard="0"
     inkscape:deskcolor="#d1d1d1"
     inkscape:document-units="mm"
     inkscape:zoom="0.17215734"
     inkscape:cx="-153.92896"
     inkscape:cy="1216.9101"
     inkscape:window-width="1920"
     inkscape:window-height="991"
     inkscape:window-x="-9"
     inkscape:window-y="-9"
     inkscape:window-maximized="1"
     inkscape:current-layer="layer1" />
  <defs
     id="defs1" />
  <g
     inkscape:label="Capa 1"
     inkscape:groupmode="layer"
     id="layer1">
    <path
       style="fill:#062e32;fill-opacity:1;stroke-width:3.78109"
       d="M 160.02836,511.14604 C 131.16781,509.93161 115.48372,507.55453 96.890006,501.5767 43.114811,484.28824 9.9878225,440.91445 3.0899295,378.76255 -1.0181441,341.74759 -1.0342059,170.96814 3.0672573,133.21776 5.9648244,106.54526 14.623614,81.385299 27.799541,61.352626 33.775696,52.266478 52.528347,33.521083 61.661549,27.503645 84.833414,12.236909 110.92493,4.3818417 147.02844,1.8032003 171.23869,0.07403834 291.97422,-0.64351605 333.53329,0.69479754 371.88371,1.9297607 386.8949,3.2713587 401.88845,6.8039248 c 17.84339,4.2040012 37.13608,12.5817602 50.14789,21.7764612 8.66966,6.126339 22.88832,20.038726 29.65616,29.0173 10.68892,14.180606 20.80037,37.808936 24.72615,57.779954 4.41896,22.47964 5.58621,51.88671 5.58133,140.61249 -0.008,125.4954 -2.08967,145.171 -19.01684,179.64376 -17.34195,35.31748 -47.703,58.82223 -89.76804,69.49599 -12.2918,3.11899 -29.01062,5.00421 -53.68141,6.05318 -26.07549,1.10868 -162.91253,1.08194 -189.50492,-0.0378 z m 191.00498,-45.99465 c 29.62771,-1.4885 41.58944,-3.56178 57.6256,-9.9879 19.48695,-7.80902 37.81492,-25.68874 45.66654,-44.54961 10.21334,-24.53417 11.68939,-44.14533 11.67563,-155.12414 -0.0109,-94.37344 -1.11464,-117.86052 -6.4991,-138.39421 C 454.73027,98.898449 446.79781,85.405738 433.72421,73.248571 424.69649,64.853759 417.73503,60.569752 405.87909,56.113033 383.90952,47.854544 370.73217,46.822059 278.53145,46.135184 175.55725,45.368045 137.79637,46.93459 116.14319,52.871876 77.559297,63.451643 54.447188,91.915362 49.13685,135.39363 c -2.424062,19.84692 -3.341189,66.5993 -2.787737,142.1137 0.572726,78.1455 1.239225,93.70885 4.75201,110.95966 4.276911,21.00354 11.004041,33.77038 25.403091,48.21055 8.308223,8.33194 11.561462,10.83497 19.02248,14.6356 18.451906,9.39947 36.211126,12.99308 70.001816,14.16491 22.45441,0.77872 168.62649,0.52131 185.50483,-0.32681 z M 232.53023,385.48868 c -24.63643,-4.60193 -48.51006,-16.79471 -66.38478,-33.9041 -16.01428,-15.32865 -27.37643,-33.01992 -34.39921,-53.56081 -4.09545,-11.9788 -5.78551,-21.54245 -6.41323,-36.29149 -0.7162,-16.8284 0.66556,-28.13365 5.32833,-43.59542 6.38699,-21.17912 17.0505,-38.96413 32.83104,-54.7569 24.79212,-24.81133 57.44423,-38.42316 92.29923,-38.47724 60.65966,-0.0942 112.98359,40.89229 127.78852,100.09932 3.2721,13.08572 4.38425,35.24686 2.4735,49.28915 -7.3307,53.87412 -48.27995,98.15353 -102.02207,110.31889 -10.55513,2.38927 -40.664,2.90294 -51.50133,0.8786 z m 35.9653,-44.9941 c 25.80865,-2.74689 51.67326,-21.74699 64.52067,-47.3968 9.95583,-19.87683 10.73776,-48.42728 1.90931,-69.71546 -13.7838,-33.23707 -46.57535,-53.88967 -82.83628,-52.17153 -22.69076,1.07516 -40.59272,9.03411 -56.58331,25.15608 -17.25406,17.39581 -25.342,38.80969 -24.21043,64.10026 0.4347,9.71477 1.1314,13.86999 3.61222,21.54383 10.49773,32.47182 38.58599,55.30292 72.62291,59.03027 6.91705,0.75747 9.2944,0.69552 20.96491,-0.54665 z M 382.69634,148.35551 c -9.20686,-3.37942 -16.40625,-11.33099 -19.3101,-21.32757 -1.95825,-6.74138 -1.32487,-13.34829 1.97018,-20.55118 10.3649,-22.657464 42.00848,-23.513304 54.21051,-1.46623 2.67413,4.83168 2.96822,6.25555 2.96822,14.3703 0,8.11475 -0.29405,9.53861 -2.96822,14.3703 -3.69741,6.68068 -9.27089,11.53488 -16.24045,14.14453 -6.24597,2.33876 -14.98085,2.53344 -20.63014,0.45985 z"
       id="path2" />
  </g>
</svg>
