<?xml version="1.0" encoding="UTF-8" standalone="no"?>
<svg
   height="48px"
   viewBox="0 -960 960 960"
   width="48px"
   fill="#16464B"
   version="1.1"
   id="svg1"
   sodipodi:docname="userIcon.svg"
   inkscape:version="1.4.2 (f4327f4, 2025-05-13)"
   xmlns:inkscape="http://www.inkscape.org/namespaces/inkscape"
   xmlns:sodipodi="http://sodipodi.sourceforge.net/DTD/sodipodi-0.dtd"
   xmlns="http://www.w3.org/2000/svg"
   xmlns:svg="http://www.w3.org/2000/svg">
  <defs
     id="defs1" />
  <sodipodi:namedview
     id="namedview1"
     pagecolor="#ffffff"
     bordercolor="#000000"
     borderopacity="0.25"
     inkscape:showpageshadow="2"
     inkscape:pageopacity="0.0"
     inkscape:pagecheckerboard="0"
     inkscape:deskcolor="#d1d1d1"
     inkscape:zoom="16.104167"
     inkscape:cx="8.0103493"
     inkscape:cy="18.225097"
     inkscape:window-width="1920"
     inkscape:window-height="991"
     inkscape:window-x="-9"
     inkscape:window-y="-9"
     inkscape:window-maximized="1"
     inkscape:current-layer="svg1" />
  <path
     d="m 480,-490.82125 c -44,0 -80,-14.42834 -108,-43.28503 -28,-28.85669 -42,-65.95814 -42,-111.30435 0,-45.34622 14,-82.44767 42,-111.30435 C 400,-785.57166 436,-800 480,-800 c 44,0 80,14.42834 108,43.28502 28,28.85668 42,65.95813 42,111.30435 0,45.34621 -14,82.44766 -42,111.30435 -28,28.85669 -64,43.28503 -108,43.28503 z M 160,-160 v -96.87601 c 0,-26.10843 6.33333,-48.438 19,-66.98873 12.66667,-18.55072 29,-32.63553 49,-42.25442 44.66667,-20.61192 87.5,-36.07086 128.5,-46.37681 41,-10.30597 82.16667,-15.45895 123.5,-15.45895 41.33333,0 82.33333,5.32475 123,15.97424 40.66667,10.64949 83.30667,26.00194 127.92,46.05733 20.86667,9.70821 37.59667,23.78272 50.19,42.22351 12.59333,18.44079 18.89,40.7154 18.89,66.82383 V -160 Z m 60,-61.83575 h 520 v -35.04026 c 0,-10.99302 -3.16667,-21.47074 -9.5,-31.43317 -6.33333,-9.96243 -14.16667,-17.34836 -23.5,-22.15781 -42.66667,-21.29898 -81.66667,-35.89909 -117,-43.80032 -35.33333,-7.90123 -72,-11.85185 -110,-11.85185 -38,0 -75,3.95062 -111,11.85185 -36,7.90123 -75,22.50134 -117,43.80032 -9.33333,4.80945 -17,12.19538 -23,22.15781 -6,9.96243 -9,20.44015 -9,31.43317 z M 480,-552.657 c 26,0 47.5,-8.76007 64.5,-26.2802 17,-17.52013 25.5,-39.67794 25.5,-66.47343 0,-26.79549 -8.5,-48.9533 -25.5,-66.47343 -17,-17.52013 -38.5,-26.28019 -64.5,-26.28019 -26,0 -47.5,8.76006 -64.5,26.28019 -17,17.52013 -25.5,39.67794 -25.5,66.47343 0,26.79549 8.5,48.9533 25.5,66.47343 17,17.52013 38.5,26.2802 64.5,26.2802 z"
     id="path1"
     style="stroke-width:1.01518"
     sodipodi:nodetypes="ssssssssscsscssscssccccsscssscsscsssssssss" />
</svg>
