<?xml version="1.0" encoding="UTF-8" standalone="no"?>
<!-- Created with Inkscape (http://www.inkscape.org/) -->

<svg
   width="21.552729mm"
   height="17.731321mm"
   viewBox="0 0 21.552728 17.731321"
   version="1.1"
   id="svg1"
   inkscape:version="1.4.2 (f4327f4, 2025-05-13)"
   sodipodi:docname="yarnBackgroundTexture.svg"
   xmlns:inkscape="http://www.inkscape.org/namespaces/inkscape"
   xmlns:sodipodi="http://sodipodi.sourceforge.net/DTD/sodipodi-0.dtd"
   xmlns="http://www.w3.org/2000/svg"
   xmlns:svg="http://www.w3.org/2000/svg">
  <sodipodi:namedview
     id="namedview1"
     pagecolor="#ffffff"
     bordercolor="#000000"
     borderopacity="0.25"
     inkscape:showpageshadow="2"
     inkscape:pageopacity="0.0"
     inkscape:pagecheckerboard="0"
     inkscape:deskcolor="#d1d1d1"
     inkscape:document-units="mm"
     inkscape:zoom="11.01807"
     inkscape:cx="24.051399"
     inkscape:cy="28.816299"
     inkscape:window-width="1920"
     inkscape:window-height="991"
     inkscape:window-x="-9"
     inkscape:window-y="-9"
     inkscape:window-maximized="1"
     inkscape:current-layer="layer1" />
  <defs
     id="defs1" />
  <g
     inkscape:label="Capa 1"
     inkscape:groupmode="layer"
     id="layer1"
     transform="translate(-267.35665,-144.00438)">
    <path
       id="path4"
       style="fill:#fafafa;fill-opacity:1;stroke-width:0.131931"
       d="m 271.50495,146.78657 c -0.10604,9.1e-4 -0.21097,0.0352 -0.31676,0.1121 -0.0879,0.0639 -0.17626,0.15758 -0.2535,0.26301 l -2.7e-4,2.7e-4 c -0.0714,0.10941 -0.12801,0.22522 -0.15688,0.33004 -0.0694,0.25219 0.0207,0.44107 0.19949,0.60853 0.17884,0.16747 0.44645,0.31351 0.66118,0.42234 0.21473,0.10882 0.37667,0.18041 0.5632,0.28906 0.1865,0.10864 0.39755,0.25435 0.59848,0.35963 0.20095,0.10528 0.39186,0.17019 0.58274,0.23505 0.0665,0.008 0.13289,0.0164 0.20004,-0.0111 l 0.567,0.35963 a 5.3332538,5.3332008 0 0 0 -0.16176,0.20629 c -0.0565,0.0704 -0.11396,0.13993 -0.16666,0.21279 a 5.3332538,5.3332008 0 0 0 -0.1634,0.24401 c -0.0523,0.0814 -0.10214,0.16389 -0.14982,0.24781 a 5.3332538,5.3332008 0 0 0 -0.13082,0.23965 c -0.0593,0.11815 -0.11196,0.23918 -0.16231,0.36126 a 5.3332538,5.3332008 0 0 0 -0.098,0.25432 c -0.0481,0.13593 -0.0917,0.27328 -0.12866,0.41283 a 5.3332538,5.3332008 0 0 0 -0.0497,0.2128 c -0.0276,0.12451 -0.0503,0.24989 -0.0689,0.37646 a 5.3332538,5.3332008 0 0 0 -0.0274,0.19841 c -0.0206,0.18876 -0.0342,0.37876 -0.0344,0.57025 a 5.3332538,5.3332008 0 0 0 0,5.3e-4 5.3332538,5.3332008 0 0 1 0,2.6e-4 5.3332538,5.3332008 0 0 0 0.13462,1.19074 c -0.29769,0.1826 -0.58775,0.35962 -0.82864,0.49941 -0.31792,0.1845 -0.55625,0.30886 -0.73474,0.39519 -0.17849,0.0863 -0.29706,0.13452 -0.39628,0.20547 -0.0992,0.0709 -0.17904,0.16483 -0.21631,0.24971 -0.0373,0.0848 -0.0321,0.16003 -0.0133,0.21877 0.0188,0.0587 0.0512,0.0998 0.0863,0.13598 0.035,0.0361 0.0726,0.0673 0.12704,0.0942 0.0544,0.0269 0.12565,0.0492 0.20464,0.057 0.079,0.008 0.16579,9.1e-4 0.25432,-0.0166 0.0886,-0.0175 0.17879,-0.0452 0.25922,-0.089 0.0804,-0.0438 0.15096,-0.10334 0.19759,-0.15091 0.0466,-0.0476 0.0694,-0.0828 0.092,-0.11834 -0.0678,-0.0148 -0.13554,-0.0298 -0.19406,-0.0502 -0.0585,-0.0204 -0.10795,-0.0465 -0.14847,-0.0711 -0.0405,-0.0246 -0.0724,-0.0476 -0.0826,-0.0725 -0.0101,-0.0249 0.002,-0.0517 0.0437,-0.0804 0.0422,-0.0287 0.11532,-0.0593 0.19054,-0.0825 0.0752,-0.0232 0.15256,-0.0389 0.23559,-0.0553 0.083,-0.0166 0.17166,-0.034 0.42885,-0.1482 0.16572,-0.0736 0.40872,-0.1917 0.6696,-0.32001 a 5.3332538,5.3332008 0 0 0 2.83363,3.07141 c -0.0784,0.10004 -0.16309,0.20824 -0.18728,0.23641 -0.82767,0.96385 -2.41342,-1.13051 -3.09393,-1.11691 -0.22287,0.005 -0.37225,0.13633 -0.4359,0.35204 -0.0238,0.0461 -0.0502,0.0614 -0.0785,0.0551 -0.0281,-0.006 -0.058,-0.0345 -0.0906,-0.0708 -0.0328,-0.0364 -0.0682,-0.0811 -0.0993,-0.13598 -0.0311,-0.0548 -0.058,-0.11996 -0.0846,-0.18484 -0.0342,0.0278 -0.0684,0.0556 -0.11155,0.10884 -0.0432,0.0532 -0.0955,0.13191 -0.1292,0.21795 -0.0337,0.086 -0.0489,0.17938 -0.0531,0.26952 -0.005,0.0901 0.002,0.17709 0.023,0.25405 0.0209,0.077 0.0565,0.14399 0.0939,0.19379 0.0374,0.0498 0.0766,0.0823 0.12078,0.11156 0.0864,0.0573 0.26329,0.14363 0.41391,0.0197 0.0604,-0.0497 0.1474,-0.14267 0.2071,-0.25133 0.0597,-0.10867 0.0921,-0.23325 0.15553,-0.42261 0.11773,-0.54832 1.76329,1.2164 2.59858,1.16032 0.11722,-0.008 0.571,0.0783 1.06017,-0.66932 a 5.3332538,5.3332008 0 0 0 0.92555,0.24645 5.3332538,5.3332008 0 0 0 0.44323,0.0652 c 0.16717,0.0178 0.33512,0.029 0.50376,0.031 0.003,3e-5 0.005,2.4e-4 0.008,2.7e-4 0.004,-3e-5 0.007,-2.4e-4 0.0114,-2.7e-4 0.17424,-0.002 0.34761,-0.0137 0.52031,-0.0323 a 5.3332538,5.3332008 0 0 0 0.361,-0.0521 c 0.0374,-0.006 0.0748,-0.0132 0.11209,-0.0207 a 5.3332538,5.3332008 0 0 0 0.87615,-0.23749 c 0.48914,0.74747 0.94296,0.66146 1.06016,0.66932 0.83531,0.0561 2.48086,-1.70865 2.59859,-1.16033 0.0634,0.18937 0.0958,0.31395 0.15552,0.42261 0.0597,0.10867 0.14667,0.20167 0.2071,0.25134 0.15064,0.12382 0.32756,0.0374 0.41391,-0.0198 0.0441,-0.0292 0.0834,-0.0617 0.12079,-0.11155 0.0374,-0.0498 0.0731,-0.11683 0.0939,-0.19379 0.021,-0.077 0.0274,-0.1639 0.023,-0.25405 -0.005,-0.0901 -0.0195,-0.18349 -0.0532,-0.26952 -0.0337,-0.086 -0.086,-0.16476 -0.1292,-0.21795 -0.0432,-0.0531 -0.0774,-0.0811 -0.11156,-0.10884 -0.0267,0.0649 -0.0535,0.13 -0.0846,0.18483 -0.0311,0.0548 -0.0666,0.0996 -0.0993,0.13598 -0.0328,0.0364 -0.0625,0.0645 -0.0907,0.0708 -0.0281,0.006 -0.0546,-0.009 -0.0785,-0.0551 -0.0636,-0.21571 -0.21302,-0.34757 -0.4359,-0.35203 -0.6805,-0.0137 -2.26626,2.08073 -3.09393,1.11689 -0.0241,-0.028 -0.10963,-0.13733 -0.18728,-0.23641 a 5.3332538,5.3332008 0 0 0 0.8748,-0.51271 c 0.0313,-0.0219 0.0623,-0.0441 0.0931,-0.0668 a 5.3332538,5.3332008 0 0 0 0.358,-0.28445 c 0.029,-0.0253 0.0554,-0.0533 0.0839,-0.0793 a 5.3332538,5.3332008 0 0 0 0.5195,-0.55071 c 0.0569,-0.0692 0.11502,-0.13717 0.16828,-0.20899 a 5.3332538,5.3332008 0 0 0 0.17697,-0.25975 c 0.0643,-0.0983 0.12476,-0.19843 0.18239,-0.30073 a 5.3332538,5.3332008 0 0 0 0.12703,-0.2337 c 0.0922,-0.18459 0.17683,-0.37324 0.24726,-0.56809 0.25496,0.12532 0.49403,0.24153 0.65657,0.31377 0.25719,0.11429 0.34581,0.13165 0.42884,0.14819 0.0831,0.0166 0.16037,0.0322 0.2356,0.0553 0.0753,0.0232 0.14825,0.0538 0.19054,0.0825 0.0422,0.0287 0.0536,0.0554 0.0434,0.0804 -0.0101,0.0248 -0.0417,0.0479 -0.0823,0.0724 -0.0405,0.0246 -0.0899,0.0507 -0.14847,0.0711 -0.0585,0.0204 -0.1262,0.0354 -0.19406,0.0502 0.0227,0.0355 0.0454,0.0708 0.092,0.11834 0.0466,0.0476 0.11718,0.10717 0.1976,0.15091 0.0804,0.0438 0.17054,0.0716 0.2592,0.089 0.0886,0.0174 0.1754,0.0243 0.25433,0.0166 0.0791,-0.008 0.15031,-0.0301 0.20464,-0.057 0.0545,-0.0269 0.092,-0.058 0.12704,-0.0942 0.035,-0.0361 0.0674,-0.0773 0.0863,-0.13598 0.0189,-0.0587 0.0239,-0.1339 -0.0133,-0.21877 -0.0372,-0.0848 -0.1171,-0.17877 -0.21632,-0.24971 -0.0992,-0.071 -0.21771,-0.11914 -0.39628,-0.20547 -0.17843,-0.0864 -0.41682,-0.21068 -0.73474,-0.39519 -0.23696,-0.1375 -0.52257,-0.31162 -0.81507,-0.491 a 5.3332538,5.3332008 0 0 0 0.13652,-1.19941 c -5e-5,-0.19515 -0.0141,-0.38851 -0.0353,-0.58083 a 5.3332538,5.3332008 0 0 0 -0.0238,-0.17372 c -0.0197,-0.13762 -0.0449,-0.27382 -0.0752,-0.40902 a 5.3332538,5.3332008 0 0 0 -0.0429,-0.18563 c -0.0456,-0.17392 -0.0982,-0.34588 -0.16096,-0.51407 a 5.3332538,5.3332008 0 0 0 -0.0241,-0.0633 c -0.0645,-0.16632 -0.13889,-0.32851 -0.21985,-0.48775 a 5.3332538,5.3332008 0 0 0 -0.0958,-0.17614 c -0.0643,-0.11545 -0.13281,-0.22831 -0.20573,-0.33901 a 5.3332538,5.3332008 0 0 0 -0.11047,-0.16503 c -0.098,-0.13732 -0.20208,-0.27066 -0.31349,-0.39898 a 5.3332538,5.3332008 0 0 0 -0.04,-0.0505 l 0.55696,-0.35312 c 0.0672,0.0275 0.13376,0.0196 0.20032,0.0111 0.19088,-0.0648 0.3818,-0.12976 0.58274,-0.23504 0.20093,-0.10528 0.41197,-0.251 0.59847,-0.35963 0.18653,-0.10865 0.34847,-0.18024 0.5632,-0.28907 0.21472,-0.10883 0.48206,-0.25487 0.66092,-0.42233 0.17885,-0.16747 0.26925,-0.35634 0.19976,-0.60853 -0.0288,-0.10483 -0.0857,-0.22063 -0.15715,-0.33005 v -2.7e-4 c -0.0773,-0.10542 -0.16554,-0.19906 -0.25351,-0.263 -0.10576,-0.0769 -0.21072,-0.11093 -0.31676,-0.1121 -0.10602,-9.1e-4 -0.21312,0.0305 -0.32297,0.0846 -0.21973,0.10841 -0.45059,0.30719 -0.62808,0.46983 -0.17749,0.16265 -0.30164,0.28902 -0.46901,0.42532 -0.16738,0.1363 -0.37816,0.28248 -0.54746,0.43346 -0.16932,0.15098 -0.29713,0.30667 -0.42505,0.46251 -0.0339,0.0643 -0.067,0.12896 -0.0583,0.21007 l -0.6533,0.41012 a 5.3332538,5.3332008 0 0 0 -0.0785,-0.0611 c -0.1167,-0.0986 -0.23682,-0.19215 -0.36072,-0.27983 a 5.3332538,5.3332008 0 0 0 -0.17751,-0.11781 c -0.10455,-0.0679 -0.21103,-0.13167 -0.31973,-0.19189 a 5.3332538,5.3332008 0 0 0 -0.18049,-0.0977 c -0.14977,-0.0755 -0.30243,-0.14494 -0.45844,-0.206 a 5.3332538,5.3332008 0 0 0 -0.0988,-0.0377 c -0.15983,-0.059 -0.32254,-0.10884 -0.48748,-0.15227 a 5.3332538,5.3332008 0 0 0 -0.18538,-0.0434 c -0.13153,-0.0297 -0.26407,-0.0542 -0.3979,-0.0738 a 5.3332538,5.3332008 0 0 0 -0.17642,-0.0249 c -0.18821,-0.0212 -0.37767,-0.0356 -0.56863,-0.0367 a 5.3332538,5.3332008 0 0 0 -0.0263,0 5.3332538,5.3332008 0 0 0 -0.0136,0 c -0.19149,5.3e-4 -0.38153,0.0146 -0.57026,0.0356 a 5.3332538,5.3332008 0 0 0 -0.18349,0.0258 c -0.13043,0.019 -0.2596,0.0428 -0.38785,0.0714 a 5.3332538,5.3332008 0 0 0 -0.20058,0.0467 c -0.15613,0.0411 -0.31013,0.089 -0.46169,0.14412 a 5.3332538,5.3332008 0 0 0 -0.14792,0.0564 c -0.14417,0.0573 -0.28571,0.12078 -0.4245,0.19054 a 5.3332538,5.3332008 0 0 0 -0.20872,0.11318 c -0.0973,0.0544 -0.19267,0.11199 -0.28663,0.17262 a 5.3332538,5.3332008 0 0 0 -0.20736,0.13789 c -0.0981,0.07 -0.1925,0.14567 -0.28608,0.22255 a 5.3332538,5.3332008 0 0 0 -0.14412,0.11211 l -0.66227,-0.41584 c 0.008,-0.0811 -0.0244,-0.1458 -0.0583,-0.21008 -0.12793,-0.15583 -0.25602,-0.31152 -0.42532,-0.4625 -0.16932,-0.15098 -0.37982,-0.29716 -0.54719,-0.43346 -0.16737,-0.1363 -0.29153,-0.26268 -0.46901,-0.42532 -0.1775,-0.16263 -0.40835,-0.36141 -0.62808,-0.46982 -0.10985,-0.0542 -0.21695,-0.0858 -0.32298,-0.0846 z m 0.29828,0.72062 c 0.0433,0.002 0.0851,0.0162 0.12052,0.0412 0.10197,0.0722 0.12617,0.21315 0.054,0.31513 -0.0722,0.10196 -0.21342,0.12616 -0.31539,0.054 -0.10198,-0.0722 -0.12617,-0.21314 -0.054,-0.31512 0.0445,-0.0628 0.11796,-0.0987 0.19487,-0.0953 z m 12.65989,0 c 0.0769,-0.004 0.15037,0.0324 0.19488,0.0953 0.0721,0.10198 0.0477,0.24297 -0.0542,0.31512 -0.10196,0.0722 -0.24298,0.048 -0.31513,-0.054 -0.0722,-0.10198 -0.048,-0.24297 0.054,-0.31512 0.0354,-0.025 0.0772,-0.0393 0.1205,-0.0412 z m -11.39208,0.89081 c 0.0433,0.002 0.0851,0.0162 0.12051,0.0412 0.102,0.0722 0.12617,0.2134 0.054,0.31539 -0.0722,0.102 -0.21342,0.12621 -0.31539,0.054 -0.10197,-0.0722 -0.12616,-0.21342 -0.054,-0.3154 0.0445,-0.0628 0.11798,-0.0987 0.19488,-0.0953 z m 10.12427,0 c 0.0769,-0.004 0.15042,0.0324 0.19488,0.0953 0.0722,0.10197 0.048,0.24323 -0.054,0.31538 -0.10199,0.0722 -0.24325,0.0481 -0.3154,-0.054 -0.0722,-0.10199 -0.048,-0.24322 0.054,-0.31539 0.0354,-0.025 0.0772,-0.0393 0.12051,-0.0412 z m -6.56513,0.32869 h 3.02146 c 0.12401,0 0.22393,0.0999 0.22393,0.22392 0,0.12401 -0.0999,0.22393 -0.22393,0.22393 h -3.02146 c -0.124,0 -0.22392,-0.0999 -0.22392,-0.22393 0,-0.124 0.0999,-0.22392 0.22392,-0.22392 z m -1.28029,0.9649 h 5.58204 c 0.1268,0 0.22881,0.0999 0.22881,0.22393 0,0.12404 -0.10201,0.22392 -0.22881,0.22392 h -5.58204 c -0.12679,0 -0.22881,-0.0999 -0.22881,-0.22392 0,-0.12405 0.10202,-0.22393 0.22881,-0.22393 z m -0.81698,0.96491 h 7.216 c 0.1268,0 0.22909,0.0999 0.22909,0.22392 0,0.12404 -0.10229,0.22392 -0.22909,0.22392 h -7.216 c -0.12679,0 -0.22907,-0.0999 -0.22907,-0.22392 0,-0.12405 0.10228,-0.22392 0.22907,-0.22392 z m -0.50674,0.96489 h 8.22949 c 0.1268,0 0.22881,0.0999 0.22881,0.22392 0,0.12405 -0.10201,0.22393 -0.22881,0.22393 h -8.22949 c -0.1268,0 -0.2288,-0.0999 -0.2288,-0.22393 0,-0.12404 0.102,-0.22392 0.2288,-0.22392 z m -0.24482,0.9649 h 8.71913 c 0.1268,0 0.22908,0.0999 0.22908,0.22393 0,0.12404 -0.10228,0.22392 -0.22908,0.22392 h -8.71913 c -0.1268,0 -0.22908,-0.0999 -0.22908,-0.22392 0,-0.12404 0.10228,-0.22393 0.22908,-0.22393 z m 0,0.96491 h 8.71913 c 0.1268,0 0.22908,0.0996 0.22908,0.22365 0,0.12404 -0.10228,0.22392 -0.22908,0.22392 h -8.71913 c -0.1268,0 -0.22908,-0.0999 -0.22908,-0.22392 0,-0.12404 0.10228,-0.22365 0.22908,-0.22365 z m 0.24482,0.96463 h 8.22949 c 0.1268,0 0.22881,0.0999 0.22881,0.22392 0,0.12405 -0.10201,0.22392 -0.22881,0.22392 h -8.22949 c -0.1268,0 -0.2288,-0.0999 -0.2288,-0.22392 0,-0.12404 0.102,-0.22392 0.2288,-0.22392 z m 0.50674,0.96517 h 7.216 c 0.1268,0 0.22909,0.0999 0.22909,0.22392 0,0.12404 -0.10229,0.22365 -0.22909,0.22365 h -7.216 c -0.12679,0 -0.22907,-0.0996 -0.22907,-0.22365 0,-0.12404 0.10228,-0.22392 0.22907,-0.22392 z m 0.81698,0.96463 h 5.58204 c 0.1268,0 0.22881,0.0999 0.22881,0.22392 0,0.12404 -0.10201,0.22393 -0.22881,0.22393 h -5.58204 c -0.12679,0 -0.22881,-0.0999 -0.22881,-0.22393 0,-0.12404 0.10202,-0.22392 0.22881,-0.22392 z m 1.28029,0.9649 h 3.02146 c 0.12401,0 0.22393,0.0999 0.22393,0.22393 0,0.124 -0.0999,0.22392 -0.22393,0.22392 h -3.02146 c -0.124,0 -0.22392,-0.0999 -0.22392,-0.22392 0,-0.12401 0.0999,-0.22393 0.22392,-0.22393 z" />
  </g>
</svg>
