<?xml version="1.0" encoding="UTF-8" standalone="no"?>
<!-- Created with Inkscape (http://www.inkscape.org/) -->

<svg
   width="729.06696mm"
   height="512mm"
   viewBox="0 0 729.06696 512"
   version="1.1"
   id="svg1"
   xml:space="preserve"
   inkscape:version="1.4.2 (f4327f4, 2025-05-13)"
   sodipodi:docname="youtubeIcon.svg"
   xmlns:inkscape="http://www.inkscape.org/namespaces/inkscape"
   xmlns:sodipodi="http://sodipodi.sourceforge.net/DTD/sodipodi-0.dtd"
   xmlns="http://www.w3.org/2000/svg"
   xmlns:svg="http://www.w3.org/2000/svg"><sodipodi:namedview
     id="namedview1"
     pagecolor="#ffffff"
     bordercolor="#000000"
     borderopacity="0.25"
     inkscape:showpageshadow="2"
     inkscape:pageopacity="0.0"
     inkscape:pagecheckerboard="0"
     inkscape:deskcolor="#d1d1d1"
     inkscape:document-units="mm"
     inkscape:zoom="0.17215734"
     inkscape:cx="-130.6944"
     inkscape:cy="874.20031"
     inkscape:window-width="1920"
     inkscape:window-height="991"
     inkscape:window-x="-9"
     inkscape:window-y="-9"
     inkscape:window-maximized="1"
     inkscape:current-layer="layer1" /><defs
     id="defs1" /><g
     inkscape:label="Capa 1"
     inkscape:groupmode="layer"
     id="layer1"
     transform="translate(186.26667,-102.12917)"><path
       style="fill:#062e32;fill-opacity:1;stroke-width:5.5139"
       d="m 138.87678,613.93977 c -49.88926,-0.65236 -152.22253,-3.49505 -178.71351,-4.96445 -62.14841,-3.44729 -86.17043,-10.15621 -107.11669,-29.91581 -11.46388,-10.81447 -18.20072,-22.40105 -24.84288,-42.72671 -10.41359,-31.86686 -13.40963,-65.8891 -14.27911,-162.14931 -0.66636,-73.77133 0.28782,-102.90226 4.78689,-146.16673 2.32141,-22.32291 3.50844,-28.52075 8.88791,-46.40618 12.87903,-42.82 40.04689,-65.94011 83.88884,-71.39038 74.64026,-9.27894 360.2091,-10.989859 496.55295,-2.97491 46.54801,2.73627 63.79222,6.48181 80.97613,17.58829 28.67474,18.53338 43.18584,49.16467 48.78255,102.9746 4.52245,43.48111 5.47608,72.5093 4.8089,146.37531 -0.86949,96.26021 -3.86552,130.28245 -14.27912,162.14931 -6.73732,20.61702 -13.32401,31.83499 -25.46142,43.36433 -17.10803,16.251 -34.49572,23.42492 -63.94557,26.38296 -46.74396,4.69519 -211.66514,9.01528 -300.04587,7.85968 z M 203.0677,403.70242 c 50.14919,-26.85903 91.37909,-49.00923 91.62198,-49.22269 0.24261,-0.21338 -36.84927,-19.59771 -82.42705,-43.07606 -45.57772,-23.47834 -89.20363,-46.20233 -96.94641,-50.49777 -7.74279,-4.29549 -14.47189,-7.80995 -14.95359,-7.80995 -0.48191,0 -0.87577,46.29652 -0.87577,102.88109 v 102.88107 l 6.20027,-3.16056 c 3.41012,-1.73831 47.23139,-25.1361 97.38057,-51.99513 z"
       id="path1" /></g></svg>
